<?xml version="1.0" encoding="UTF-8" standalone="no"?>
<!-- Created with Inkscape (http://www.inkscape.org/) -->

<svg
   xmlns:dc="http://purl.org/dc/elements/1.1/"
   xmlns:cc="http://creativecommons.org/ns#"
   xmlns:rdf="http://www.w3.org/1999/02/22-rdf-syntax-ns#"
   xmlns:svg="http://www.w3.org/2000/svg"
   xmlns="http://www.w3.org/2000/svg"
   xmlns:xlink="http://www.w3.org/1999/xlink"
   xmlns:sodipodi="http://sodipodi.sourceforge.net/DTD/sodipodi-0.dtd"
   xmlns:inkscape="http://www.inkscape.org/namespaces/inkscape"
   id="svg2"
   version="1.1"
   inkscape:version="0.48.4 r9939"
   width="2481"
   height="3503"
   sodipodi:docname="Pepper-and-Carrot_by-David-Revoy_E12P02.svg">
  <metadata
     id="metadata8">
    <rdf:RDF>
      <cc:Work
         rdf:about="">
        <dc:format>image/svg+xml</dc:format>
        <dc:type
           rdf:resource="http://purl.org/dc/dcmitype/StillImage" />
        <dc:title />
      </cc:Work>
    </rdf:RDF>
  </metadata>
  <defs
     id="defs6">
    <filter
       style="color-interpolation-filters:sRGB"
       id="filter4375-4-1-1-1"
       inkscape:label="deevad outline effect">
      <feFlood
         id="feFlood4377-7-9-0-8"
         flood-opacity="1"
         flood-color="rgb(52,87,46)"
         result="flood" />
      <feComposite
         id="feComposite4379-3-8-8-2"
         in2="SourceGraphic"
         in="flood"
         operator="in"
         result="composite1" />
      <feMorphology
         id="feMorphology4393-1-0-49-8"
         operator="dilate"
         radius="4"
         result="result3" />
      <feComposite
         id="feComposite4385-9-5-7-0"
         in2="result3"
         in="SourceGraphic"
         operator="over"
         result="composite2" />
    </filter>
  </defs>
  <sodipodi:namedview
     pagecolor="#ffffff"
     bordercolor="#666666"
     borderopacity="1"
     objecttolerance="10"
     gridtolerance="10"
     guidetolerance="10"
     inkscape:pageopacity="0"
     inkscape:pageshadow="2"
     inkscape:window-width="1381"
     inkscape:window-height="876"
     id="namedview4"
     showgrid="false"
     inkscape:zoom="0.24734685"
     inkscape:cx="1448.7522"
     inkscape:cy="1502.963"
     inkscape:window-x="59"
     inkscape:window-y="24"
     inkscape:window-maximized="1"
     inkscape:current-layer="layer3" />
  <g
     inkscape:groupmode="layer"
     id="layer2"
     inkscape:label="artwork"
     sodipodi:insensitive="true">
    <image
       sodipodi:absref="/home/stefan/Documents/Pepper&amp;Carrot/peppercarrot_ep12_translation-master/br/../gfx_Pepper-and-Carrot_by-David-Revoy_E12P02.png"
       xlink:href="../gfx_Pepper-and-Carrot_by-David-Revoy_E12P02.png"
       y="0"
       x="0"
       id="image10"
       height="3503"
       width="2481" />
  </g>
  <g
     inkscape:groupmode="layer"
     id="layer3"
     inkscape:label="speechbubbles">
    <path
       style="fill:#ffffff;stroke:none"
       d="m 1619.4822,493.55313 c 59.37,10.88062 130.239,-19.10803 138.4344,-93.39209 4.9656,-45.00881 2.9147,-72.57554 2.9147,-72.57554 l 37.4598,26.38481 -2.7257,51.07511 c 0,0 -38.0508,127.16014 -176.0832,88.50771 z"
       id="path3063"
       inkscape:connector-curvature="0"
       sodipodi:nodetypes="cscccc" />
    <path
       style="fill:#ffffff;stroke:none"
       d="m 1600.6326,292.78067 c 8.6562,-60.22373 38.5591,-117.86643 218.7639,-125.60952 180.2048,-7.74301 254.1754,71.4082 254.9622,117.00613 0.787,45.59791 -52.7236,130.77153 -198.3038,132.49222 -145.5805,1.72069 -270.7007,-6.02239 -275.4223,-123.88883 z"
       id="path3270"
       inkscape:connector-curvature="0" />
    <path
       style="fill:#ffffff;fill-rule:evenodd;stroke:none;stroke-width:1px;stroke-linecap:butt;stroke-linejoin:miter;stroke-opacity:1"
       d="m 1477.3311,1611.0508 c -3.0154,46.8723 -29.7425,76.9194 -2.3075,76.5302 29.473,-0.4181 -0.1784,-28.9502 2.3075,-76.5302 z"
       id="path4222"
       inkscape:connector-curvature="0"
       sodipodi:nodetypes="csc" />
    <path
       style="fill:#ffffff;fill-rule:evenodd;stroke:none;stroke-width:1px;stroke-linecap:butt;stroke-linejoin:miter;stroke-opacity:1"
       d="m 1982.3019,2077.7766 c -3.0154,46.8723 -29.7425,76.9194 -2.3075,76.5302 29.473,-0.4181 -0.1784,-28.9502 2.3075,-76.5302 z"
       id="path4222-9"
       inkscape:connector-curvature="0"
       sodipodi:nodetypes="csc" />
    <flowRoot
       xml:space="preserve"
       id="flowRoot2987-7-9-9-6-2"
       style="font-style:normal;font-variant:normal;font-weight:normal;font-stretch:normal;font-size:12px;line-height:125%;font-family:Lavi;-inkscape-font-specification:Lavi;letter-spacing:0px;word-spacing:0px;fill:#6f8a91;fill-opacity:1;stroke:none"
       transform="matrix(0.34033125,0.19613469,-0.07244778,0.46867793,867.99043,1397.2326)"><flowRegion
         id="flowRegion2989-4-5-8-75-8"><rect
           id="rect2991-45-1-3-34-5"
           width="417.15793"
           height="141.89404"
           x="120.55251"
           y="265.53046"
           style="font-style:normal;font-variant:normal;font-weight:normal;font-stretch:normal;font-family:Lavi;-inkscape-font-specification:Lavi;fill:#6f8a91" /></flowRegion><flowPara
         id="flowPara2995-4-1-5-4-4"
         style="font-size:48px;fill:#6f8a91">Ziooum !</flowPara></flowRoot>    <path
       style="color:#000000;fill:#ffffff;fill-opacity:1;fill-rule:nonzero;stroke:none;stroke-width:1px;marker:none;visibility:visible;display:inline;overflow:visible;enable-background:accumulate"
       d="m 230.83986,2625.6734 c 5.70225,-11.4504 34.23358,-46.8881 38.99169,-9.3113 47.28473,-51.7099 94.48381,-36.3981 141.68766,-24.8959 10.98446,-15.4382 10.68506,-38.2687 50.30077,-34.9501 -6.62182,-14.4021 5.81195,-25.1728 35.2488,-32.7036 -40.40604,-6.829 -48.39652,-15.6039 24.61331,-29.2416 -56.2029,1.9323 -108.73023,2.668 -45.44894,-34.2964 -20.7221,0.2493 -67.59197,30.7898 -51.01727,-52.3859 -33.51544,28.0772 -70.29578,44.5106 -122.04003,-8.0364 -12.94649,22.4636 -33.65944,38.2466 -77.95217,10.7814 -7.33773,22.0135 -57.91089,26.4031 -76.90822,22.9816 39.46419,22.176 39.31863,37.2183 -11.57797,42.1691 88.98049,39.0495 18.48391,36.0958 5.52173,47.8235 68.40017,11.5179 39.73407,31.6745 29.1811,50.8417 77.35022,-3.3356 54.32783,27.7072 59.39954,51.2239 z"
       id="path3549-3"
       inkscape:connector-curvature="0"
       sodipodi:nodetypes="ccccccccccccccc"
       inkscape:transform-center-x="-198.44388"
       inkscape:transform-center-y="65.408977" />
    <path
       style="color:#000000;display:inline;overflow:visible;visibility:visible;fill:#ffffff;fill-opacity:1;fill-rule:nonzero;stroke:none;stroke-width:1px;marker:none;enable-background:accumulate"
       d="m 308.27858,2558.8689 c 22.23093,45.0827 43.46026,114.2405 119.66529,91.8336 28.367,25.1116 52.78253,40.8669 113.32912,19.0349 -47.52657,7.5386 -74.32369,6.2336 -113.25897,-34.0723 -40.58299,6.3014 -71.81242,-24.8983 -89.08654,-84.7355 -17.27409,-59.8372 13.4365,-43.9063 13.4365,-43.9063 l -41.14045,33.8175 z"
       id="path5074"
       inkscape:connector-curvature="0"
       sodipodi:nodetypes="ccccsccc" />
    <flowRoot
       xml:space="preserve"
       id="flowRoot2987-4-9-3-0"
       style="font-size:12px;font-style:normal;font-variant:normal;font-weight:normal;font-stretch:normal;text-align:center;line-height:125%;letter-spacing:0px;word-spacing:0px;text-anchor:middle;fill:#000000;fill-opacity:1;stroke:none;font-family:Lavi;-inkscape-font-specification:Lavi"
       transform="matrix(1.186725,0,0,1.186725,-186.70066,2159.4757)"><flowRegion
         id="flowRegion2989-5-4-5-1"><rect
           id="rect2991-7-9-6-4"
           width="602.40173"
           height="310.73996"
           x="120.55251"
           y="265.53046"
           style="font-style:normal;font-variant:normal;font-weight:normal;font-stretch:normal;text-align:center;text-anchor:middle;font-family:Lavi;-inkscape-font-specification:Lavi" /></flowRegion><flowPara
         style="font-size:45px;text-align:center;letter-spacing:1.5px;text-anchor:middle;stroke:#000000;stroke-width:1.10000002;stroke-miterlimit:4;stroke-opacity:1;stroke-dasharray:none"
         id="flowPara3030-8-7">C'hwitell!</flowPara></flowRoot>    <path
       style="color:#000000;display:inline;overflow:visible;visibility:visible;fill:#ffffff;fill-opacity:1;fill-rule:nonzero;stroke:none;stroke-width:1px;marker:none;enable-background:accumulate"
       d="m 1356.2388,2471.5325 c 11.6205,-48.9908 108.0265,-69.6563 139.5462,-65.3046 31.5196,4.3517 112.2849,21.7632 131.7981,22.8672 19.5132,1.1039 90.9106,-3.8461 116.7109,-4.9548 25.8004,-1.1088 54.1031,46.7241 50.2447,65.7689 -3.8583,19.0447 -27.3454,71.6526 -94.895,74.2518 -67.5496,2.5994 -157.2304,-10.1797 -175.997,-4.8203 -18.7667,5.3591 -98.512,7.2685 -126.4571,-12.2915 -27.9453,-19.5599 -52.5712,-26.5259 -40.9508,-75.5167 z"
       id="path4554"
       inkscape:connector-curvature="0"
       sodipodi:nodetypes="zsssssssz" />
    <flowRoot
       xml:space="preserve"
       id="flowRoot2987-4-9-3-7"
       style="font-size:12px;font-style:normal;font-variant:normal;font-weight:normal;font-stretch:normal;text-align:center;line-height:125%;letter-spacing:0px;word-spacing:0px;text-anchor:middle;fill:#000000;fill-opacity:1;stroke:none;font-family:Lavi;-inkscape-font-specification:Lavi"
       transform="translate(1156.0427,2192.9602)"><flowRegion
         id="flowRegion2989-5-4-5-5"><rect
           id="rect2991-7-9-6-3"
           width="602.40173"
           height="310.73996"
           x="120.55251"
           y="265.53046"
           style="font-style:normal;font-variant:normal;font-weight:normal;font-stretch:normal;text-align:center;text-anchor:middle;font-family:Lavi;-inkscape-font-specification:Lavi" /></flowRegion><flowPara
         style="font-size:45px;text-align:center;text-anchor:middle"
         id="flowPara3030-8-3">Douarañ holl ?!</flowPara></flowRoot>    <path
       style="color:#000000;display:inline;overflow:visible;visibility:visible;fill:#ffffff;fill-opacity:1;fill-rule:nonzero;stroke:none;stroke-width:1px;marker:none;enable-background:accumulate"
       d="m 1529.3011,2555.7124 c 52.233,-30.0234 383.9835,-68.9862 475.1592,1.6722 76.1031,58.9775 46.4101,205.8527 -21.2715,239.6826 -67.6812,33.83 -314.6104,21.3595 -409.1872,-11.6946 -49.3282,-17.2399 -96.864,-50.8186 -101.7283,-139.5576 -1.9917,-36.333 4.7947,-60.0792 57.0278,-90.1026 z"
       id="path4040-4"
       inkscape:connector-curvature="0"
       sodipodi:nodetypes="zssssz" />
    <flowRoot
       xml:space="preserve"
       id="flowRoot2987-4-9-3-7-3"
       style="font-size:12px;font-style:normal;font-variant:normal;font-weight:normal;font-stretch:normal;text-align:center;line-height:125%;letter-spacing:0px;word-spacing:0px;text-anchor:middle;fill:#000000;fill-opacity:1;stroke:none;font-family:Lavi;-inkscape-font-specification:Lavi"
       transform="translate(1430.4658,2289.1526)"><flowRegion
         id="flowRegion2989-5-4-5-5-2"><rect
           id="rect2991-7-9-6-3-0"
           width="452.3165"
           height="287.86984"
           x="120.55251"
           y="265.53046"
           style="font-style:normal;font-variant:normal;font-weight:normal;font-stretch:normal;text-align:center;text-anchor:middle;font-family:Lavi;-inkscape-font-specification:Lavi" /></flowRegion><flowPara
         style="font-size:45px;text-align:center;text-anchor:middle"
         id="flowPara4352">Kemer a ray eurvezhioù hep komz eus ar c'hlogorennoù da'm daouarn!</flowPara></flowRoot>    <path
       style="color:#000000;display:inline;overflow:visible;visibility:visible;fill:#ffffff;fill-opacity:1;fill-rule:nonzero;stroke:none;stroke-width:1px;marker:none;enable-background:accumulate"
       d="m 1400.4736,2533.7323 c -18.6319,22.5019 -44.8842,46.6694 -52.0048,51.8217 -6.8645,-10.1867 -15.2086,-18.7014 -21.5731,-25.4015 -11.7344,10.6559 -61.4082,63.3167 -64.096,80.5357 4.1256,-43.1549 37.0517,-85.8621 58.589,-101.807 10.249,8.0984 15.2352,13.7511 20.7482,17.9401 11.4577,-7.4488 38.6153,-39.0061 38.6153,-39.0061 z"
       id="path5066"
       inkscape:connector-curvature="0" />
    <flowRoot
       xml:space="preserve"
       id="flowRoot2987-7-9-9-7-0-3-4-1"
       style="font-style:normal;font-variant:normal;font-weight:normal;font-stretch:normal;font-size:12px;line-height:125%;font-family:Lavi;-inkscape-font-specification:Lavi;letter-spacing:0px;word-spacing:0px;display:inline;fill:#000000;fill-opacity:1;stroke:#000000;stroke-width:0.99236238;stroke-miterlimit:4;stroke-dasharray:none;stroke-opacity:1;filter:url(#filter4375-4-1-1-1)"
       transform="matrix(0.99907964,-0.23828437,0.36362081,1.4376966,1595.4478,2880.2412)"><flowRegion
         id="flowRegion2989-4-5-8-7-41-7-62-2"
         style="stroke-width:5.40286207"><rect
           id="rect2991-45-1-3-3-8-0-4-6"
           width="319.66232"
           height="56.089447"
           x="120.55251"
           y="265.53046"
           style="font-style:normal;font-variant:normal;font-weight:normal;font-stretch:normal;font-family:Lavi;-inkscape-font-specification:Lavi;fill:#000000;fill-opacity:1;stroke:#000000;stroke-width:0.99236238;stroke-miterlimit:4;stroke-dasharray:none;stroke-opacity:1" /></flowRegion><flowPara
         id="flowPara2995-4-1-5-0-7-2-6-4"
         style="font-weight:normal;font-size:48px;-inkscape-font-specification:Lavi;letter-spacing:7.06853437px;fill:#ffffff;fill-opacity:1;stroke:#ffffff;stroke-width:0.99236238;stroke-linejoin:miter;stroke-miterlimit:4;stroke-dasharray:none;stroke-opacity:1">Poum</flowPara></flowRoot>  </g>
  <g
     inkscape:groupmode="layer"
     id="layer1"
     inkscape:label="txt">
    <flowRoot
       xml:space="preserve"
       id="flowRoot2987-4-9-3"
       style="font-size:12px;font-style:normal;font-variant:normal;font-weight:normal;font-stretch:normal;text-align:center;line-height:125%;letter-spacing:0px;word-spacing:0px;text-anchor:middle;fill:#000000;fill-opacity:1;stroke:none;font-family:Lavi;-inkscape-font-specification:Lavi"
       transform="translate(1413.5427,-22.039769)"><flowRegion
         id="flowRegion2989-5-4-5"><rect
           id="rect2991-7-9-6"
           width="602.40173"
           height="310.73996"
           x="120.55251"
           y="265.53046"
           style="font-style:normal;font-variant:normal;font-weight:normal;font-stretch:normal;text-align:center;text-anchor:middle;font-family:Lavi;-inkscape-font-specification:Lavi" /></flowRegion><flowPara
         style="font-size:45px;text-align:center;text-anchor:middle"
         id="flowPara3030-8">Steuziañ kuit?</flowPara><flowPara
         style="font-size:45px;text-align:center;text-anchor:middle"
         id="flowPara4169">Aes! Youc'hou!</flowPara></flowRoot>  </g>
</svg>
