<?xml version="1.0" encoding="UTF-8" standalone="no"?>
<!-- Created with Inkscape (http://www.inkscape.org/) -->

<svg
   xmlns:dc="http://purl.org/dc/elements/1.1/"
   xmlns:cc="http://creativecommons.org/ns#"
   xmlns:rdf="http://www.w3.org/1999/02/22-rdf-syntax-ns#"
   xmlns:svg="http://www.w3.org/2000/svg"
   xmlns="http://www.w3.org/2000/svg"
   xmlns:xlink="http://www.w3.org/1999/xlink"
   xmlns:sodipodi="http://sodipodi.sourceforge.net/DTD/sodipodi-0.dtd"
   xmlns:inkscape="http://www.inkscape.org/namespaces/inkscape"
   id="svg2"
   version="1.1"
   inkscape:version="0.91 r13725"
   width="2481"
   height="3503"
   sodipodi:docname="Pepper-and-Carrot_by-David-Revoy_E12P03.svg">
  <metadata
     id="metadata8">
    <rdf:RDF>
      <cc:Work
         rdf:about="">
        <dc:format>image/svg+xml</dc:format>
        <dc:type
           rdf:resource="http://purl.org/dc/dcmitype/StillImage" />
        <dc:title />
      </cc:Work>
    </rdf:RDF>
  </metadata>
  <defs
     id="defs6">
    <filter
       style="color-interpolation-filters:sRGB"
       id="filter4375-4-1-7-3-7"
       inkscape:label="deevad outline effect">
      <feFlood
         id="feFlood4377-7-9-2-4-1"
         flood-opacity="1"
         flood-color="rgb(60,100,48)"
         result="flood" />
      <feComposite
         id="feComposite4379-3-8-5-4-75"
         in2="SourceGraphic"
         in="flood"
         operator="in"
         result="composite1" />
      <feMorphology
         id="feMorphology4393-1-0-4-5-8"
         operator="dilate"
         radius="4"
         result="result3" />
      <feComposite
         id="feComposite4385-9-5-2-1-5"
         in2="result3"
         in="SourceGraphic"
         operator="over"
         result="composite2" />
    </filter>
    <filter
       style="color-interpolation-filters:sRGB"
       id="filter4375-4-1-7-3-7-6"
       inkscape:label="deevad outline effect">
      <feFlood
         id="feFlood4377-7-9-2-4-1-8"
         flood-opacity="1"
         flood-color="rgb(60,100,48)"
         result="flood" />
      <feComposite
         id="feComposite4379-3-8-5-4-75-5"
         in2="SourceGraphic"
         in="flood"
         operator="in"
         result="composite1" />
      <feMorphology
         id="feMorphology4393-1-0-4-5-8-4"
         operator="dilate"
         radius="4"
         result="result3" />
      <feComposite
         id="feComposite4385-9-5-2-1-5-1"
         in2="result3"
         in="SourceGraphic"
         operator="over"
         result="composite2" />
    </filter>
  </defs>
  <sodipodi:namedview
     pagecolor="#ffffff"
     bordercolor="#666666"
     borderopacity="1"
     objecttolerance="10"
     gridtolerance="10"
     guidetolerance="10"
     inkscape:pageopacity="0"
     inkscape:pageshadow="2"
     inkscape:window-width="1366"
     inkscape:window-height="715"
     id="namedview4"
     showgrid="false"
     inkscape:zoom="0.37405949"
     inkscape:cx="1685.1852"
     inkscape:cy="554.00602"
     inkscape:window-x="-8"
     inkscape:window-y="-8"
     inkscape:window-maximized="1"
     inkscape:current-layer="layer1" />
  <g
     inkscape:groupmode="layer"
     id="layer2"
     inkscape:label="artwork"
     sodipodi:insensitive="true">
    <image
       sodipodi:absref="D:\practical\Trans\peppercarrot_ep12_translation\vi\..\gfx_Pepper-and-Carrot_by-David-Revoy_E12P03.png"
       xlink:href="../gfx_Pepper-and-Carrot_by-David-Revoy_E12P03.png"
       width="2481"
       height="3503"
       id="image10"
       x="0"
       y="0" />
  </g>
  <g
     inkscape:groupmode="layer"
     id="layer3"
     inkscape:label="speechbubbles" />
  <g
     inkscape:groupmode="layer"
     id="layer1"
     inkscape:label="txt">
    <path
       style="color:#000000;display:inline;overflow:visible;visibility:visible;fill:#ffffff;fill-opacity:1;fill-rule:nonzero;stroke:none;stroke-width:1px;marker:none;enable-background:accumulate"
       d="m 360.65741,1428.9168 c 3.96899,-2.1762 19.79333,-6.9821 19.79333,-6.9821 0.55874,-0.5426 31.82703,-6.6724 33.89724,-3.2539 23.50142,-1.8382 18.51495,16.9819 16.90818,17.9577 23.09413,3.5551 36.75984,-0.6117 56.56622,-7.1964 -18.01666,1.9167 -27.40814,2.7487 -39.91218,-3.6394 -9.20058,-5.3807 -7.73265,-12.4453 -4.16316,-19.8417 -16.63434,-0.4326 -32.65372,-1.9056 -38.35236,-20.837 l -3.29059,-6.528 c -65.32627,-16.3385 -79.16215,32.6762 -41.44668,50.3208 z"
       id="path4448"
       inkscape:connector-curvature="0"
       sodipodi:nodetypes="cccccccccc" />
    <path
       style="display:inline;fill:#ffffff;fill-rule:evenodd;stroke:none;stroke-width:1px;stroke-linecap:butt;stroke-linejoin:miter;stroke-opacity:1"
       d="m 2370.9082,247.99065 c 0.2091,54.62206 -9.6008,50.12839 -33.5846,74.19447 -24.5527,24.63688 -34.4691,28.6876 -72.7028,38.26595 -31.658,7.93073 -51.371,-4.95483 -74.0382,2.26276 -22.6673,7.21723 -49.3316,29.36636 -80.7413,30.7464 -31.4099,1.38038 -60.1311,-34.65211 -80.2577,-35.51748 -20.1268,-0.86529 -51.7192,25.23497 -67.3736,24.56195 -15.6541,-0.673 -48.9756,-23.49038 -66.8661,-24.25952 -17.8905,-0.76925 -37.5055,24.54017 -68.7124,20.46784 -31.2069,-4.07244 -52.6214,-28.24441 -72.8495,-26.38338 -20.2282,1.86089 -35.2192,26.40599 -70.7974,19.41489 -35.5782,-6.99087 -60.6539,-25.62959 -74.2745,-20.75377 -13.6206,4.87569 -50.4421,28.30489 -88.1551,18.49148 -37.7132,-9.81352 -49.9627,-40.45449 -70.0897,-41.31987 -20.1266,-0.86528 -44.9765,-13.58306 -56.0037,-32.49108 -14.6919,-25.1923 27.9859,-28.28915 15.5434,-55.70446 -10.7671,-23.72455 -13.9061,-21.38139 -7.7506,-49.26594 4.7304,-21.42867 31.9338,-29.11953 56.736,-33.51447 24.8021,-4.39504 19.168,-31.30597 48.3414,-32.78248 29.1734,-1.47639 44.0533,19.68197 75.3616,21.02798 31.3083,1.34604 61.8173,-35.71005 88.4503,-29.10368 26.6329,6.60635 55.5997,22.87873 88.8024,20.98778 53.6258,-3.054 57.972,-21.46541 89.3818,-22.84568 31.4097,-1.38028 56.1036,25.72272 80.7031,26.78037 24.5996,1.05764 48.1617,-29.30663 83.7446,-22.34844 35.4492,6.93211 22.9581,11.12593 66.4853,18.047 31.0357,4.93484 19.8493,-20.24643 80.7247,-18.70814 35.802,0.90469 35.8087,22.4955 66.2029,35.55297 31.0909,13.35655 60.2634,-15.5594 92.3821,-2.00483 39.6453,16.73088 59.2506,66.21184 51.3376,96.20138 z"
       id="path5057"
       inkscape:connector-curvature="0"
       sodipodi:nodetypes="cssssssssssssssssssssssssssssc" />
    <flowRoot
       xml:space="preserve"
       id="flowRoot2987-4-9-3-7-8-6-6-6-0-7"
       style="font-style:normal;font-variant:normal;font-weight:500;font-stretch:normal;font-size:12px;line-height:125%;font-family:'Rounded M+ 1c';-inkscape-font-specification:'Rounded M+ 1c Medium';text-align:center;letter-spacing:0px;word-spacing:0px;text-anchor:middle;display:inline;fill:#000000;fill-opacity:1;stroke:none"
       transform="translate(1296.4889,-93.301375)"><flowRegion
         id="flowRegion2989-5-4-5-5-1-2-4-2-0-8"><rect
           id="rect2991-7-9-6-9-5-7-2-1-3-2"
           width="926.47235"
           height="193.26711"
           x="120.55251"
           y="265.53046"
           style="font-style:normal;font-variant:normal;font-weight:500;font-stretch:normal;font-family:'Rounded M+ 1c';-inkscape-font-specification:'Rounded M+ 1c Medium';text-align:center;text-anchor:middle" /></flowRegion><flowPara
         style="font-style:normal;font-variant:normal;font-weight:500;font-stretch:normal;font-size:45px;font-family:'Rounded M+ 1c';-inkscape-font-specification:'Rounded M+ 1c Medium';text-align:center;text-anchor:middle"
         id="flowPara5032">&quot;Và không được phép dùng ma thuật. </flowPara><flowPara
         style="font-style:normal;font-variant:normal;font-weight:500;font-stretch:normal;font-size:45px;font-family:'Rounded M+ 1c';-inkscape-font-specification:'Rounded M+ 1c Medium';text-align:center;text-anchor:middle"
         id="flowPara3595">Một phù thủy Chaosad thật sự sẽ không dùng phép thuật cho việc dọn dẹp.&quot;</flowPara></flowRoot>    <path
       style="color:#000000;display:inline;overflow:visible;visibility:visible;fill:#ffffff;fill-opacity:1;fill-rule:nonzero;stroke:none;stroke-width:1px;marker:none;enable-background:accumulate"
       d="m 1422.2566,272.72798 c -9.0465,17.17821 -22.1298,35.41844 -25.8633,37.63371 -3.7335,2.21528 -29.1071,-2.82552 -32.6588,2.42499 -3.5516,5.25048 -0.184,20.39637 -3.1892,23.03676 -3.005,2.64026 -22.248,2.15282 -24.7979,6.52322 -2.55,4.3704 -5.4057,31.01895 -7.9857,32.93092 -2.5801,1.91189 -16.4823,12.35157 -25.5588,27.07123 27.6826,-18.9975 34.9365,-17.20605 38.4881,-22.45653 3.5518,-5.25051 3.3409,-22.45998 7.9244,-26.13214 4.5834,-3.67214 23.0981,-3.60961 26.498,-9.43687 3.3999,-5.82716 2.2477,-17.23961 2.2477,-17.23961 5.6756,2.82332 37.3315,12.99419 59.43,-13.16691 22.0987,-26.16114 -14.5345,-41.18877 -14.5345,-41.18877 z"
       id="path5050"
       inkscape:connector-curvature="0" />
    <path
       style="color:#000000;display:inline;overflow:visible;visibility:visible;fill:#ffffff;fill-opacity:1;fill-rule:nonzero;stroke:none;stroke-width:1px;marker:none;enable-background:accumulate"
       d="m 302.45497,1247.2041 c -0.72586,10.7691 4.61327,46.7566 23.3544,17.1486 11.73064,53.8925 50.01371,45.6317 113.9568,25.6267 -30.0755,25.5248 -33.68351,63.3139 -4.70964,70.2726 -10.52722,10.176 -6.2823,22.0327 11.14346,35.3894 -30.96555,-4.2774 -40.13682,0.9564 5.15189,29.9566 -38.37944,-15.3101 -74.68819,-28.7424 -45.75549,16.9831 -14.34068,-5.2656 -34.47176,-41.7222 -57.06199,30.4356 -11.83439,-31.1777 -30.72405,-53.6181 -88.35886,-23.228 0.19749,-21.5567 -7.76041,-39.5401 -49.90586,-27.8686 3.92195,-19.8183 -29.52488,-35.7654 -44.17028,-37.6038 36.60897,-8.5199 42.68214,-20.873 9.24023,-37.3588 78.04732,-10.2422 27.69985,-25.0426 23.47944,-37.812 52.40176,7.2754 40.696,-16.2319 41.20861,-34.5048 52.5427,21.6245 49.23904,-9.4184 62.42729,-27.4366 z"
       id="path3549-3"
       inkscape:connector-curvature="0"
       sodipodi:nodetypes="ccccccccccccccc" />
    <flowRoot
       transform="matrix(0.90617713,0,-0.22078013,1.6225798,-90.595202,884.77795)"
       style="font-style:normal;font-variant:normal;font-weight:500;font-stretch:normal;font-size:12px;line-height:125%;font-family:'Rounded M+ 1c';-inkscape-font-specification:'Rounded M+ 1c Medium';text-align:center;letter-spacing:0px;word-spacing:0px;text-anchor:middle;fill:#000000;fill-opacity:1;stroke:#000000;stroke-width:2.47324347;stroke-miterlimit:4;stroke-dasharray:none;stroke-opacity:1;"
       id="flowRoot4212-3-7-8-6"
       xml:space="preserve"><flowRegion
         id="flowRegion4214-6-7-8-3"><rect
           style="font-style:normal;font-variant:normal;font-weight:500;font-stretch:normal;font-family:'Rounded M+ 1c';-inkscape-font-specification:'Rounded M+ 1c Medium';text-align:center;text-anchor:middle;stroke:#000000;stroke-width:2.47324347;stroke-miterlimit:4;stroke-dasharray:none;stroke-opacity:1;"
           y="265.53046"
           x="120.55251"
           height="355.03918"
           width="798.1947"
           id="rect4216-4-0-26-5" /></flowRegion><flowPara
         style="font-size:48px;text-align:center;letter-spacing:5.20896292px;text-anchor:middle;stroke:#000000;stroke-width:2.47324347;stroke-miterlimit:4;stroke-dasharray:none;stroke-opacity:1;-inkscape-font-specification:'Rounded M+ 1c Medium';font-family:'Rounded M+ 1c';font-weight:500;font-style:normal;font-stretch:normal;font-variant:normal;"
         id="flowPara4358-7-1">Grrr !</flowPara></flowRoot>    <path
       style="color:#000000;display:inline;overflow:visible;visibility:visible;fill:#ffffff;fill-opacity:1;fill-rule:nonzero;stroke:none;stroke-width:1px;marker:none;enable-background:accumulate"
       d="m 1729.5287,1074.8463 -67.6721,-20.2514 17.0959,36.3623 c -31.5236,1.2123 -47.9481,-5.8003 -70.3153,-9.5758 l 35.1576,28.7273 -5.8596,7.98 c 5.7079,4.6658 14.3209,7.8481 16.4069,14.3636 -15.9245,4.0603 -27.374,4.0577 -40.5437,5.6166 12.3917,5.396 22.7086,11.6398 29.9964,19.1209 l -42.1891,12.7677 38.6709,11.1699 c -29.0871,18.3679 -65.6456,29.952 -99.6109,43.891 l 100.0508,-5.1407 -24.6858,29.9513 c 14.0509,-2.6844 21.7016,-6.5529 42.9992,-11.2449 -13.2554,7.8186 -53.6473,35.2091 -49.6528,32.9948 4.6876,-0.798 56.6843,-11.4494 56.6843,-11.4494 0,0 -35.1576,22.3437 -30.47,22.3437 4.6876,0 43.3611,-5.5859 43.3611,-5.5859 l -12.8911,21.5456 50.3926,-11.97 -21.0945,26.7899 c 13.1107,-1.576 21.57,-2.1263 16.9086,7.1891 46.8385,-17.8053 26.0565,-0.088 -14.6957,42.7387 26.7325,-12.7402 42.279,-25.6572 80.5003,-39.4321 9.2121,12.2467 10.5138,29.2609 6.3527,45.7048 12.5474,-12.5068 22.8729,-27.3212 46.877,-27.9294 9.6539,2.7906 7.5884,11.6671 8.2035,19.1516 l 35.1576,-23.9395 0,24.7375 c 16.2275,-19.1502 30.3591,-24.2092 45.7049,-28.7275 12.6741,6.0792 25.3584,13.6729 23.4292,38.9826 18.7538,-21.5197 39.318,-30.8135 56.2615,-24.6187 10.078,9.9617 12.4897,21.3709 15.2351,32.7172 2.8761,-10.7023 3.1619,-22.8992 11.7193,-30.3234 5.3346,7.0708 4.15,16.3985 3.5158,25.5355 8.2721,-17.4362 20.5185,-25.9294 32.8136,-34.3132 18.5658,6.9495 20.5469,19.3795 24.6106,31.1213 6.3634,-13.7227 8.1608,-16.1607 23.4382,-28.7273 46.2245,0.73 70.8204,42.3665 87.8941,78.2022 -4.9465,-32.2131 -9.0744,-63.4972 -7.0314,-87.7781 13.2816,-2.5302 26.5634,2.5306 39.8452,9.5759 l -7.0314,-21.5457 49.2207,14.3637 -22.2667,-33.5153 c 75.1339,-1.0739 60.0507,4.6779 77.3472,7.98 l -14.0633,-21.5457 51.5648,16.7577 c -14.0867,-17.8296 -27.1887,-28.2825 -36.7892,-44.5847 l 48.5082,-4.8904 c -21.1249,-14.3436 -31.2306,-21.7479 -50.7057,-36.3482 l 35.4709,-9.1368 -44.5331,-23.9395 35.1576,-13.5656 -28.126,-3.192 46.8767,-28.7274 -62.1119,-2.3939 75.0031,-51.869 -86.7221,11.1719 7.0314,-37.5053 -48.0487,27.1315 23.0916,-74.7163 c -39.6619,32.1523 -49.5041,30.7959 -96.4155,65.4786 l 14.5613,-33.6237 -50.2262,29.0647 4.6876,-26.9005 -69.1432,32.7172 7.0314,-15.1616 -21.0946,14.3637 4.6875,-19.9496 -36.3294,23.9395 3.3449,-20.8584 -17.4081,13.6765 -5.3604,-13.1058 -20.4218,8.3179 c -6.1447,-34.5793 -9.1047,-44.8511 -1.7992,-79.43046 -23.9766,39.58506 -40.9074,51.08506 -81.4074,81.02646 l -12.891,-15.1563 -16.0733,14.0148 -16.2359,-18.1155 -24.445,21.6474 c -19.3306,-16.4917 -30.5893,-26.596 -38.1714,-43.0875 3.7391,15.4561 6.458,25.839 1.0035,42.8602 -71.36,-26.0599 -95.9293,-42.8602 -95.9293,-42.8602 0,0 11.4249,27.1909 16.5905,42.9399 z"
       id="path4024"
       inkscape:connector-curvature="0"
       sodipodi:nodetypes="cccccccccccccccccsccccccccccccccccccccccccccccccccccccccccccccccccccccccccccccccccccc" />
    <path
       style="color:#000000;display:inline;overflow:visible;visibility:visible;fill:#ffffff;fill-opacity:1;fill-rule:nonzero;stroke:none;stroke-width:1px;marker:none;enable-background:accumulate"
       d="m 1495.2162,1161.0088 c 45.2667,-1.3399 91.122,-12.2107 135.7051,-2.4766 l -30.5598,-34.6986 c 17.4874,-8.2093 36.1977,-1.4791 54.4929,0.1778 l -16.1244,-25.907 c 41.4303,-18.6844 80.9068,-12.0098 121.3275,-17.5923 l -30.8631,-41.9161 c -40.548,12.2593 -79.3563,33.3843 -121.8615,35.6716 l 13.7717,27.627 c -14.6613,3.6275 -29.4343,6.4581 -44.7057,5.7293 l 19.6323,32.4356 z"
       id="path4032"
       inkscape:connector-curvature="0"
       sodipodi:nodetypes="cccccccccccc" />
    <path
       style="color:#000000;display:inline;overflow:visible;visibility:visible;fill:#ffffff;fill-opacity:1;fill-rule:nonzero;stroke:none;stroke-width:1px;marker:none;enable-background:accumulate"
       d="m 1716.7283,920.23711 c -7.297,22.2136 -48.4531,24.0763 -63.6038,19.561 30.5403,24.84999 29.4756,40.28969 -11.9895,42.68699 69.5377,44.7862 12.7124,38.009 1.504,49.3655 54.6,15.4343 30.1714,34.6427 20.4507,53.7643 62.7573,0.6568 42.2197,31.3081 44.8648,55.7199 5.3203,-11.4551 30.5956,-46.3295 32.1164,-7.4992 41.5103,-37.0462 91.5084,-60.9762 95.4784,3.8548 16.7252,-32.6147 33.4002,-46.399 32.1164,-7.4992 41.4398,-50.5941 78.6792,-32.3826 116.1393,-18.0828 9.8387,-15.2705 10.9851,-38.7304 42.8156,-33.2327 -4.463,-15.1358 6.2843,-25.5401 30.5553,-31.7186 -32.2523,-9.1431 -38.1963,-18.574 21.689,-28.7231 -45.5692,-0.9817 -88.0628,-2.993 -34.6002,-37.6044 -16.7727,-0.8375 -56.5677,28.0432 -38.0137,-56.47679 -28.8416,27.05779 -59.613,41.99179 -98.2031,-14.6874 -18.2628,28.3158 -49.9392,42.32759 -63.72,6.9589 -4.9531,15.0783 -25.4913,20.749 -42.9267,21.4367 -6.7423,-5.9894 -13.6962,-14.1245 -20.9529,-24.7828 -11.8605,22.3796 -29.6025,37.49379 -63.72,6.9589 z"
       id="path3549-3-7"
       inkscape:connector-curvature="0"
       sodipodi:nodetypes="cccccccccccccccccccc" />
    <flowRoot
       xml:space="preserve"
       id="flowRoot2987-4-9-3-0"
       style="font-style:normal;font-variant:normal;font-weight:500;font-stretch:normal;font-size:12px;line-height:125%;font-family:'Rounded M+ 1c';-inkscape-font-specification:'Rounded M+ 1c Medium';text-align:center;letter-spacing:0px;word-spacing:0px;text-anchor:middle;fill:#000000;fill-opacity:1;stroke:none"
       transform="matrix(1.0770452,0,0,1.2835583,1385.7088,638.66334)"><flowRegion
         id="flowRegion2989-5-4-5-1"><rect
           id="rect2991-7-9-6-4"
           width="602.40173"
           height="310.73996"
           x="120.55251"
           y="265.53046"
           style="font-style:normal;font-variant:normal;font-weight:500;font-stretch:normal;font-family:'Rounded M+ 1c';-inkscape-font-specification:'Rounded M+ 1c Medium';text-align:center;text-anchor:middle" /></flowRegion><flowPara
         style="font-style:normal;font-variant:normal;font-weight:500;font-stretch:normal;font-size:45px;font-family:'Rounded M+ 1c';-inkscape-font-specification:'Rounded M+ 1c Medium';text-align:center;letter-spacing:1.5px;text-anchor:middle;stroke:#000000;stroke-width:1.10000002;stroke-miterlimit:4;stroke-dasharray:none;stroke-opacity:1"
         id="flowPara3030-8-7">Cà Rốt!</flowPara></flowRoot>    <flowRoot
       xml:space="preserve"
       id="flowRoot2987-4-9-3-7-8-6-6-6-0-7-2"
       style="font-style:normal;font-variant:normal;font-weight:500;font-stretch:normal;font-size:12px;line-height:125%;font-family:'Rounded M+ 1c';-inkscape-font-specification:'Rounded M+ 1c Medium';text-align:center;letter-spacing:0px;word-spacing:0px;text-anchor:middle;display:inline;fill:#000000;fill-opacity:1;stroke:none"
       transform="translate(1415.5706,834.02983)"><flowRegion
         id="flowRegion2989-5-4-5-5-1-2-4-2-0-8-9"><rect
           id="rect2991-7-9-6-9-5-7-2-1-3-2-1"
           width="926.47241"
           height="252.08127"
           x="120.55251"
           y="265.53046"
           style="font-style:normal;font-variant:normal;font-weight:500;font-stretch:normal;font-family:'Rounded M+ 1c';-inkscape-font-specification:'Rounded M+ 1c Medium';text-align:center;text-anchor:middle" /></flowRegion><flowPara
         style="font-style:normal;font-variant:normal;font-weight:500;font-stretch:normal;font-size:45px;font-family:'Rounded M+ 1c';-inkscape-font-specification:'Rounded M+ 1c Medium';text-align:center;text-anchor:middle"
         id="flowPara3389">Mang</flowPara><flowPara
         style="font-style:normal;font-variant:normal;font-weight:500;font-stretch:normal;font-size:45px;font-family:'Rounded M+ 1c';-inkscape-font-specification:'Rounded M+ 1c Medium';text-align:center;text-anchor:middle"
         id="flowPara3393">Quyển sách thứ 7 của Chaosah:</flowPara><flowPara
         style="font-style:normal;font-variant:normal;font-weight:500;font-stretch:normal;font-size:45px;font-family:'Rounded M+ 1c';-inkscape-font-specification:'Rounded M+ 1c Medium';text-align:center;text-anchor:middle"
         id="flowPara4242">&quot;Trường Hấp Dẫn&quot;...</flowPara><flowPara
         style="font-style:normal;font-variant:normal;font-weight:500;font-stretch:normal;font-size:45px;font-family:'Rounded M+ 1c';-inkscape-font-specification:'Rounded M+ 1c Medium';text-align:center;text-anchor:middle"
         id="flowPara4244">...ra đây ngay!</flowPara></flowRoot>    <path
       style="fill:#ffffff;fill-opacity:1;stroke:none"
       d="m 1312.427,2107.3463 c 41.1093,7.1531 56.9204,13.7949 49.5416,17.8825 16.8654,2.0437 23.1901,55.1807 7.3788,64.8883 -1.054,1.0222 -8.4327,4.0875 -5.2704,4.5985 3.1621,0.511 22.1356,-1.0217 25.2978,1.0219 3.1623,2.0438 -28.4601,31.1668 -24.244,32.1887 4.2166,1.0218 101.1922,-18.3936 114.8951,-13.7952 13.7031,4.5984 6.3246,16.3497 10.5411,16.8609 4.216,0.5109 43.2173,-2.5546 48.4877,-2.0439 5.2702,0.511 14.7567,15.8388 20.0272,16.3497 5.2705,0.511 29.5144,-6.6419 33.7308,-6.131 4.2165,0.511 2.1081,13.2843 7.3785,13.7948 5.2705,0.5113 28.4602,-10.7294 31.6224,-10.2185 3.1622,0.5111 14.7574,26.0579 20.0276,27.5905 5.2704,1.5329 39.001,-28.1014 42.1633,-28.6122 3.162,-0.511 23.1897,34.7436 27.406,35.2543 4.2166,0.5111 25.2981,-24.0141 28.4604,-23.5028 3.1621,0.5108 23.1897,14.817 27.406,15.8388 4.2162,1.0219 31.6224,-31.6777 35.8387,-31.6777 4.2166,0 40.0552,13.795 43.2177,16.3497 3.162,2.5548 6.324,-13.2843 10.5406,-13.2843 4.2164,0 52.7042,9.1969 53.7582,8.686 1.0538,-0.511 -7.3787,-10.2186 -4.2163,-10.2186 3.1623,0 52.7039,12.7733 54.8124,10.2186 2.1078,-2.5546 107.5161,12.7733 114.8946,10.7295 7.3788,-2.0436 -47.4336,-41.8964 -42.1636,-44.9618 5.2706,-3.0657 24.2444,0.5107 25.2984,-1.022 1.054,-1.5329 -11.5949,-8.1748 -8.433,-10.2187 3.1625,-2.0437 39.0012,-10.2184 42.1634,-12.773 3.1623,-2.5549 -15.8111,-9.1971 -11.5948,-10.7298 4.2163,-1.5329 66.4073,-11.2405 67.4614,-13.7952 1.0539,-2.5547 -31.6224,-14.8168 -27.4065,-18.3935 4.2164,-3.5765 15.8115,-5.1092 14.7573,-7.664 -1.0541,-2.5547 -21.0817,-5.6203 -20.0274,-8.1749 1.0542,-2.5547 11.5947,-15.3279 14.757,-17.3717 3.1622,-2.0436 -22.1357,-1.0218 -22.1357,-3.0656 0,-2.0436 92.7592,-56.7136 90.6509,-72.0415 -32.6765,9.7078 -144.4091,27.0796 -179.1935,22.9921 -34.7851,-4.0875 -21.0818,-29.6341 -26.3522,-31.1668 -5.2702,-1.5329 -44.2715,8.686 -49.542,5.1092 -5.2704,-3.5765 -7.3783,-10.2184 -11.5949,-10.2184 -4.2162,0 -28.4602,14.3056 -33.7304,13.7952 -5.2706,-0.5113 -54.8123,-22.9921 -62.1909,-23.5032 -7.3786,-0.5107 -35.8388,8.686 -42.1633,9.1968 -6.3245,0.5112 -11.5948,-12.2623 -16.8653,-11.2403 -5.2706,1.0218 -39.0011,10.2186 -44.2711,9.1967 -5.2706,-1.0219 -9.4869,-5.1091 -13.7036,-4.0875 -4.2159,1.0218 -23.1895,5.1094 -23.1895,5.1094 -11.6363,2.5924 -21.7873,-5.1527 -20.0276,-3.0657 3.8333,4.5461 -49.3104,17.4789 -54.8123,17.8825 -5.2703,1.0217 -50.5959,-38.8307 -47.4337,-41.8962 3.1626,-3.0656 -47.4336,42.4075 -54.8123,43.9401 -7.3784,1.5326 -29.5142,-3.0655 -31.6222,-1.5326 -2.1084,1.5326 -8.4329,9.7075 -14.7573,10.2184 -6.3245,0.5108 -21.0816,2.5546 -21.0816,2.5546 l 2.1081,3.0658 c 0,0 -44.2714,-8.1751 -49.5417,-11.2407 -5.2703,-3.0655 3.1622,13.2842 6.3244,17.3717 -18.9732,-4.0875 -74.8397,-12.7733 -79.0557,-15.328 -4.2168,-2.5546 7.3783,9.197 13.7028,12.7733 -8.4327,-1.5328 -15.8114,-2.0437 -15.8114,-2.0437 l 24.244,12.2624 -7.3787,1.022 c 0,0 15.8112,5.6202 15.8112,8.1749 0,2.5545 -41.1091,5.6201 -41.1091,5.6201 0,0 16.8654,4.5983 12.649,7.153 -4.2164,2.5546 -14.7571,4.0874 -14.7571,4.0874 l -2.1082,6.6422 z"
       id="path5888"
       inkscape:connector-curvature="0"
       sodipodi:nodetypes="cccsccscccccccccccscscsccsscsccccccscsssscccccscsccsccccsccccccsccccc" />
    <flowRoot
       xml:space="preserve"
       id="flowRoot2987-4-9-3-7-8-6-6-6-0-7-2-6"
       style="font-style:normal;font-variant:normal;font-weight:500;font-stretch:normal;font-size:12px;line-height:125%;font-family:'Rounded M+ 1c';-inkscape-font-specification:'Rounded M+ 1c Medium';text-align:center;letter-spacing:0px;word-spacing:0px;text-anchor:middle;display:inline;fill:#000000;fill-opacity:1;stroke:none"
       transform="translate(1281.9919,1813.0962)"><flowRegion
         id="flowRegion2989-5-4-5-5-1-2-4-2-0-8-9-7"><rect
           id="rect2991-7-9-6-9-5-7-2-1-3-2-1-0"
           width="687.005"
           height="114.93557"
           x="120.55251"
           y="265.53046"
           style="font-style:normal;font-variant:normal;font-weight:500;font-stretch:normal;font-family:'Rounded M+ 1c';-inkscape-font-specification:'Rounded M+ 1c Medium';text-align:center;text-anchor:middle" /></flowRegion><flowPara
         style="font-style:normal;font-variant:normal;font-weight:500;font-stretch:normal;font-size:45px;font-family:'Rounded M+ 1c';-inkscape-font-specification:'Rounded M+ 1c Medium';text-align:center;text-anchor:middle"
         id="flowPara3597">Ta sẽ cho bà Quạ già đó thấy</flowPara><flowPara
         style="font-style:normal;font-variant:normal;font-weight:500;font-stretch:normal;font-size:45px;font-family:'Rounded M+ 1c';-inkscape-font-specification:'Rounded M+ 1c Medium';text-align:center;text-anchor:middle"
         id="flowPara3397">sức mạnh thật sự!</flowPara></flowRoot>    <path
       style="color:#000000;fill:#ffffff;fill-opacity:1;fill-rule:nonzero;stroke:none;stroke-width:1px;marker:none;visibility:visible;display:inline;overflow:visible;enable-background:accumulate"
       d="m 1476.1891,2360.3093 c 58.7023,-40.2328 74.2517,-66.7852 83.6395,-84.5531 -18.192,-19.5453 -34.2979,-26.4643 -42.5827,-40.8563 31.517,-4.8173 59.7042,-4.3629 69.2765,1.3288 22.6858,-33.1454 -24.8003,-30.4847 -24.8003,-30.4847 0,0 -49.2813,4.066 -77.5084,12.5569 5.4898,31.6668 40.314,52.0029 45.4103,58.94 -10.9648,48.502 -45.6639,73.3026 -53.4349,83.0684 z"
       id="path5162"
       inkscape:connector-curvature="0"
       sodipodi:nodetypes="cccccccc" />
    <flowRoot
       xml:space="preserve"
       id="flowRoot2987-7-9-9-7-0-3-5-2-6"
       style="font-style:normal;font-variant:normal;font-weight:500;font-stretch:normal;font-size:12px;line-height:125%;font-family:'Rounded M+ 1c';-inkscape-font-specification:'Rounded M+ 1c Medium';letter-spacing:0px;word-spacing:0px;fill:#000000;fill-opacity:1;stroke:#000000;stroke-width:0.99236238;stroke-miterlimit:4;stroke-dasharray:none;stroke-opacity:1;filter:url(#filter4375-4-1-7-3-7);"
       transform="matrix(0.69413547,-0.3960575,-0.18345695,1.6511803,1948.8802,2819.5754)"
       inkscape:transform-center-x="192.72092"
       inkscape:transform-center-y="-136.44814"><flowRegion
         id="flowRegion2989-4-5-8-7-41-7-68-63-1"
         style="stroke-width:5.40286207"><rect
           id="rect2991-45-1-3-3-8-0-3-6-32"
           width="319.66232"
           height="56.089447"
           x="120.55251"
           y="265.53046"
           style="font-style:normal;font-variant:normal;font-weight:500;font-stretch:normal;font-family:'Rounded M+ 1c';-inkscape-font-specification:'Rounded M+ 1c Medium';fill:#000000;fill-opacity:1;stroke:#000000;stroke-width:0.99236238;stroke-miterlimit:4;stroke-dasharray:none;stroke-opacity:1;" /></flowRegion><flowPara
         id="flowPara2995-4-1-5-0-7-2-5-3-0"
         style="font-weight:500;font-size:48px;-inkscape-font-specification:'Rounded M+ 1c Medium';letter-spacing:7.06853437px;fill:#ffffff;fill-opacity:1;stroke:#ffffff;stroke-width:0.99236238;stroke-linejoin:miter;stroke-miterlimit:4;stroke-dasharray:none;stroke-opacity:1;font-family:'Rounded M+ 1c';font-style:normal;font-stretch:normal;font-variant:normal;">Tam</flowPara></flowRoot>    <flowRoot
       xml:space="preserve"
       id="flowRoot2987-7-9-9-7-0-3-5-2-6-5"
       style="font-style:normal;font-variant:normal;font-weight:500;font-stretch:normal;font-size:12px;line-height:125%;font-family:'Rounded M+ 1c';-inkscape-font-specification:'Rounded M+ 1c Medium';letter-spacing:0px;word-spacing:0px;fill:#000000;fill-opacity:1;stroke:#000000;stroke-width:0.99236238;stroke-miterlimit:4;stroke-dasharray:none;stroke-opacity:1;filter:url(#filter4375-4-1-7-3-7-6);"
       transform="matrix(0.74738538,-0.36226504,-0.23031168,1.5278671,2226.8064,2821.3226)"
       inkscape:transform-center-x="202.28223"
       inkscape:transform-center-y="-127.60543"><flowRegion
         id="flowRegion2989-4-5-8-7-41-7-68-63-1-5"
         style="stroke-width:5.40286207"><rect
           id="rect2991-45-1-3-3-8-0-3-6-32-1"
           width="319.66232"
           height="56.089447"
           x="120.55251"
           y="265.53046"
           style="font-style:normal;font-variant:normal;font-weight:500;font-stretch:normal;font-family:'Rounded M+ 1c';-inkscape-font-specification:'Rounded M+ 1c Medium';fill:#000000;fill-opacity:1;stroke:#000000;stroke-width:0.99236238;stroke-miterlimit:4;stroke-dasharray:none;stroke-opacity:1;" /></flowRegion><flowPara
         id="flowPara2995-4-1-5-0-7-2-5-3-0-4"
         style="font-weight:500;font-size:48px;-inkscape-font-specification:'Rounded M+ 1c Medium';letter-spacing:7.06853437px;fill:#ffffff;fill-opacity:1;stroke:#ffffff;stroke-width:0.99236238;stroke-linejoin:miter;stroke-miterlimit:4;stroke-dasharray:none;stroke-opacity:1;font-family:'Rounded M+ 1c';font-style:normal;font-stretch:normal;font-variant:normal;">Tam</flowPara></flowRoot>  </g>
</svg>
