<?xml version="1.0" encoding="UTF-8" standalone="no"?>
<!-- Created with Inkscape (http://www.inkscape.org/) -->

<svg
   xmlns:dc="http://purl.org/dc/elements/1.1/"
   xmlns:cc="http://creativecommons.org/ns#"
   xmlns:rdf="http://www.w3.org/1999/02/22-rdf-syntax-ns#"
   xmlns:svg="http://www.w3.org/2000/svg"
   xmlns="http://www.w3.org/2000/svg"
   xmlns:xlink="http://www.w3.org/1999/xlink"
   xmlns:sodipodi="http://sodipodi.sourceforge.net/DTD/sodipodi-0.dtd"
   xmlns:inkscape="http://www.inkscape.org/namespaces/inkscape"
   id="svg2"
   version="1.1"
   inkscape:version="0.48.4 r9939"
   width="2481"
   height="3503"
   sodipodi:docname="Pepper-and-Carrot_by-David-Revoy_E12P03.svg">
  <metadata
     id="metadata8">
    <rdf:RDF>
      <cc:Work
         rdf:about="">
        <dc:format>image/svg+xml</dc:format>
        <dc:type
           rdf:resource="http://purl.org/dc/dcmitype/StillImage" />
        <dc:title />
      </cc:Work>
    </rdf:RDF>
  </metadata>
  <defs
     id="defs6">
    <filter
       style="color-interpolation-filters:sRGB"
       id="filter4375-4-1-7-3-7"
       inkscape:label="deevad outline effect">
      <feFlood
         id="feFlood4377-7-9-2-4-1"
         flood-opacity="1"
         flood-color="rgb(60,100,48)"
         result="flood" />
      <feComposite
         id="feComposite4379-3-8-5-4-75"
         in2="SourceGraphic"
         in="flood"
         operator="in"
         result="composite1" />
      <feMorphology
         id="feMorphology4393-1-0-4-5-8"
         operator="dilate"
         radius="4"
         result="result3" />
      <feComposite
         id="feComposite4385-9-5-2-1-5"
         in2="result3"
         in="SourceGraphic"
         operator="over"
         result="composite2" />
    </filter>
    <filter
       style="color-interpolation-filters:sRGB"
       id="filter4375-4-1-7-3-7-6"
       inkscape:label="deevad outline effect">
      <feFlood
         id="feFlood4377-7-9-2-4-1-8"
         flood-opacity="1"
         flood-color="rgb(60,100,48)"
         result="flood" />
      <feComposite
         id="feComposite4379-3-8-5-4-75-5"
         in2="SourceGraphic"
         in="flood"
         operator="in"
         result="composite1" />
      <feMorphology
         id="feMorphology4393-1-0-4-5-8-4"
         operator="dilate"
         radius="4"
         result="result3" />
      <feComposite
         id="feComposite4385-9-5-2-1-5-1"
         in2="result3"
         in="SourceGraphic"
         operator="over"
         result="composite2" />
    </filter>
  </defs>
  <sodipodi:namedview
     pagecolor="#ffffff"
     bordercolor="#666666"
     borderopacity="1"
     objecttolerance="10"
     gridtolerance="10"
     guidetolerance="10"
     inkscape:pageopacity="0"
     inkscape:pageshadow="2"
     inkscape:window-width="1364"
     inkscape:window-height="695"
     id="namedview4"
     showgrid="false"
     inkscape:zoom="0.42968153"
     inkscape:cx="1115.0786"
     inkscape:cy="1322.6753"
     inkscape:window-x="0"
     inkscape:window-y="24"
     inkscape:window-maximized="1"
     inkscape:current-layer="layer1" />
  <g
     inkscape:groupmode="layer"
     id="layer2"
     inkscape:label="artwork"
     sodipodi:insensitive="true">
    <image
       sodipodi:absref="/media/bonaditya/DATA/PEPPERCARROT/peppercarrot_ep12_translation-master/id/../gfx_Pepper-and-Carrot_by-David-Revoy_E12P03.png"
       xlink:href="../gfx_Pepper-and-Carrot_by-David-Revoy_E12P03.png"
       width="2481"
       height="3503"
       id="image10"
       x="0"
       y="0" />
  </g>
  <g
     inkscape:groupmode="layer"
     id="layer3"
     inkscape:label="speechbubbles" />
  <g
     inkscape:groupmode="layer"
     id="layer1"
     inkscape:label="txt">
    <path
       style="color:#000000;display:inline;overflow:visible;visibility:visible;fill:#ffffff;fill-opacity:1;fill-rule:nonzero;stroke:none;stroke-width:1px;marker:none;enable-background:accumulate"
       d="m 360.65741,1428.9168 c 3.96899,-2.1762 19.79333,-6.9821 19.79333,-6.9821 0.55874,-0.5426 31.82703,-6.6724 33.89724,-3.2539 23.50142,-1.8382 18.51495,16.9819 16.90818,17.9577 23.09413,3.5551 36.75984,-0.6117 56.56622,-7.1964 -18.01666,1.9167 -27.40814,2.7487 -39.91218,-3.6394 -9.20058,-5.3807 -7.73265,-12.4453 -4.16316,-19.8417 -16.63434,-0.4326 -32.65372,-1.9056 -38.35236,-20.837 l -3.29059,-6.528 c -65.32627,-16.3385 -79.16215,32.6762 -41.44668,50.3208 z"
       id="path4448"
       inkscape:connector-curvature="0"
       sodipodi:nodetypes="cccccccccc" />
    <path
       style="fill:#ffffff;fill-rule:evenodd;stroke:none;display:inline"
       d="m 2370.9082,258.01557 c 0.2091,58.72161 -9.6008,53.89067 -33.5846,79.76299 -24.5527,26.48595 -34.4691,30.84068 -72.7028,41.13792 -31.658,8.52595 -51.371,-5.32671 -74.0382,2.43259 -22.6673,7.7589 -49.3316,31.57039 -80.7413,33.054 -31.4099,1.48399 -60.1311,-37.25285 -80.2577,-38.18317 -20.1268,-0.93023 -51.7192,27.12893 -67.3736,26.4054 -15.6541,-0.72351 -48.9756,-25.2534 -66.8661,-26.08027 -17.8905,-0.82698 -37.5055,26.38198 -68.7124,22.00401 -31.2069,-4.37809 -52.6214,-30.36423 -72.8495,-28.36353 -20.2282,2.00056 -35.2192,28.38784 -70.7974,20.87204 -35.5782,-7.51556 -60.6539,-27.55317 -74.2745,-22.31141 -13.6206,5.24163 -50.4421,30.42926 -88.1551,19.87932 -37.7132,-10.55005 -49.9627,-43.49071 -70.0897,-44.42104 -20.1266,-0.93023 -44.9765,-14.60251 -56.0037,-34.92964 -14.6919,-27.08305 27.9859,-30.41233 15.5434,-59.88524 -10.7671,-25.50515 -13.9061,-22.98613 -7.7506,-52.9635 4.7304,-23.03695 31.9338,-31.30503 56.736,-36.02983 24.8021,-4.7249 19.168,-33.65557 48.3414,-35.2429 29.1734,-1.5872 44.0533,21.15916 75.3616,22.60619 31.3083,1.44707 61.8173,-38.39019 88.4503,-31.28799 26.6329,7.10217 55.5997,24.59584 88.8024,22.56297 53.6258,-3.28321 57.972,-23.07645 89.3818,-24.56031 31.4097,-1.48388 56.1036,27.65328 80.7031,28.79031 24.5996,1.13702 48.1617,-31.50618 83.7446,-24.02576 35.4492,7.45239 22.9581,11.96097 66.4853,19.40149 31.0357,5.30521 19.8493,-21.76599 80.7247,-20.11225 35.802,0.97259 35.8087,24.18386 66.2029,38.22133 31.0909,14.359 60.2634,-16.72718 92.3821,-2.1553 39.6453,17.98658 59.2506,71.18124 51.3376,103.42158 z"
       id="path5057"
       inkscape:connector-curvature="0"
       sodipodi:nodetypes="cssssssssssssssssssssssssssssc" />
    <flowRoot
       xml:space="preserve"
       id="flowRoot2987-4-9-3-7-8-6-6-6-0-7"
       style="font-size:12px;font-style:normal;font-variant:normal;font-weight:normal;font-stretch:normal;text-align:center;line-height:125%;letter-spacing:0px;word-spacing:0px;text-anchor:middle;fill:#000000;fill-opacity:1;stroke:none;display:inline;font-family:Lavi;-inkscape-font-specification:Lavi"
       transform="translate(1291.8343,-116.57443)"><flowRegion
         id="flowRegion2989-5-4-5-5-1-2-4-2-0-8"><rect
           id="rect2991-7-9-6-9-5-7-2-1-3-2"
           width="931.12701"
           height="232.83128"
           x="120.55251"
           y="265.53046"
           style="font-style:normal;font-variant:normal;font-weight:normal;font-stretch:normal;text-align:center;text-anchor:middle;font-family:Lavi;-inkscape-font-specification:Lavi" /></flowRegion><flowPara
         style="font-size:45px;text-align:center;text-anchor:middle"
         id="flowPara5032">Kata orang tua itu... </flowPara><flowPara
         style="font-size:45px;text-align:center;text-anchor:middle"
         id="flowPara3595">&quot;Penyihir Chaosah yang sesungguhnya tidak boleh menggunakan sihir dalam aktivitas sederhana.&quot;</flowPara></flowRoot>    <path
       style="color:#000000;display:inline;overflow:visible;visibility:visible;fill:#ffffff;fill-opacity:1;fill-rule:nonzero;stroke:none;stroke-width:1px;marker:none;enable-background:accumulate"
       d="m 1422.2566,272.72798 c -9.0465,17.17821 -22.1298,35.41844 -25.8633,37.63371 -3.7335,2.21528 -29.1071,-2.82552 -32.6588,2.42499 -3.5516,5.25048 -0.184,20.39637 -3.1892,23.03676 -3.005,2.64026 -22.248,2.15282 -24.7979,6.52322 -2.55,4.3704 -5.4057,31.01895 -7.9857,32.93092 -2.5801,1.91189 -16.4823,12.35157 -25.5588,27.07123 27.6826,-18.9975 34.9365,-17.20605 38.4881,-22.45653 3.5518,-5.25051 3.3409,-22.45998 7.9244,-26.13214 4.5834,-3.67214 23.0981,-3.60961 26.498,-9.43687 3.3999,-5.82716 2.2477,-17.23961 2.2477,-17.23961 5.6756,2.82332 37.3315,12.99419 59.43,-13.16691 22.0987,-26.16114 -14.5345,-41.18877 -14.5345,-41.18877 z"
       id="path5050"
       inkscape:connector-curvature="0" />
    <path
       style="color:#000000;display:inline;overflow:visible;visibility:visible;fill:#ffffff;fill-opacity:1;fill-rule:nonzero;stroke:none;stroke-width:1px;marker:none;enable-background:accumulate"
       d="m 302.45497,1247.2041 c -0.72586,10.7691 4.61327,46.7566 23.3544,17.1486 11.73064,53.8925 50.01371,45.6317 113.9568,25.6267 -30.0755,25.5248 -33.68351,63.3139 -4.70964,70.2726 -10.52722,10.176 -6.2823,22.0327 11.14346,35.3894 -30.96555,-4.2774 -40.13682,0.9564 5.15189,29.9566 -38.37944,-15.3101 -74.68819,-28.7424 -45.75549,16.9831 -14.34068,-5.2656 -34.47176,-41.7222 -57.06199,30.4356 -11.83439,-31.1777 -30.72405,-53.6181 -88.35886,-23.228 0.19749,-21.5567 -7.76041,-39.5401 -49.90586,-27.8686 3.92195,-19.8183 -29.52488,-35.7654 -44.17028,-37.6038 36.60897,-8.5199 42.68214,-20.873 9.24023,-37.3588 78.04732,-10.2422 27.69985,-25.0426 23.47944,-37.812 52.40176,7.2754 40.696,-16.2319 41.20861,-34.5048 52.5427,21.6245 49.23904,-9.4184 62.42729,-27.4366 z"
       id="path3549-3"
       inkscape:connector-curvature="0"
       sodipodi:nodetypes="ccccccccccccccc" />
    <flowRoot
       transform="matrix(0.90617713,0,-0.22078013,1.6225798,-90.595202,884.77795)"
       style="font-size:12px;font-style:normal;font-variant:normal;font-weight:normal;font-stretch:normal;text-align:center;line-height:125%;letter-spacing:0px;word-spacing:0px;text-anchor:middle;fill:#000000;fill-opacity:1;stroke:#000000;stroke-width:2.47324347;stroke-miterlimit:4;stroke-opacity:1;stroke-dasharray:none;font-family:Lavi;-inkscape-font-specification:Lavi"
       id="flowRoot4212-3-7-8-6"
       xml:space="preserve"><flowRegion
         id="flowRegion4214-6-7-8-3"><rect
           style="font-style:normal;font-variant:normal;font-weight:normal;font-stretch:normal;text-align:center;text-anchor:middle;stroke:#000000;stroke-width:2.47324347;stroke-miterlimit:4;stroke-opacity:1;stroke-dasharray:none;font-family:Lavi;-inkscape-font-specification:Lavi"
           y="265.53046"
           x="120.55251"
           height="355.03918"
           width="798.1947"
           id="rect4216-4-0-26-5" /></flowRegion><flowPara
         style="font-size:48px;text-align:center;letter-spacing:5.20896292px;text-anchor:middle;stroke:#000000;stroke-width:2.47324347;stroke-miterlimit:4;stroke-opacity:1;stroke-dasharray:none"
         id="flowPara4358-7-1">Grrr!</flowPara></flowRoot>    <path
       style="color:#000000;fill:#ffffff;fill-opacity:1;fill-rule:nonzero;stroke:none;stroke-width:1px;marker:none;visibility:visible;display:inline;overflow:visible;enable-background:accumulate"
       d="m 1783.5051,1068.9286 -63.065,-18.8122 15.9321,33.7782 c -29.3775,1.1262 -44.6838,-5.3881 -65.5282,-8.8953 l 32.764,26.6857 -5.4606,7.4129 c 5.3192,4.3343 13.3458,7.2904 15.2898,13.3429 -14.8403,3.7718 -25.5104,3.7693 -37.7835,5.2175 11.5482,5.0125 21.1626,10.8126 27.9543,17.762 l -39.3168,11.8603 36.0382,10.3761 c -27.1069,17.0626 -61.1765,27.8235 -92.8294,40.7718 l 93.2393,-4.7753 -23.0052,27.8227 c 13.0943,-2.4936 20.2241,-6.0871 40.0718,-10.4457 -12.353,7.2629 -49.995,32.7069 -46.2724,30.65 4.3685,-0.7413 52.8251,-10.6358 52.8251,-10.6358 0,0 -32.764,20.7559 -28.3955,20.7559 4.3685,0 40.4091,-5.189 40.4091,-5.189 l -12.0136,20.0144 46.9619,-11.1192 -19.6584,24.886 c 12.2182,-1.464 20.1016,-1.9752 15.7575,6.6781 43.6498,-16.5399 24.2826,-0.081 -13.6952,39.7015 24.9125,-11.8348 39.4006,-23.8338 75.0198,-36.6298 8.5849,11.3763 9.798,27.1814 5.9202,42.4567 11.6931,-11.618 21.3157,-25.3796 43.6856,-25.9446 8.9966,2.5923 7.0718,10.838 7.6449,17.7906 l 32.7641,-22.2382 0,22.9795 c 15.1228,-17.7893 28.2923,-22.4888 42.5933,-26.6859 11.8113,5.6471 23.632,12.7012 21.8342,36.2122 17.477,-19.9903 36.6411,-28.6237 52.4311,-22.8691 9.392,9.2537 11.6394,19.8521 14.1979,30.392 2.6803,-9.9417 2.9466,-21.2718 10.9215,-28.1683 4.9714,6.5683 3.8674,15.233 3.2764,23.7207 7.709,-16.1971 19.1216,-24.0867 30.5796,-31.8746 17.3019,6.4555 19.1481,18.0022 22.9351,28.9096 5.9302,-12.7475 7.6052,-15.0122 21.8425,-26.6858 43.0776,0.6782 65.999,39.3557 81.9103,72.6447 -4.6098,-29.9239 -8.4567,-58.9847 -6.5528,-81.5401 12.3774,-2.3504 24.755,2.3508 37.1326,8.8954 l -6.5528,-20.0145 45.8698,13.3429 -20.7508,-31.1335 c 70.0188,-0.9976 55.9624,4.3455 72.0814,7.4129 l -13.1059,-20.0145 48.0542,15.5667 c -13.1276,-16.5625 -25.3376,-26.2725 -34.2845,-41.4161 l 45.2058,-4.5429 c -19.6868,-13.3243 -29.1044,-20.2024 -47.2537,-33.765 l 33.056,-8.4875 -41.5012,-22.2382 32.764,-12.6016 -26.2112,-2.9652 43.6854,-26.6858 -57.8833,-2.2238 69.8968,-48.1828 -80.818,10.3779 6.5527,-34.8399 -44.7775,25.2033 21.5195,-69.4064 c -36.9617,29.8674 -46.1338,28.6074 -89.8515,60.8252 l 13.57,-31.2342 -46.8068,26.9993 4.3684,-24.9888 -64.4358,30.3921 6.5527,-14.0841 -19.6585,13.3428 4.3684,-18.5318 -33.8561,22.2382 3.1172,-19.376 -16.2229,12.7045 -4.9955,-12.1745 -19.0315,7.7269 c -5.7264,-32.1219 -8.4848,-41.6638 -1.6767,-73.78566 -22.3443,36.77186 -38.1224,47.45466 -75.8651,75.26816 l -12.0134,-14.0791 -14.979,13.0187 -15.1306,-16.828 -22.7807,20.1089 c -18.0146,-15.3196 -28.5068,-24.7058 -35.5728,-40.0253 3.4846,14.3576 6.0184,24.0026 0.9353,39.8142 -66.5018,-24.2079 -89.3984,-39.8142 -89.3984,-39.8142 0,0 10.6471,25.2584 15.461,39.8882 z"
       id="path4024"
       inkscape:connector-curvature="0"
       sodipodi:nodetypes="cccccccccccccccccsccccccccccccccccccccccccccccccccccccccccccccccccccccccccccccccccccc" />
    <path
       style="color:#000000;fill:#ffffff;fill-opacity:1;fill-rule:nonzero;stroke:none;stroke-width:1px;marker:none;visibility:visible;display:inline;overflow:visible;enable-background:accumulate"
       d="m 1448.6701,1163.3361 c 45.2667,-1.3399 91.122,-12.2107 135.7051,-2.4766 l -30.5598,-34.6986 c 17.4874,-8.2093 36.1977,-1.4791 54.4929,0.1778 l -16.1244,-25.907 c 41.4303,-18.6844 80.9068,-12.0098 121.3275,-17.5923 l -30.8631,-41.9161 c -40.548,12.2593 -79.3563,33.3843 -121.8615,35.6716 l 13.7717,27.627 c -14.6613,3.6275 -29.4343,6.4581 -44.7057,5.7293 l 19.6323,32.4356 z"
       id="path4032"
       inkscape:connector-curvature="0"
       sodipodi:nodetypes="cccccccccccc" />
    <path
       style="color:#000000;fill:#ffffff;fill-opacity:1;fill-rule:nonzero;stroke:none;stroke-width:1px;marker:none;visibility:visible;display:inline;overflow:visible;enable-background:accumulate"
       d="m 1699.568,916.85691 c -8.1117,24.89145 -53.8629,26.97869 -70.7052,21.91908 33.9501,27.84564 32.7666,45.14659 -13.3282,47.83289 77.3017,50.18512 14.1318,42.59102 1.6719,55.31652 60.6962,17.2949 33.5401,38.8188 22.7341,60.2455 69.7643,0.736 46.9336,35.0823 49.874,62.437 5.9144,-12.836 34.0117,-51.9145 35.7023,-8.4033 46.145,-41.5121 101.7255,-68.3268 106.1387,4.3195 18.5926,-36.5464 37.1294,-51.9924 35.7023,-8.4032 46.0666,-56.6932 87.4639,-36.2863 129.1065,-20.2627 10.9372,-17.1113 12.2116,-43.3993 47.596,-37.2389 -4.9613,-16.9604 6.986,-28.6189 33.9669,-35.5422 -35.8533,-10.2453 -42.461,-20.8131 24.1106,-32.1857 -50.6571,-1.1 -97.8952,-3.3538 -38.4634,-42.13759 -18.6454,-0.93846 -62.8836,31.42379 -42.258,-63.28505 -32.0618,30.3196 -66.2689,47.05389 -109.1676,-16.45796 -20.3019,31.72926 -55.5151,47.43017 -70.8345,7.79779 -5.5061,16.89599 -28.3375,23.25029 -47.7196,24.02089 -7.4951,-6.71142 -15.2254,-15.8272 -23.2923,-27.77036 -13.1847,25.07745 -32.9077,42.01365 -70.8345,7.79779 z"
       id="path3549-3-7"
       inkscape:connector-curvature="0"
       sodipodi:nodetypes="cccccccccccccccccccc" />
    <flowRoot
       xml:space="preserve"
       id="flowRoot2987-4-9-3-0"
       style="font-style:normal;font-variant:normal;font-weight:normal;font-stretch:normal;font-size:12px;line-height:125%;font-family:Lavi;-inkscape-font-specification:Lavi;text-align:center;letter-spacing:0px;word-spacing:0px;text-anchor:middle;fill:#000000;fill-opacity:1;stroke:none"
       transform="matrix(1.0770452,0,0,1.2835583,1385.7088,638.66334)"><flowRegion
         id="flowRegion2989-5-4-5-1"><rect
           id="rect2991-7-9-6-4"
           width="602.40173"
           height="310.73996"
           x="120.55251"
           y="265.53046"
           style="font-style:normal;font-variant:normal;font-weight:normal;font-stretch:normal;font-family:Lavi;-inkscape-font-specification:Lavi;text-align:center;text-anchor:middle" /></flowRegion><flowPara
         style="font-size:45px;text-align:center;letter-spacing:1.5px;text-anchor:middle;stroke:#000000;stroke-width:1.10000002;stroke-miterlimit:4;stroke-dasharray:none;stroke-opacity:1"
         id="flowPara3030-8-7">CARROT!</flowPara></flowRoot>    <flowRoot
       xml:space="preserve"
       id="flowRoot2987-4-9-3-7-8-6-6-6-0-7-2"
       style="font-size:12px;font-style:normal;font-variant:normal;font-weight:normal;font-stretch:normal;text-align:center;line-height:125%;letter-spacing:0px;word-spacing:0px;text-anchor:middle;fill:#000000;fill-opacity:1;stroke:none;display:inline;font-family:Lavi;-inkscape-font-specification:Lavi"
       transform="translate(1436.916,856.9394)"><flowRegion
         id="flowRegion2989-5-4-5-5-1-2-4-2-0-8-9"><rect
           id="rect2991-7-9-6-9-5-7-2-1-3-2-1"
           width="926.47235"
           height="193.26711"
           x="120.55251"
           y="265.53046"
           style="font-style:normal;font-variant:normal;font-weight:normal;font-stretch:normal;text-align:center;text-anchor:middle;font-family:Lavi;-inkscape-font-specification:Lavi" /></flowRegion><flowPara
         style="font-size:45px;text-align:center;text-anchor:middle"
         id="flowPara5032-7">Ambilkan buku ketujuh Chaosah:</flowPara><flowPara
         style="font-size:45px;text-align:center;text-anchor:middle"
         id="flowPara4242">&quot;Medan Gravitasi&quot;...</flowPara><flowPara
         style="font-size:45px;text-align:center;text-anchor:middle"
         id="flowPara4244">...cepat!</flowPara></flowRoot>    <path
       style="fill:#ffffff;fill-opacity:1;stroke:none"
       d="m 1312.427,2107.3463 c 41.1093,7.1531 56.9204,13.7949 49.5416,17.8825 16.8654,2.0437 23.1901,55.1807 7.3788,64.8883 -1.054,1.0222 -8.4327,4.0875 -5.2704,4.5985 3.1621,0.511 22.1356,-1.0217 25.2978,1.0219 3.1623,2.0438 -28.4601,31.1668 -24.244,32.1887 4.2166,1.0218 101.1922,-18.3936 114.8951,-13.7952 13.7031,4.5984 6.3246,16.3497 10.5411,16.8609 4.216,0.5109 43.2173,-2.5546 48.4877,-2.0439 5.2702,0.511 14.7567,15.8388 20.0272,16.3497 5.2705,0.511 29.5144,-6.6419 33.7308,-6.131 4.2165,0.511 2.1081,13.2843 7.3785,13.7948 5.2705,0.5113 28.4602,-10.7294 31.6224,-10.2185 3.1622,0.5111 14.7574,26.0579 20.0276,27.5905 5.2704,1.5329 39.001,-28.1014 42.1633,-28.6122 3.162,-0.511 23.1897,34.7436 27.406,35.2543 4.2166,0.5111 25.2981,-24.0141 28.4604,-23.5028 3.1621,0.5108 23.1897,14.817 27.406,15.8388 4.2162,1.0219 31.6224,-31.6777 35.8387,-31.6777 4.2166,0 40.0552,13.795 43.2177,16.3497 3.162,2.5548 6.324,-13.2843 10.5406,-13.2843 4.2164,0 52.7042,9.1969 53.7582,8.686 1.0538,-0.511 -7.3787,-10.2186 -4.2163,-10.2186 3.1623,0 52.7039,12.7733 54.8124,10.2186 2.1078,-2.5546 107.5161,12.7733 114.8946,10.7295 7.3788,-2.0436 -47.4336,-41.8964 -42.1636,-44.9618 5.2706,-3.0657 24.2444,0.5107 25.2984,-1.022 1.054,-1.5329 -11.5949,-8.1748 -8.433,-10.2187 3.1625,-2.0437 39.0012,-10.2184 42.1634,-12.773 3.1623,-2.5549 -15.8111,-9.1971 -11.5948,-10.7298 4.2163,-1.5329 66.4073,-11.2405 67.4614,-13.7952 1.0539,-2.5547 -31.6224,-14.8168 -27.4065,-18.3935 4.2164,-3.5765 15.8115,-5.1092 14.7573,-7.664 -1.0541,-2.5547 -21.0817,-5.6203 -20.0274,-8.1749 1.0542,-2.5547 11.5947,-15.3279 14.757,-17.3717 3.1622,-2.0436 -22.1357,-1.0218 -22.1357,-3.0656 0,-2.0436 92.7592,-56.7136 90.6509,-72.0415 -32.6765,9.7078 -144.4091,27.0796 -179.1935,22.9921 -34.7851,-4.0875 -21.0818,-29.6341 -26.3522,-31.1668 -5.2702,-1.5329 -44.2715,8.686 -49.542,5.1092 -5.2704,-3.5765 -7.3783,-10.2184 -11.5949,-10.2184 -4.2162,0 -28.4602,14.3056 -33.7304,13.7952 -5.2706,-0.5113 -54.8123,-22.9921 -62.1909,-23.5032 -7.3786,-0.5107 -35.8388,8.686 -42.1633,9.1968 -6.3245,0.5112 -11.5948,-12.2623 -16.8653,-11.2403 -5.2706,1.0218 -39.0011,10.2186 -44.2711,9.1967 -5.2706,-1.0219 -9.4869,-5.1091 -13.7036,-4.0875 -4.2159,1.0218 -23.1895,5.1094 -23.1895,5.1094 -11.6363,2.5924 -21.7873,-5.1527 -20.0276,-3.0657 3.8333,4.5461 -49.3104,17.4789 -54.8123,17.8825 -5.2703,1.0217 -50.5959,-38.8307 -47.4337,-41.8962 3.1626,-3.0656 -47.4336,42.4075 -54.8123,43.9401 -7.3784,1.5326 -29.5142,-3.0655 -31.6222,-1.5326 -2.1084,1.5326 -8.4329,9.7075 -14.7573,10.2184 -6.3245,0.5108 -21.0816,2.5546 -21.0816,2.5546 l 2.1081,3.0658 c 0,0 -44.2714,-8.1751 -49.5417,-11.2407 -5.2703,-3.0655 3.1622,13.2842 6.3244,17.3717 -18.9732,-4.0875 -74.8397,-12.7733 -79.0557,-15.328 -4.2168,-2.5546 7.3783,9.197 13.7028,12.7733 -8.4327,-1.5328 -15.8114,-2.0437 -15.8114,-2.0437 l 24.244,12.2624 -7.3787,1.022 c 0,0 15.8112,5.6202 15.8112,8.1749 0,2.5545 -41.1091,5.6201 -41.1091,5.6201 0,0 16.8654,4.5983 12.649,7.153 -4.2164,2.5546 -14.7571,4.0874 -14.7571,4.0874 l -2.1082,6.6422 z"
       id="path5888"
       inkscape:connector-curvature="0"
       sodipodi:nodetypes="cccsccscccccccccccscscsccsscsccccccscsssscccccscsccsccccsccccccsccccc" />
    <flowRoot
       xml:space="preserve"
       id="flowRoot2987-4-9-3-7-8-6-6-6-0-7-2-6"
       style="font-size:12px;font-style:normal;font-variant:normal;font-weight:normal;font-stretch:normal;text-align:center;line-height:125%;letter-spacing:0px;word-spacing:0px;text-anchor:middle;fill:#000000;fill-opacity:1;stroke:none;display:inline;font-family:Lavi;-inkscape-font-specification:Lavi"
       transform="translate(1272.6827,1794.4777)"><flowRegion
         id="flowRegion2989-5-4-5-5-1-2-4-2-0-8-9-7"><rect
           id="rect2991-7-9-6-9-5-7-2-1-3-2-1-0"
           width="700.96881"
           height="256.90118"
           x="120.55251"
           y="265.53046"
           style="font-style:normal;font-variant:normal;font-weight:normal;font-stretch:normal;text-align:center;text-anchor:middle;font-family:Lavi;-inkscape-font-specification:Lavi" /></flowRegion><flowPara
         style="font-size:45px;text-align:center;text-anchor:middle"
         id="flowPara3597">Aku akan menunjukkan pada orang tua itu siapa penyihir Chaosah sesungguhnya!</flowPara></flowRoot>    <path
       style="color:#000000;fill:#ffffff;fill-opacity:1;fill-rule:nonzero;stroke:none;stroke-width:1px;marker:none;visibility:visible;display:inline;overflow:visible;enable-background:accumulate"
       d="m 1476.1891,2360.3093 c 58.7023,-40.2328 74.2517,-66.7852 83.6395,-84.5531 -18.192,-19.5453 -34.2979,-26.4643 -42.5827,-40.8563 31.517,-4.8173 59.7042,-4.3629 69.2765,1.3288 22.6858,-33.1454 -24.8003,-30.4847 -24.8003,-30.4847 0,0 -49.2813,4.066 -77.5084,12.5569 5.4898,31.6668 40.314,52.0029 45.4103,58.94 -10.9648,48.502 -45.6639,73.3026 -53.4349,83.0684 z"
       id="path5162"
       inkscape:connector-curvature="0"
       sodipodi:nodetypes="cccccccc" />
    <flowRoot
       xml:space="preserve"
       id="flowRoot2987-7-9-9-7-0-3-5-2-6"
       style="font-size:12px;font-style:normal;font-variant:normal;font-weight:normal;font-stretch:normal;line-height:125%;letter-spacing:0px;word-spacing:0px;fill:#000000;fill-opacity:1;stroke:#000000;stroke-width:0.99236238;stroke-miterlimit:4;stroke-opacity:1;stroke-dasharray:none;filter:url(#filter4375-4-1-7-3-7);font-family:Lavi;-inkscape-font-specification:Lavi"
       transform="matrix(0.69413547,-0.3960575,-0.18345695,1.6511803,1948.8802,2819.5754)"
       inkscape:transform-center-x="192.72092"
       inkscape:transform-center-y="-136.44814"><flowRegion
         id="flowRegion2989-4-5-8-7-41-7-68-63-1"
         style="stroke-width:5.40286207"><rect
           id="rect2991-45-1-3-3-8-0-3-6-32"
           width="319.66232"
           height="56.089447"
           x="120.55251"
           y="265.53046"
           style="font-style:normal;font-variant:normal;font-weight:normal;font-stretch:normal;fill:#000000;fill-opacity:1;stroke:#000000;stroke-width:0.99236238;stroke-miterlimit:4;stroke-opacity:1;stroke-dasharray:none;font-family:Lavi;-inkscape-font-specification:Lavi" /></flowRegion><flowPara
         id="flowPara2995-4-1-5-0-7-2-5-3-0"
         style="font-size:48px;font-weight:normal;letter-spacing:7.06853437px;fill:#ffffff;fill-opacity:1;stroke:#ffffff;stroke-width:0.99236238;stroke-linejoin:miter;stroke-miterlimit:4;stroke-opacity:1;stroke-dasharray:none;-inkscape-font-specification:Lavi">Tap</flowPara></flowRoot>    <flowRoot
       xml:space="preserve"
       id="flowRoot2987-7-9-9-7-0-3-5-2-6-5"
       style="font-size:12px;font-style:normal;font-variant:normal;font-weight:normal;font-stretch:normal;line-height:125%;letter-spacing:0px;word-spacing:0px;fill:#000000;fill-opacity:1;stroke:#000000;stroke-width:0.99236238;stroke-miterlimit:4;stroke-opacity:1;stroke-dasharray:none;filter:url(#filter4375-4-1-7-3-7-6);font-family:Lavi;-inkscape-font-specification:Lavi"
       transform="matrix(0.74738538,-0.36226504,-0.23031168,1.5278671,2226.8064,2821.3226)"
       inkscape:transform-center-x="202.28223"
       inkscape:transform-center-y="-127.60543"><flowRegion
         id="flowRegion2989-4-5-8-7-41-7-68-63-1-5"
         style="stroke-width:5.40286207"><rect
           id="rect2991-45-1-3-3-8-0-3-6-32-1"
           width="319.66232"
           height="56.089447"
           x="120.55251"
           y="265.53046"
           style="font-style:normal;font-variant:normal;font-weight:normal;font-stretch:normal;fill:#000000;fill-opacity:1;stroke:#000000;stroke-width:0.99236238;stroke-miterlimit:4;stroke-opacity:1;stroke-dasharray:none;font-family:Lavi;-inkscape-font-specification:Lavi" /></flowRegion><flowPara
         id="flowPara2995-4-1-5-0-7-2-5-3-0-4"
         style="font-size:48px;font-weight:normal;letter-spacing:7.06853437px;fill:#ffffff;fill-opacity:1;stroke:#ffffff;stroke-width:0.99236238;stroke-linejoin:miter;stroke-miterlimit:4;stroke-opacity:1;stroke-dasharray:none;-inkscape-font-specification:Lavi">Tap</flowPara></flowRoot>  </g>
</svg>
