<?xml version="1.0" encoding="UTF-8" standalone="no"?>
<!-- Created with Inkscape (http://www.inkscape.org/) -->

<svg
   xmlns:dc="http://purl.org/dc/elements/1.1/"
   xmlns:cc="http://creativecommons.org/ns#"
   xmlns:rdf="http://www.w3.org/1999/02/22-rdf-syntax-ns#"
   xmlns:svg="http://www.w3.org/2000/svg"
   xmlns="http://www.w3.org/2000/svg"
   xmlns:xlink="http://www.w3.org/1999/xlink"
   xmlns:sodipodi="http://sodipodi.sourceforge.net/DTD/sodipodi-0.dtd"
   xmlns:inkscape="http://www.inkscape.org/namespaces/inkscape"
   id="svg2"
   version="1.1"
   inkscape:version="0.92.1 r15371"
   width="2646.3999"
   height="3736.5334"
   sodipodi:docname="Pepper-and-Carrot_by-David-Revoy_E12P04.svg">
  <metadata
     id="metadata8">
    <rdf:RDF>
      <cc:Work
         rdf:about="">
        <dc:format>image/svg+xml</dc:format>
        <dc:type
           rdf:resource="http://purl.org/dc/dcmitype/StillImage" />
        <dc:title />
      </cc:Work>
    </rdf:RDF>
  </metadata>
  <defs
     id="defs6">
    <linearGradient
       id="linearGradient4240"
       inkscape:collect="always">
      <stop
         id="stop4282"
         offset="0"
         style="stop-color:#507e72;stop-opacity:1;" />
      <stop
         id="stop4284"
         offset="1"
         style="stop-color:#507e72;stop-opacity:0;" />
    </linearGradient>
    <filter
       style="color-interpolation-filters:sRGB"
       id="filter3018"
       inkscape:label="Lapping"
       inkscape:menu="Distort"
       inkscape:menu-tooltip="Something like a water noise"
       height="1.3"
       y="-0.15000001"
       width="1.3"
       x="-0.15000001">
      <feTurbulence
         id="feTurbulence3020"
         numOctaves="5"
         seed="0"
         type="fractalNoise"
         baseFrequency="0.045999999999999999"
         result="result1" />
      <feGaussianBlur
         id="feGaussianBlur3022"
         stdDeviation="2"
         result="result2" />
      <feDisplacementMap
         id="feDisplacementMap3024"
         in2="result2"
         scale="50"
         yChannelSelector="B"
         xChannelSelector="R"
         in="SourceGraphic" />
    </filter>
    <filter
       style="color-interpolation-filters:sRGB"
       id="filter4375-4-1-1-15-1-3-3"
       inkscape:label="deevad outline effect">
      <feFlood
         id="feFlood4377-7-9-0-4-4-4-7"
         flood-opacity="1"
         flood-color="rgb(255,255,255)"
         result="flood" />
      <feComposite
         id="feComposite4379-3-8-8-6-0-7-4"
         in2="SourceGraphic"
         in="flood"
         operator="in"
         result="composite1" />
      <feMorphology
         id="feMorphology4393-1-0-49-8-2-7-3"
         operator="dilate"
         radius="0.69999999999999996"
         result="result3" />
      <feComposite
         id="feComposite4385-9-5-7-2-1-2-9"
         in2="result3"
         in="SourceGraphic"
         operator="over"
         result="composite2" />
    </filter>
    <filter
       style="color-interpolation-filters:sRGB"
       id="filter5376"
       inkscape:label="deevad outline effect">
      <feFlood
         id="feFlood5378"
         flood-opacity="1"
         flood-color="rgb(0,0,0)"
         result="flood" />
      <feComposite
         id="feComposite5380"
         in2="SourceGraphic"
         in="flood"
         operator="in"
         result="composite1" />
      <feMorphology
         id="feMorphology5382"
         operator="dilate"
         radius="0.69999999999999996"
         result="result3" />
      <feComposite
         id="feComposite5384"
         in2="result3"
         in="SourceGraphic"
         operator="over"
         result="composite2" />
    </filter>
    <filter
       style="color-interpolation-filters:sRGB"
       id="filter5386"
       inkscape:label="deevad outline effect">
      <feFlood
         id="feFlood5388"
         flood-opacity="1"
         flood-color="rgb(0,0,0)"
         result="flood" />
      <feComposite
         id="feComposite5390"
         in2="SourceGraphic"
         in="flood"
         operator="in"
         result="composite1" />
      <feMorphology
         id="feMorphology5392"
         operator="dilate"
         radius="0.69999999999999996"
         result="result3" />
      <feComposite
         id="feComposite5394"
         in2="result3"
         in="SourceGraphic"
         operator="over"
         result="composite2" />
    </filter>
    <linearGradient
       inkscape:collect="always"
       xlink:href="#linearGradient4240"
       id="linearGradient4248"
       x1="1115.3353"
       y1="1088.5996"
       x2="1246.5587"
       y2="1088.5996"
       gradientUnits="userSpaceOnUse"
       gradientTransform="translate(0.52409995,-2.5629152)" />
    <linearGradient
       inkscape:collect="always"
       xlink:href="#linearGradient4240"
       id="linearGradient4254"
       gradientUnits="userSpaceOnUse"
       x1="1115.3353"
       y1="1088.5996"
       x2="1246.5587"
       y2="1088.5996"
       gradientTransform="matrix(1.4164924,-0.04901344,0.33845454,0.7390016,-821.42788,346.76559)" />
  </defs>
  <sodipodi:namedview
     pagecolor="#ffffff"
     bordercolor="#666666"
     borderopacity="1"
     objecttolerance="10"
     gridtolerance="10"
     guidetolerance="10"
     inkscape:pageopacity="0"
     inkscape:pageshadow="2"
     inkscape:window-width="1305"
     inkscape:window-height="744"
     id="namedview4"
     showgrid="false"
     inkscape:zoom="0.32398347"
     inkscape:cx="1419.9828"
     inkscape:cy="705.98496"
     inkscape:window-x="61"
     inkscape:window-y="24"
     inkscape:window-maximized="1"
     inkscape:current-layer="layer1" />
  <g
     inkscape:groupmode="layer"
     id="layer2"
     inkscape:label="artwork"
     sodipodi:insensitive="true">
    <image
       sodipodi:absref="/home/emmiline/Documents/git/peppercarrot/peppercarrot_ep12_translation/da/../gfx_Pepper-and-Carrot_by-David-Revoy_E12P04.png"
       xlink:href="../gfx_Pepper-and-Carrot_by-David-Revoy_E12P04.png"
       width="2646.3999"
       height="3736.5334"
       id="image10"
       x="0"
       y="0" />
  </g>
  <g
     inkscape:groupmode="layer"
     id="layer3"
     inkscape:label="speechbubbles" />
  <g
     inkscape:groupmode="layer"
     id="layer1"
     inkscape:label="txt">
    <path
       style="fill:#ffffff;stroke:none;stroke-width:1.06666672"
       d="m 737.3511,3357.2128 c -35.78167,-30.4559 -82.35832,-4.7911 -90.66707,-19.9014 -8.30877,-15.1102 -14.14854,-29.7723 -25.10974,-32.6122 -10.96118,-2.8398 -25.92336,-0.03 -36.77046,3.5268 -10.84723,3.5568 -16.95833,-5.1613 -24.66678,-14.2116 -7.70857,-9.0505 -59.59204,-46.1399 -59.59204,-46.1399 0,0 11.90896,46.7932 20.17969,59.7713 8.27073,12.978 11.22729,17.7653 15.97919,22.0283 4.75201,4.2632 18.03415,13.0502 30.07915,12.2612 12.04498,-0.7891 23.00348,-7.3011 31.98052,-9.9221 8.97697,-2.6211 22.30521,3.4538 31.09882,13.5513 8.7936,10.0976 17.05565,28.0141 57.45004,10.8743 18.02539,-7.6483 50.03868,0.774 50.03868,0.774 z"
       id="path3023"
       inkscape:connector-curvature="0"
       sodipodi:nodetypes="csssscssssssc" />
    <path
       style="color:#000000;display:inline;overflow:visible;visibility:visible;fill:#ffffff;fill-opacity:1;fill-rule:nonzero;stroke:none;stroke-width:1.06666672px;marker:none;enable-background:accumulate"
       d="m 1854.9851,3174.9427 c 55.6556,-11.117 67.9408,28.1632 75.4471,38.2998 7.5063,10.1363 34.3633,47.0272 79.1021,35.1314 44.7389,-11.8956 82.7074,23.0447 82.7074,23.0447 l -66.5232,19.2569 c 0,0 -53.6592,-7.2567 -76.2259,-27.3827 -22.5667,-20.1261 -39.5793,-60.4293 -52.7388,-68.2258 -13.1596,-7.7967 -23.9314,-20.2235 -41.7687,-20.1243 z"
       id="path4018-2"
       inkscape:connector-curvature="0" />
    <path
       style="color:#000000;display:inline;overflow:visible;visibility:visible;fill:#0f0f0f;fill-opacity:1;fill-rule:nonzero;stroke:none;stroke-width:1px;marker:none;filter:url(#filter3018);enable-background:accumulate"
       d="m 168.28312,242.56886 c 0,-59.7361 29.8086,-90.5375 118.2404,-96.1379 88.4319,-5.6002 342.7586,-13.9748 381.5097,5.6261 38.751,19.601 38.7901,48.5099 40.7774,87.7117 1.9872,39.2018 -86.4447,99.8714 -174.8765,97.0713 -88.4319,-2.8002 -223.7312,5.5744 -271.4248,-8.4263 -47.6936,-14.0007 -90.2517,-38.2427 -94.2262,-85.8449 z"
       id="path3986"
       inkscape:connector-curvature="0"
       sodipodi:nodetypes="csssssc"
       transform="matrix(0.8076849,0,0,0.81149447,1957.0003,13.480526)" />
    <path
       style="fill:#0a0a0a;fill-opacity:1;stroke:none;stroke-width:1.06666672"
       d="m 1998.1826,253.15372 c 13.7354,-22.18479 23.3156,-35.93223 32.9061,-36.71518 9.5903,-0.78298 20.8323,-2.61815 28.0399,6.68688 7.2075,9.30504 21.7327,17.65372 27.7793,13.56984 6.0466,-4.08406 27.9902,-19.91789 34.9682,-41.27181 6.9779,-21.35398 24.6259,19.05306 24.6259,19.05306 0,0 -20.5727,33.95308 -25.468,38.46167 -4.8952,4.50872 -17.6893,22.38805 -39.7727,9.59008 -22.0832,-12.79823 -33.0447,-30.13457 -44.4668,-32.35354 -11.4222,-2.21911 -29.1813,5.85297 -38.6119,22.979 z"
       id="path3137"
       inkscape:connector-curvature="0" />
    <flowRoot
       xml:space="preserve"
       id="flowRoot4133-6-9-4-8-5-3"
       style="color:#000000;font-style:normal;font-variant:normal;font-weight:normal;font-stretch:normal;line-height:0.01%;font-family:Arial;-inkscape-font-specification:Arial;letter-spacing:0.00204969px;word-spacing:0px;display:inline;overflow:visible;visibility:visible;fill:#000000;fill-opacity:1;fill-rule:nonzero;stroke:none;stroke-width:0.10959909;stroke-linecap:butt;stroke-linejoin:miter;stroke-miterlimit:4;stroke-dasharray:none;stroke-dashoffset:0;stroke-opacity:1;marker:none;filter:url(#filter4375-4-1-1-15-1-3-3);enable-background:accumulate"
       transform="matrix(6.5616818,-2.3346103,-6.8173534,24.114322,583.91199,-22633.801)"><flowRegion
         id="flowRegion4135-2-9-3-5-2-6"
         style="fill:url(#linearGradient4254);fill-opacity:1;stroke-width:0.86646658"><rect
           id="rect4137-1-7-1-2-1-4"
           width="200.00224"
           height="39.051064"
           x="1125.3193"
           y="1078.5308"
           style="color:#000000;letter-spacing:0.00204969px;display:inline;overflow:visible;visibility:visible;fill:#000000;fill-opacity:1;fill-rule:nonzero;stroke:none;stroke-width:0.10959909;stroke-linecap:butt;stroke-linejoin:miter;stroke-miterlimit:4;stroke-dasharray:none;stroke-dashoffset:0;stroke-opacity:1;marker:none;enable-background:accumulate" /></flowRegion><flowPara
         id="flowPara4139-2-8-6-8-6-3"
         style="color:#000000;font-style:normal;font-variant:normal;font-weight:normal;font-stretch:normal;font-size:17.85409164px;line-height:125%;font-family:Lavi;-inkscape-font-specification:Lavi;letter-spacing:0.00204969px;word-spacing:0.00204969px;display:inline;overflow:visible;visibility:visible;fill:#000000;fill-opacity:1;fill-rule:nonzero;stroke:none;stroke-width:0.10959909;stroke-linecap:butt;stroke-linejoin:miter;stroke-miterlimit:4;stroke-dasharray:none;stroke-dashoffset:0;stroke-opacity:1;marker:none;enable-background:accumulate">VRO<flowSpan
   style="font-size:15.68638802px;fill:#000000;fill-opacity:1"
   id="flowSpan4250">O</flowSpan>oo<flowSpan
   style="font-size:15.71809769px;fill:#000000;fill-opacity:1;stroke:none;stroke-width:0.10959909;stroke-miterlimit:4;stroke-dasharray:none"
   id="flowSpan3145">oo</flowSpan><flowSpan
   style="font-size:10.73411274px;fill:#000000;fill-opacity:1;stroke:none;stroke-width:0.10959909;stroke-miterlimit:4;stroke-dasharray:none"
   id="flowSpan3137">oo</flowSpan><flowSpan
   style="font-size:7.88612223px;fill:#000000;fill-opacity:1;stroke:none;stroke-width:0.10959909;stroke-miterlimit:4;stroke-dasharray:none"
   id="flowSpan3133">oo</flowSpan><flowSpan
   style="font-size:6.46212626px;fill:#000000;fill-opacity:1;stroke:none;stroke-width:0.10959909;stroke-miterlimit:4;stroke-dasharray:none"
   id="flowSpan3127">oo</flowSpan></flowPara></flowRoot>    <path
       style="color:#000000;display:inline;overflow:visible;visibility:visible;fill:#ffffff;fill-opacity:1;fill-rule:nonzero;stroke:none;stroke-width:1.06666672px;marker:none;enable-background:accumulate"
       d="m 1050.6599,2523.0116 c 3.631,-40.636 34.5989,-75.5096 71.1125,-83.265 36.5136,-7.756 341.8701,-5.7096 365.5666,3.4749 23.6964,9.1844 59.547,15.5081 53.8721,85.1529 -5.6752,69.6449 -48.5973,85.8705 -92.3434,88.8901 -43.746,3.0194 -303.9147,21.0641 -343.2092,-15.7509 -39.2943,-36.8151 -53.7048,-33.0575 -54.9986,-78.502 z"
       id="path4010"
       inkscape:connector-curvature="0" />
    <path
       style="color:#000000;display:inline;overflow:visible;visibility:visible;fill:#ffffff;fill-opacity:1;fill-rule:nonzero;stroke:none;stroke-width:1.06666672px;marker:none;enable-background:accumulate"
       d="m 1373.2324,2578.9719 c -0.8143,39.8536 13.9132,95.0403 28.1325,104.1972 27.0852,-11.8038 71.9428,-41.2366 75.0688,-36.9813 3.1259,4.2555 19.2912,92.3693 26.6868,93.9683 7.3956,1.5988 33.0156,-2.4576 41.7096,-8.3835 -26.98,14.203 -48.3601,22.8551 -58.3246,17.1708 -6.9316,-3.4376 -18.9169,-72.451 -19.5055,-77.2517 -21.2871,10.6609 -62.8703,37.5666 -71.9983,38.079 -9.4971,-7.5284 -70.7695,-82.4345 -86.8958,-114.0301 -27.6679,-54.2085 65.1265,-16.7687 65.1265,-16.7687 z"
       id="path5901"
       inkscape:connector-curvature="0"
       sodipodi:nodetypes="ccccccccsc" />
    <flowRoot
       xml:space="preserve"
       id="flowRoot2987-4-9-3-1"
       style="font-style:normal;font-variant:normal;font-weight:normal;font-stretch:normal;font-size:12.80000019px;line-height:0.01%;font-family:Lavi;-inkscape-font-specification:Lavi;text-align:center;letter-spacing:0px;word-spacing:0px;text-anchor:middle;fill:#000000;fill-opacity:1;stroke:#000000;stroke-width:0.74666667;stroke-miterlimit:4;stroke-dasharray:none;stroke-opacity:1"><flowRegion
         id="flowRegion2989-5-4-5-6"
         style="stroke-width:0.74666667"><rect
           id="rect2991-7-9-6-4"
           width="642.56183"
           height="331.45596"
           x="970.31219"
           y="2469.7915"
           style="font-style:normal;font-variant:normal;font-weight:normal;font-stretch:normal;font-family:Lavi;-inkscape-font-specification:Lavi;text-align:center;text-anchor:middle;stroke:#000000;stroke-width:0.79644448;stroke-miterlimit:4;stroke-dasharray:none;stroke-opacity:1" /></flowRegion><flowPara
         style="font-size:48px;line-height:1.25;text-align:center;text-anchor:middle;stroke:#000000;stroke-width:0.74666667;stroke-miterlimit:4;stroke-dasharray:none;stroke-opacity:1"
         id="flowPara99">... Et kaosiansk</flowPara><flowPara
         style="font-size:48px;line-height:1.25;text-align:center;text-anchor:middle;stroke:#000000;stroke-width:0.74666667;stroke-miterlimit:4;stroke-dasharray:none;stroke-opacity:1"
         id="flowPara128">sort hul?! ...</flowPara></flowRoot>    <path
       style="color:#000000;display:inline;overflow:visible;visibility:visible;fill:#ffffff;fill-opacity:1;fill-rule:nonzero;stroke:none;stroke-width:1.06666672px;marker:none;enable-background:accumulate"
       d="m 1142.3808,2739.8228 c 9.3479,5.5631 151.2298,92.3425 65.4727,65.1137 38.8229,37.9643 17.6866,63.2194 -0.042,89.1968 12.0843,9.4663 32.5609,13.5997 23.3508,36.5975 13.9304,-1.2288 21.6097,8.2202 23.7114,27.197 12.4757,-22.8062 21.5864,-25.914 22.2889,20.2007 7.1243,-33.8814 14.7403,-65.3446 37.8487,-20.6258 3.0412,-12.4046 -16.9042,-46.1234 54.9126,-20.5301 -19.8448,-25.2896 -28.7561,-50.3272 26.4153,-71.2603 -18.0615,-11.9631 -28.9218,-27.296 2.6319,-48.5226 -18.5424,-8.5335 -14.5039,-39.5215 -8.4497,-50.2044 -26.0601,19.346 -39.4975,16.4183 -35.9102,-14.8687 -48.9589,45.6881 -35.2112,4.2056 -43.6634,-5.7393 -21.0811,38.6149 -34.6023,17.713 -50.0911,7.7999 7.0711,54.8133 -96.6338,-12.9375 -118.4762,-14.3544 z"
       id="path3549-3"
       inkscape:connector-curvature="0"
       sodipodi:nodetypes="ccccccccccccccc" />
    <flowRoot
       transform="matrix(1.445864,-0.30808911,-0.35226893,2.3014564,653.65485,2336.2804)"
       style="font-style:normal;font-variant:normal;font-weight:normal;font-stretch:normal;line-height:0.01%;font-family:Lavi;-inkscape-font-specification:Lavi;text-align:center;letter-spacing:0px;word-spacing:0px;text-anchor:middle;fill:#000000;fill-opacity:1;stroke:#000000;stroke-width:1.42624533;stroke-miterlimit:4;stroke-dasharray:none;stroke-opacity:1"
       id="flowRoot4212-3-7-8-6"
       xml:space="preserve"><flowRegion
         id="flowRegion4214-6-7-8-3"
         style="stroke-width:1.42624533"><rect
           style="font-style:normal;font-variant:normal;font-weight:normal;font-stretch:normal;font-family:Lavi;-inkscape-font-specification:Lavi;text-align:center;text-anchor:middle;stroke:#000000;stroke-width:1.42624533;stroke-miterlimit:4;stroke-dasharray:none;stroke-opacity:1"
           y="265.53046"
           x="120.55251"
           height="355.03918"
           width="798.1947"
           id="rect4216-4-0-26-5" /></flowRegion><flowPara
         style="font-size:48px;line-height:1.25;text-align:center;letter-spacing:5.20896292px;text-anchor:middle;stroke:#000000;stroke-width:1.42624533;stroke-miterlimit:4;stroke-dasharray:none;stroke-opacity:1"
         id="flowPara4358-7-1">?!</flowPara></flowRoot>    <path
       style="color:#000000;display:inline;overflow:visible;visibility:visible;fill:#ffffff;fill-opacity:1;fill-rule:nonzero;stroke:none;stroke-width:0.97990382px;marker:none;enable-background:accumulate"
       d="m 2051.3575,2680.1934 c 78.9955,-58.2214 449.0806,-27.015 490.1682,26.7888 41.0873,53.8035 65.245,178.0193 -5.1485,211.0128 -70.3935,32.9934 -475.8126,8.3054 -511.6388,-54.5848 -35.8263,-62.8904 -52.3765,-124.9956 26.6191,-183.2168 z"
       id="path4008-8"
       inkscape:connector-curvature="0"
       sodipodi:nodetypes="zsssz"
       inkscape:transform-center-x="-498.73376"
       inkscape:transform-center-y="-125.07198" />
    <path
       style="color:#000000;display:inline;overflow:visible;visibility:visible;fill:#ffffff;fill-opacity:1;fill-rule:nonzero;stroke:none;stroke-width:1.06666672px;marker:none;enable-background:accumulate"
       d="m 1901.5147,2788.7711 c 28.0542,-49.3366 72.7958,-50.4249 85.3718,-49.4575 12.576,0.9674 51.0297,22.3707 71.3448,-19.2269 20.3152,-41.5976 71.5866,-47.4019 71.5866,-47.4019 l -29.0216,62.8801 c 0,0 -40.6302,35.7933 -70.6192,39.6628 -29.989,3.8696 -71.5866,-9.6739 -86.0974,-4.8369 -14.5108,4.8369 -30.9564,4.8369 -42.565,18.3803 z"
       id="path4018"
       inkscape:connector-curvature="0"
       sodipodi:nodetypes="cssccssc" />
    <flowRoot
       xml:space="preserve"
       id="flowRoot2987-4-9-3-1-0"
       style="font-style:normal;font-variant:normal;font-weight:normal;font-stretch:normal;font-size:12.80000019px;line-height:0.01%;font-family:Lavi;-inkscape-font-specification:Lavi;text-align:center;letter-spacing:0px;word-spacing:0px;text-anchor:middle;fill:#000000;fill-opacity:1;stroke:none;stroke-width:0.74666667;stroke-miterlimit:4;stroke-dasharray:none;stroke-opacity:1"
       transform="translate(0,8)"><flowRegion
         id="flowRegion2989-5-4-5-6-5"
         style="stroke-width:0.74666667"><rect
           id="rect2991-7-9-6-4-5"
           width="642.56183"
           height="331.45596"
           x="1959.3444"
           y="2692.3413"
           style="font-style:normal;font-variant:normal;font-weight:normal;font-stretch:normal;font-family:Lavi;-inkscape-font-specification:Lavi;text-align:center;text-anchor:middle;stroke:none;stroke-width:0.79644448;stroke-miterlimit:4;stroke-dasharray:none;stroke-opacity:1" /></flowRegion><flowPara
         style="font-size:48px;line-height:1.25;text-align:center;text-anchor:middle;stroke:none;stroke-width:0.74666667;stroke-miterlimit:4;stroke-dasharray:none;stroke-opacity:1"
         id="flowPara111">... Er det virkelig hvad</flowPara><flowPara
         style="font-size:48px;line-height:1.25;text-align:center;text-anchor:middle;stroke:none;stroke-width:0.74666667;stroke-miterlimit:4;stroke-dasharray:none;stroke-opacity:1"
         id="flowPara115">du forstår ved:</flowPara><flowPara
         style="font-size:48px;line-height:1.25;text-align:center;text-anchor:middle;stroke:none;stroke-width:0.74666667;stroke-miterlimit:4;stroke-dasharray:none;stroke-opacity:1"
         id="flowPara107">&quot;Brug ikke magi&quot;?...</flowPara></flowRoot>    <path
       style="fill:#ffffff;fill-opacity:1;stroke:none;stroke-width:0.93408269"
       d="m 94.376048,3236.5075 c -7.285962,-91.5688 69.945192,-121.7448 272.494802,-117.5826 202.54961,4.1622 250.6369,57.2305 265.20882,89.4875 14.57193,32.2573 -15.27837,116.3331 -142.80471,147.7588 -154.95187,38.1841 -433.513632,-40.7953 -412.047195,-44.6289 57.743295,-10.3125 18.605455,-51.1022 17.148283,-75.0348 z"
       id="path3238"
       inkscape:connector-curvature="0"
       sodipodi:nodetypes="cssssc" />
    <flowRoot
       xml:space="preserve"
       id="flowRoot2987-4-9-3-1-0-2"
       style="font-style:normal;font-variant:normal;font-weight:normal;font-stretch:normal;font-size:12.80000019px;line-height:0.01%;font-family:Lavi;-inkscape-font-specification:Lavi;text-align:center;letter-spacing:0px;word-spacing:0px;text-anchor:middle;fill:#000000;fill-opacity:1;stroke:none;stroke-width:0.74666667;stroke-miterlimit:4;stroke-dasharray:none;stroke-opacity:1"
       transform="translate(0,38)"><flowRegion
         id="flowRegion2989-5-4-5-6-5-0"
         style="stroke-width:0.74666667"><rect
           id="rect2991-7-9-6-4-5-0"
           width="642.56183"
           height="331.45596"
           x="45.82864"
           y="3135.9414"
           style="font-style:normal;font-variant:normal;font-weight:normal;font-stretch:normal;font-family:Lavi;-inkscape-font-specification:Lavi;text-align:center;text-anchor:middle;stroke:none;stroke-width:0.79644448;stroke-miterlimit:4;stroke-dasharray:none;stroke-opacity:1" /></flowRegion><flowPara
         style="font-size:48px;line-height:1.25;text-align:center;text-anchor:middle;stroke:none;stroke-width:0.74666667;stroke-miterlimit:4;stroke-dasharray:none;stroke-opacity:1"
         id="flowPara171">… Øh… Skulle du</flowPara><flowPara
         style="font-size:48px;line-height:1.25;text-align:center;text-anchor:middle;stroke:none;stroke-width:0.74666667;stroke-miterlimit:4;stroke-dasharray:none;stroke-opacity:1"
         id="flowPara112">ikke på marked? </flowPara></flowRoot>    <path
       style="color:#000000;display:inline;overflow:visible;visibility:visible;fill:#ffffff;fill-opacity:1;fill-rule:nonzero;stroke:none;stroke-width:1.06666672px;marker:none;enable-background:accumulate"
       d="m 2547.3805,3356.4577 c -43.7958,-16.6962 -88.4665,-33.2301 -9.443,-72.7196 -74.5729,9.2906 -28.6827,-12.5214 -10.193,-27.2586 -133.3698,27.563 -46.8151,-19.0528 -13.7269,-47.6349 -29.7987,11.1169 -77.5223,43.036 -58.9866,-1.9407 -9.4476,1.9265 -20.6221,7.7058 -25.1327,-1.3821 -12.0965,6.0247 -21.0336,7.4754 -26.1797,3.4381 -11.9748,11.1295 -19.6407,13.9854 -19.3771,1.6154 -11.2984,9.1449 -14.6776,5.8776 -17.4424,1.6473 -19.4571,19.7131 -26.5072,13.9451 -34.0136,9.1139 -11.0276,11.8469 -23.6555,8.9142 -37.627,-6.4258 -14.8877,20.2122 -30.5021,18.7099 -46.524,5.0376 -4.854,4.9596 -9.3275,13.4306 -15.5718,5.5482 -6.4928,2.5839 -13.0549,9.3711 -19.393,2.5828 -68.496,25.3524 -97.8131,2.4989 -129.3569,-17.6144 -17.911,8.3546 -30.9909,24.8581 -61.1604,12.5362 -3.0376,12.024 -19.3996,16.6565 -47.6508,14.6942 28.7617,15.0459 30.1169,23.3638 -37.0111,14.8696 46.6766,12.7028 89.676,25.3449 16.8203,36.0757 16.9393,5.0168 72.7462,-5.2067 10.7773,50.4888 43.5462,-11.7997 82.9442,-14.4021 94.2164,36.3849 23.6006,-12.9179 49.5972,-19.0812 69.4669,11.7887 18.7924,-14.0004 44.6994,-10.1373 58.0991,-2.9115 3.9152,-15.6084 31.9254,-39.1831 68.6112,5.002 -7.7982,-24.8986 -0.9358,-64.2385 41.576,1.6533 1.0515,-11.3227 -15.8804,-73.2729 104.4476,2.6908 -14.3436,-49.8703 25.5369,-20.3319 57.1319,-2.9276 -15.2925,-31.3713 8.5342,-33.3847 60.225,-14.4867 -39.6182,-30.2015 1.4851,-21.3653 27.4183,-19.8656 z"
       id="path3549"
       inkscape:connector-curvature="0"
       sodipodi:nodetypes="ccccccccccccccccccccccccccccc" />
    <path
       style="color:#000000;display:inline;overflow:visible;visibility:visible;fill:#ffffff;fill-opacity:1;fill-rule:nonzero;stroke:none;stroke-width:1.00594759px;marker:none;enable-background:accumulate"
       d="m 1976.0901,3523.6048 c -32.9422,-94.5884 21.0909,-131.7832 65.1067,-161.2464 62.8766,-42.0881 370.5052,-60.9838 430.7457,-23.5072 60.2409,37.4772 80.1026,64.2531 86.4287,100.3114 6.3262,36.0584 8.4743,132.282 -49.5546,163.1942 -58.0288,30.9126 -209.5274,43.3395 -299.8851,43.1775 -106.7765,-0.1918 -216.557,-36.3783 -232.8414,-121.9295 z"
       id="path3517"
       inkscape:connector-curvature="0"
       sodipodi:nodetypes="csssssc" />
    <flowRoot
       xml:space="preserve"
       id="flowRoot2987-4-9-3-1-0-2-0"
       style="font-style:normal;font-variant:normal;font-weight:normal;font-stretch:normal;font-size:12.80000019px;line-height:0.01%;font-family:Lavi;-inkscape-font-specification:Lavi;text-align:center;letter-spacing:0px;word-spacing:0px;text-anchor:middle;fill:#000000;fill-opacity:1;stroke:none;stroke-width:0.74666667;stroke-miterlimit:4;stroke-dasharray:none;stroke-opacity:1"><flowRegion
         id="flowRegion2989-5-4-5-6-5-0-7"
         style="stroke-width:0.74666667"><rect
           id="rect2991-7-9-6-4-5-0-3"
           width="642.56183"
           height="76.9226"
           x="1930.2875"
           y="3266.8164"
           style="font-style:normal;font-variant:normal;font-weight:normal;font-stretch:normal;font-family:Lavi;-inkscape-font-specification:Lavi;text-align:center;text-anchor:middle;stroke:none;stroke-width:0.79644448;stroke-miterlimit:4;stroke-dasharray:none;stroke-opacity:1" /></flowRegion><flowPara
         style="font-size:48px;line-height:1.25;text-align:center;text-anchor:middle;stroke:none;stroke-width:0.74666667;stroke-miterlimit:4;stroke-dasharray:none;stroke-opacity:1"
         id="flowPara4503">Selvfølgelig ikke! </flowPara></flowRoot>    <flowRoot
       xml:space="preserve"
       id="flowRoot2987-4-9-3-1-0-2-0-5"
       style="font-style:normal;font-variant:normal;font-weight:normal;font-stretch:normal;font-size:12.80000019px;line-height:0.01%;font-family:Lavi;-inkscape-font-specification:Lavi;text-align:center;letter-spacing:0px;word-spacing:0px;text-anchor:middle;fill:#000000;fill-opacity:1;stroke:none;stroke-width:0.74666667;stroke-miterlimit:4;stroke-dasharray:none;stroke-opacity:1"
       transform="translate(2.1825397,14)"><flowRegion
         id="flowRegion2989-5-4-5-6-5-0-7-2"
         style="stroke-width:0.74666667"><rect
           id="rect2991-7-9-6-4-5-0-3-2"
           width="670.16187"
           height="285.45593"
           x="1929.4215"
           y="3378.8618"
           style="font-style:normal;font-variant:normal;font-weight:normal;font-stretch:normal;font-family:Lavi;-inkscape-font-specification:Lavi;text-align:center;text-anchor:middle;stroke:none;stroke-width:0.79644448;stroke-miterlimit:4;stroke-dasharray:none;stroke-opacity:1" /></flowRegion><flowPara
         style="font-size:48px;line-height:1.25;text-align:center;text-anchor:middle;stroke:none;stroke-width:0.74666667;stroke-miterlimit:4;stroke-dasharray:none;stroke-opacity:1"
         id="flowPara175">Og det gjorde jeg ret i;</flowPara><flowPara
         style="font-size:48px;line-height:1.25;text-align:center;text-anchor:middle;stroke:none;stroke-width:0.74666667;stroke-miterlimit:4;stroke-dasharray:none;stroke-opacity:1"
         id="flowPara187">det er umuligt at</flowPara><flowPara
         style="font-size:48px;line-height:1.25;text-align:center;text-anchor:middle;stroke:none;stroke-width:0.74666667;stroke-miterlimit:4;stroke-dasharray:none;stroke-opacity:1"
         id="flowPara179">lade dig uden</flowPara><flowPara
         style="font-size:48px;line-height:1.25;text-align:center;text-anchor:middle;stroke:none;stroke-width:0.74666667;stroke-miterlimit:4;stroke-dasharray:none;stroke-opacity:1"
         id="flowPara124">opsyn!</flowPara><flowPara
         style="font-size:48px;line-height:1.25;text-align:center;text-anchor:middle;stroke:none;stroke-width:0.74666667;stroke-miterlimit:4;stroke-dasharray:none;stroke-opacity:1"
         id="flowPara161" /></flowRoot>    <flowRoot
       xml:space="preserve"
       id="flowRoot2987-4-9-3"
       style="font-style:normal;font-variant:normal;font-weight:normal;font-stretch:normal;line-height:0.01%;font-family:Lavi;-inkscape-font-specification:Lavi;text-align:center;letter-spacing:0px;word-spacing:0px;text-anchor:middle;fill:#000000;fill-opacity:1;stroke:none"
       transform="matrix(1.1733744,0,0,1.2648257,1817.4045,-173.83194)"><flowRegion
         id="flowRegion2989-5-4-5"><rect
           id="rect2991-7-9-6"
           width="602.40173"
           height="310.73996"
           x="120.55251"
           y="265.53046"
           style="font-style:normal;font-variant:normal;font-weight:normal;font-stretch:normal;font-family:Lavi;-inkscape-font-specification:Lavi;text-align:center;text-anchor:middle" /></flowRegion><flowPara
         style="font-style:normal;font-variant:normal;font-weight:normal;font-stretch:normal;font-size:48px;line-height:1.25;font-family:'Drukaatie burti';-inkscape-font-specification:'Drukaatie burti';text-align:center;text-anchor:middle;fill:#ffffff;fill-opacity:1"
         id="flowPara3071">GURGES ATER!</flowPara></flowRoot>    <flowRoot
       xml:space="preserve"
       id="flowRoot94"
       style="fill:black;fill-opacity:1;stroke:none;font-family:sans-serif;font-style:normal;font-weight:normal;font-size:40px;line-height:1.25;letter-spacing:0px;word-spacing:0px"><flowRegion
         id="flowRegion96"><rect
           id="rect98"
           width="88.22126"
           height="74.854401"
           x="2328.5066"
           y="2725.999" /></flowRegion><flowPara
         id="flowPara100" /></flowRoot>    <flowRoot
       xml:space="preserve"
       id="flowRoot140"
       style="fill:black;fill-opacity:1;stroke:none;font-family:sans-serif;font-style:normal;font-weight:normal;font-size:40px;line-height:1.25;letter-spacing:0px;word-spacing:0px"><flowRegion
         id="flowRegion142"><rect
           id="rect144"
           width="78.571426"
           height="115.67461"
           x="1743.8492"
           y="3494.2715" /></flowRegion><flowPara
         id="flowPara146" /></flowRoot>  </g>
</svg>
