<?xml version="1.0" encoding="UTF-8" standalone="no"?>
<!-- Created with Inkscape (http://www.inkscape.org/) -->

<svg
   xmlns:dc="http://purl.org/dc/elements/1.1/"
   xmlns:cc="http://creativecommons.org/ns#"
   xmlns:rdf="http://www.w3.org/1999/02/22-rdf-syntax-ns#"
   xmlns:svg="http://www.w3.org/2000/svg"
   xmlns="http://www.w3.org/2000/svg"
   xmlns:xlink="http://www.w3.org/1999/xlink"
   xmlns:sodipodi="http://sodipodi.sourceforge.net/DTD/sodipodi-0.dtd"
   xmlns:inkscape="http://www.inkscape.org/namespaces/inkscape"
   id="svg2"
   version="1.1"
   inkscape:version="0.92.1 r15371"
   width="2646.3999"
   height="3736.5334"
   sodipodi:docname="Pepper-and-Carrot_by-David-Revoy_E12P03.svg">
  <metadata
     id="metadata8">
    <rdf:RDF>
      <cc:Work
         rdf:about="">
        <dc:format>image/svg+xml</dc:format>
        <dc:type
           rdf:resource="http://purl.org/dc/dcmitype/StillImage" />
        <dc:title />
      </cc:Work>
    </rdf:RDF>
  </metadata>
  <defs
     id="defs6">
    <filter
       style="color-interpolation-filters:sRGB"
       id="filter4375-4-1-7-3-7"
       inkscape:label="deevad outline effect">
      <feFlood
         id="feFlood4377-7-9-2-4-1"
         flood-opacity="1"
         flood-color="rgb(60,100,48)"
         result="flood" />
      <feComposite
         id="feComposite4379-3-8-5-4-75"
         in2="SourceGraphic"
         in="flood"
         operator="in"
         result="composite1" />
      <feMorphology
         id="feMorphology4393-1-0-4-5-8"
         operator="dilate"
         radius="4"
         result="result3" />
      <feComposite
         id="feComposite4385-9-5-2-1-5"
         in2="result3"
         in="SourceGraphic"
         operator="over"
         result="composite2" />
    </filter>
    <filter
       style="color-interpolation-filters:sRGB"
       id="filter4375-4-1-7-3-7-6"
       inkscape:label="deevad outline effect">
      <feFlood
         id="feFlood4377-7-9-2-4-1-8"
         flood-opacity="1"
         flood-color="rgb(60,100,48)"
         result="flood" />
      <feComposite
         id="feComposite4379-3-8-5-4-75-5"
         in2="SourceGraphic"
         in="flood"
         operator="in"
         result="composite1" />
      <feMorphology
         id="feMorphology4393-1-0-4-5-8-4"
         operator="dilate"
         radius="4"
         result="result3" />
      <feComposite
         id="feComposite4385-9-5-2-1-5-1"
         in2="result3"
         in="SourceGraphic"
         operator="over"
         result="composite2" />
    </filter>
  </defs>
  <sodipodi:namedview
     pagecolor="#ffffff"
     bordercolor="#666666"
     borderopacity="1"
     objecttolerance="10"
     gridtolerance="10"
     guidetolerance="10"
     inkscape:pageopacity="0"
     inkscape:pageshadow="2"
     inkscape:window-width="1305"
     inkscape:window-height="744"
     id="namedview4"
     showgrid="false"
     inkscape:zoom="0.32526913"
     inkscape:cx="1550.8614"
     inkscape:cy="661.18872"
     inkscape:window-x="61"
     inkscape:window-y="24"
     inkscape:window-maximized="1"
     inkscape:current-layer="layer1" />
  <g
     inkscape:groupmode="layer"
     id="layer2"
     inkscape:label="artwork"
     sodipodi:insensitive="true">
    <image
       sodipodi:absref="/home/emmiline/Documents/git/peppercarrot/peppercarrot_ep12_translation/da/../gfx_Pepper-and-Carrot_by-David-Revoy_E12P03.png"
       xlink:href="../gfx_Pepper-and-Carrot_by-David-Revoy_E12P03.png"
       y="0"
       x="0"
       id="image10"
       height="3736.5334"
       width="2646.3999" />
  </g>
  <g
     inkscape:groupmode="layer"
     id="layer3"
     inkscape:label="speechbubbles" />
  <g
     inkscape:groupmode="layer"
     id="layer1"
     inkscape:label="txt">
    <path
       style="color:#000000;display:inline;overflow:visible;visibility:visible;fill:#ffffff;fill-opacity:1;fill-rule:nonzero;stroke:none;stroke-width:1.06666672px;marker:none;enable-background:accumulate"
       d="m 384.70124,1524.1779 c 4.23359,-2.3213 21.11288,-7.4476 21.11288,-7.4476 0.59599,-0.5787 33.94883,-7.1172 36.15706,-3.4708 25.06818,-1.9607 19.74928,18.114 18.03539,19.1549 24.63374,3.7921 39.2105,-0.6525 60.3373,-7.6762 -19.21777,2.0445 -29.23535,2.932 -42.57299,-3.882 -9.81395,-5.7394 -8.24816,-13.275 -4.4407,-21.1645 -17.7433,-0.4614 -34.83064,-2.0326 -40.90919,-22.2261 l -3.50996,-6.9632 c -69.68136,-17.4277 -84.43963,34.8546 -44.20979,53.6755 z"
       id="path4448"
       inkscape:connector-curvature="0"
       sodipodi:nodetypes="cccccccccc" />
    <path
       style="display:inline;fill:#ffffff;fill-rule:evenodd;stroke:none;stroke-width:1.06666672px;stroke-linecap:butt;stroke-linejoin:miter;stroke-opacity:1"
       d="m 2528.9687,264.52336 c 0.2231,58.26353 -10.2408,53.47028 -35.8235,79.14077 -26.1896,26.27934 -36.7671,30.6001 -77.5497,40.81701 -33.7685,8.45945 -54.7957,-5.28515 -78.9741,2.41361 -24.1784,7.69838 -52.6203,31.32412 -86.124,32.79616 -33.5039,1.47241 -64.1399,-36.96225 -85.6082,-37.88531 -21.4686,-0.92298 -55.1672,26.9173 -71.8652,26.19941 -16.6977,-0.71786 -52.2406,-25.0564 -71.3238,-25.87682 -19.0832,-0.82053 -40.0059,26.17618 -73.2933,21.83236 -33.2873,-4.34393 -56.1295,-30.12737 -77.7061,-28.14227 -21.5767,1.98495 -37.5671,28.16639 -75.5172,20.70922 -37.9501,-7.45693 -64.6975,-27.33823 -79.2262,-22.13736 -14.5286,5.20074 -53.8049,30.19189 -94.0321,19.72425 -40.2274,-10.46776 -53.2935,-43.15146 -74.7623,-44.07453 -21.4684,-0.92296 -47.9749,-14.4886 -59.7373,-34.65715 -15.6714,-26.87179 29.8516,-30.17509 16.5796,-59.41809 -11.4849,-25.30619 -14.8331,-22.80682 -8.2673,-52.55034 5.0458,-22.85725 34.0627,-31.06083 60.5184,-35.74877 26.4556,-4.68804 20.4459,-33.39303 51.5642,-34.96797 31.1183,-1.57482 46.9902,20.9941 80.3857,22.42984 33.3955,1.43578 65.9384,-38.09072 94.347,-31.04392 28.4084,7.04677 59.3063,24.40397 94.7225,22.38696 57.2009,-3.2576 61.8368,-22.89644 95.3406,-24.36872 33.5037,-1.4723 59.8439,27.43756 86.0833,28.56572 26.2396,1.12815 51.3725,-31.2604 89.3276,-23.83833 37.8125,7.39425 24.4886,11.86766 70.9177,19.25013 33.1047,5.26383 21.1725,-21.59619 86.1063,-19.95535 38.1888,0.965 38.196,23.9952 70.6164,37.92317 33.1637,14.24699 64.281,-16.59669 98.5409,-2.13849 42.2884,17.84628 63.2007,70.62597 54.7601,102.61481 z"
       id="path5057"
       inkscape:connector-curvature="0"
       sodipodi:nodetypes="cssssssssssssssssssssssssssssc" />
    <flowRoot
       xml:space="preserve"
       id="flowRoot2987-4-9-3-7-8-6-6-6-0-7"
       style="font-style:normal;font-variant:normal;font-weight:normal;font-stretch:normal;font-size:12.80000019px;line-height:0.01%;font-family:Lavi;-inkscape-font-specification:Lavi;text-align:center;letter-spacing:0px;word-spacing:0px;text-anchor:middle;display:inline;fill:#000000;fill-opacity:1;stroke:none;stroke-width:1.06666672"><flowRegion
         id="flowRegion2989-5-4-5-5-1-2-4-2-0-8"
         style="stroke-width:1.06666672"><rect
           id="rect2991-7-9-6-9-5-7-2-1-3-2"
           width="988.23718"
           height="206.15158"
           x="1511.5109"
           y="183.71101"
           style="font-style:normal;font-variant:normal;font-weight:normal;font-stretch:normal;font-family:Lavi;-inkscape-font-specification:Lavi;text-align:center;text-anchor:middle;stroke-width:1.13777781" /></flowRegion><flowPara
         style="font-size:48px;line-height:1.25;text-align:center;text-anchor:middle;stroke-width:1.06666672"
         id="flowPara67">&quot;Og selvfølgelig skal du ikke bruge magi.</flowPara><flowPara
         style="font-size:48px;line-height:1.25;text-align:center;text-anchor:middle;stroke-width:1.06666672"
         id="flowPara69">En ægte Kaosah-heks bruger ikke magi</flowPara><flowPara
         style="font-size:48px;line-height:1.25;text-align:center;text-anchor:middle;stroke-width:1.06666672"
         id="flowPara78">til de daglige pligter&quot;</flowPara></flowRoot>    <path
       style="color:#000000;display:inline;overflow:visible;visibility:visible;fill:#ffffff;fill-opacity:1;fill-rule:nonzero;stroke:none;stroke-width:1.06666672px;marker:none;enable-background:accumulate"
       d="m 1517.0737,290.90985 c -9.6496,18.32342 -23.6051,37.77966 -27.5875,40.14262 -3.9824,2.36296 -31.0476,-3.01389 -34.8361,2.58666 -3.7883,5.60051 -0.1962,21.75612 -3.4018,24.57254 -3.2053,2.81628 -23.7312,2.29634 -26.4511,6.9581 -2.72,4.66176 -5.7661,33.08688 -8.5181,35.12632 -2.7521,2.03934 -17.5811,13.175 -27.2627,28.87597 29.5281,-20.264 37.2656,-18.35312 41.054,-23.95363 3.7886,-5.60054 3.5636,-23.95731 8.4527,-27.87428 4.889,-3.91695 24.638,-3.85025 28.2645,-10.066 3.6266,-6.21563 2.3976,-18.38891 2.3976,-18.38891 6.0539,3.01154 39.8202,13.86047 63.392,-14.04471 23.5719,-27.90521 -15.5035,-43.93468 -15.5035,-43.93468 z"
       id="path5050"
       inkscape:connector-curvature="0" />
    <path
       style="color:#000000;display:inline;overflow:visible;visibility:visible;fill:#ffffff;fill-opacity:1;fill-rule:nonzero;stroke:none;stroke-width:1.06666672px;marker:none;enable-background:accumulate"
       d="m 322.61863,1330.351 c -0.77425,11.4871 4.92083,49.8737 24.91136,18.2919 12.51269,57.4853 53.34796,48.6738 121.55392,27.3351 -32.08053,27.2265 -35.92907,67.5349 -5.02361,74.9575 -11.22904,10.8544 -6.70112,23.5015 11.88636,37.7487 -33.02992,-4.5626 -42.81261,1.0201 5.49535,31.9537 -40.93807,-16.3308 -79.66741,-30.6586 -48.80586,18.1153 -15.29673,-5.6167 -36.76988,-44.5037 -60.86612,32.4646 -12.62335,-33.2562 -32.77232,-57.1926 -94.24945,-24.7765 0.21065,-22.9938 -8.27777,-42.1761 -53.23292,-29.7265 4.18341,-21.1395 -31.49321,-38.1498 -47.11497,-40.1107 39.04957,-9.0879 45.52762,-22.2646 9.85625,-39.8494 83.25047,-10.925 29.54651,-26.7121 25.04473,-40.3328 55.89522,7.7604 43.40907,-17.3141 43.95586,-36.8052 56.04554,23.0662 52.52164,-10.0462 66.5891,-29.2657 z"
       id="path3549-3"
       inkscape:connector-curvature="0"
       sodipodi:nodetypes="ccccccccccccccc" />
    <flowRoot
       transform="matrix(0.96658894,0,-0.23549881,1.7307518,-96.634882,943.76315)"
       style="font-style:normal;font-variant:normal;font-weight:normal;font-stretch:normal;line-height:0.01%;font-family:Lavi;-inkscape-font-specification:Lavi;text-align:center;letter-spacing:0px;word-spacing:0px;text-anchor:middle;fill:#000000;fill-opacity:1;stroke:#000000;stroke-width:2.47324347;stroke-miterlimit:4;stroke-dasharray:none;stroke-opacity:1"
       id="flowRoot4212-3-7-8-6"
       xml:space="preserve"><flowRegion
         id="flowRegion4214-6-7-8-3"><rect
           style="font-style:normal;font-variant:normal;font-weight:normal;font-stretch:normal;font-family:Lavi;-inkscape-font-specification:Lavi;text-align:center;text-anchor:middle;stroke:#000000;stroke-width:2.47324347;stroke-miterlimit:4;stroke-dasharray:none;stroke-opacity:1"
           y="265.53046"
           x="120.55251"
           height="355.03918"
           width="798.1947"
           id="rect4216-4-0-26-5" /></flowRegion><flowPara
         style="font-size:48px;line-height:1.25;text-align:center;letter-spacing:5.20896292px;text-anchor:middle;stroke:#000000;stroke-width:2.47324347;stroke-miterlimit:4;stroke-dasharray:none;stroke-opacity:1"
         id="flowPara4358-7-1">Grrr!</flowPara></flowRoot>    <path
       style="color:#000000;display:inline;overflow:visible;visibility:visible;fill:#ffffff;fill-opacity:1;fill-rule:nonzero;stroke:none;stroke-width:1.06666672px;marker:none;enable-background:accumulate"
       d="m 1900.1859,1134.8994 -66.474,-18.7795 16.7933,33.7195 c -30.9656,1.1242 -47.0992,-5.3787 -69.0704,-8.8798 l 34.5351,26.6393 -5.7558,7.4 c 5.6068,4.3268 14.0673,7.2778 16.1164,13.3197 -15.6426,3.7652 -26.8894,3.7628 -39.826,5.2084 12.1724,5.0039 22.3066,10.7939 29.4654,17.7312 l -41.4421,11.8397 37.9862,10.3581 c -28.5721,17.033 -64.4834,27.7751 -97.8473,40.701 l 98.2794,-4.767 -24.2487,27.7744 c 13.8021,-2.4893 21.3173,-6.0766 42.2379,-10.4277 -13.0207,7.2504 -52.6975,32.6502 -48.7737,30.5968 4.6046,-0.74 55.6806,-10.6172 55.6806,-10.6172 0,0 -34.5351,20.7198 -29.9304,20.7198 4.6046,0 42.5934,-5.18 42.5934,-5.18 l -12.663,19.9796 49.5005,-11.0999 -20.721,24.8428 c 12.8786,-1.4615 21.1881,-1.9718 16.6092,6.6665 46.0093,-16.5111 25.5952,-0.081 -14.4355,39.6326 26.2592,-11.8143 41.5305,-23.7925 79.0751,-36.5662 9.049,11.3566 10.3277,27.1342 6.2402,42.3829 12.3252,-11.5978 22.468,-25.3355 46.0471,-25.8995 9.4829,2.5878 7.454,10.8192 8.0582,17.7597 l 34.5351,-22.1996 v 22.9396 c 15.9403,-17.7584 29.8217,-22.4497 44.8958,-26.6396 12.4497,5.6374 24.9095,12.6792 23.0144,36.1494 18.4218,-19.9557 38.6219,-28.574 55.2654,-22.8295 9.8996,9.2377 12.2686,19.8177 14.9654,30.3393 2.8251,-9.9244 3.1059,-21.2348 11.5118,-28.1194 5.2402,6.5569 4.0765,15.2066 3.4536,23.6795 8.1256,-16.1689 20.1552,-24.0449 32.2326,-31.8193 18.2372,6.4444 20.1832,17.971 24.1749,28.8595 6.2507,-12.7254 8.0163,-14.9862 23.0232,-26.6395 45.4062,0.677 69.5666,39.2873 86.338,72.5185 -4.8589,-29.8719 -8.9138,-58.8822 -6.9069,-81.3984 13.0465,-2.3464 26.0931,2.3467 39.1398,8.8799 l -6.907,-19.9797 48.3493,13.3197 -21.8725,-31.0794 c 73.8037,-0.9959 58.9875,4.3379 75.9778,7.4 l -13.8143,-19.9798 50.6519,15.5398 c -13.8373,-16.5338 -26.7073,-26.2269 -36.1378,-41.3442 l 47.6493,-4.5351 c -20.7509,-13.3011 -30.6776,-20.1672 -49.808,-33.7063 l 34.8429,-8.4728 -43.7446,-22.1995 34.5351,-12.5798 -27.628,-2.96 46.0468,-26.6394 -61.0123,-2.22 73.6752,-48.0991 -85.1867,10.3599 6.9069,-34.7794 -47.198,25.1596 22.6827,-69.2859 c -38.9596,29.8155 -48.6276,28.5577 -94.7084,60.7196 l 14.3034,-31.18 -49.3369,26.9523 4.6046,-24.9453 -67.9191,30.3393 6.907,-14.0597 -20.7212,13.3197 4.6045,-18.4996 -35.6862,22.1996 3.2857,-19.3424 -17.0999,12.6824 -5.2655,-12.1533 -20.0602,7.7134 c -6.036,-32.066 -8.9435,-41.5913 -1.7674,-73.6574 -23.5521,36.708 -40.1831,47.3722 -79.9661,75.1374 l -12.6628,-14.0547 -15.7887,12.9962 -15.9485,-16.7989 -24.0121,20.0741 c -18.9884,-15.293 -30.0478,-24.663 -37.4957,-39.9559 3.673,14.3327 6.3437,23.961 0.9858,39.7451 -70.0966,-24.1659 -94.2309,-39.7451 -94.2309,-39.7451 0,0 11.2226,25.2146 16.2967,39.819 z"
       id="path4024"
       inkscape:connector-curvature="0"
       sodipodi:nodetypes="cccccccccccccccccsccccccccccccccccccccccccccccccccccccccccccccccccccccccccccccccccccc" />
    <path
       style="color:#000000;display:inline;overflow:visible;visibility:visible;fill:#ffffff;fill-opacity:1;fill-rule:nonzero;stroke:none;stroke-width:1.06666672px;marker:none;enable-background:accumulate"
       d="m 1594.8973,1238.4094 c 48.2845,-1.4292 97.1968,-13.0248 144.7521,-2.6417 l -32.5971,-37.0119 c 18.6532,-8.7565 38.6108,-1.5777 58.1257,0.1897 l -17.1993,-27.6341 c 44.1923,-19.9301 86.3006,-12.8105 129.416,-18.7652 l -32.9207,-44.7105 c -43.2512,13.0766 -84.6467,35.61 -129.9856,38.0497 l 14.6898,29.4688 c -15.6387,3.8694 -31.3965,6.8887 -47.686,6.1113 l 20.9411,34.598 z"
       id="path4032"
       inkscape:connector-curvature="0"
       sodipodi:nodetypes="cccccccccccc" />
    <path
       style="color:#000000;display:inline;overflow:visible;visibility:visible;fill:#ffffff;fill-opacity:1;fill-rule:nonzero;stroke:none;stroke-width:1.06666672px;marker:none;enable-background:accumulate"
       d="m 1831.1769,981.58625 c -7.7835,23.69455 -51.6834,25.68135 -67.8441,20.86505 32.5763,26.5067 31.4406,42.9757 -12.7888,45.5328 74.1735,47.772 13.5599,40.5429 1.6043,52.6565 58.24,16.4633 32.1828,36.9523 21.814,57.3486 66.9412,0.7006 45.0344,33.3953 47.8558,59.4346 5.675,-12.2188 32.6353,-49.4181 34.2575,-7.9992 44.2777,-39.5159 97.609,-65.0412 101.8437,4.1118 17.8402,-34.789 35.6268,-49.4922 34.2574,-7.9991 44.2025,-53.9671 83.9245,-34.5415 123.882,-19.2883 10.4946,-16.2886 11.7174,-41.3125 45.6699,-35.4483 -4.7605,-16.1448 6.7033,-27.2427 32.5924,-33.8331 -34.4025,-9.7527 -40.7428,-19.8123 23.1349,-30.638 -48.6072,-1.0471 -93.9337,-3.1925 -36.9069,-40.1114 -17.8909,-0.8933 -60.3389,29.9128 -40.5479,-60.24187 -30.7644,28.86167 -63.5872,44.79127 -104.75,-15.66656 -19.4803,30.20353 -53.2685,45.14943 -67.968,7.42283 -5.2833,16.08352 -27.1907,22.13226 -45.7885,22.8658 -7.1918,-6.38868 -14.6093,-15.06612 -22.3497,-26.43498 -12.6512,23.87158 -31.576,39.99338 -67.968,7.42283 z"
       id="path3549-3-7"
       inkscape:connector-curvature="0"
       sodipodi:nodetypes="cccccccccccccccccccc" />
    <flowRoot
       xml:space="preserve"
       id="flowRoot2987-4-9-3-0"
       style="font-style:normal;font-variant:normal;font-weight:normal;font-stretch:normal;line-height:0.01%;font-family:Lavi;-inkscape-font-specification:Lavi;text-align:center;letter-spacing:0px;word-spacing:0px;text-anchor:middle;fill:#000000;fill-opacity:1;stroke:none"
       transform="matrix(1.1488482,0,0,1.3691289,1478.0894,681.2409)"><flowRegion
         id="flowRegion2989-5-4-5-1"><rect
           id="rect2991-7-9-6-4"
           width="602.40173"
           height="310.73996"
           x="120.55251"
           y="265.53046"
           style="font-style:normal;font-variant:normal;font-weight:normal;font-stretch:normal;font-family:Lavi;-inkscape-font-specification:Lavi;text-align:center;text-anchor:middle" /></flowRegion><flowPara
         style="font-size:45px;line-height:1.25;text-align:center;letter-spacing:1.5px;text-anchor:middle;stroke:#000000;stroke-width:1.10000002;stroke-miterlimit:4;stroke-dasharray:none;stroke-opacity:1"
         id="flowPara3030-8-7">CARROT!</flowPara></flowRoot>    <flowRoot
       xml:space="preserve"
       id="flowRoot2987-4-9-3-7-8-6-6-6-0-7-2"
       style="font-style:normal;font-variant:normal;font-weight:normal;font-stretch:normal;font-size:12.80000019px;line-height:0.01%;font-family:Lavi;-inkscape-font-specification:Lavi;text-align:center;letter-spacing:0px;word-spacing:0px;text-anchor:middle;display:inline;fill:#000000;fill-opacity:1;stroke:none;stroke-width:1.06666672"><flowRegion
         id="flowRegion2989-5-4-5-5-1-2-4-2-0-8-9"
         style="stroke-width:1.06666672"><rect
           id="rect2991-7-9-6-9-5-7-2-1-3-2-1"
           width="988.23718"
           height="206.15158"
           x="1666.2646"
           y="1160.0643"
           style="font-style:normal;font-variant:normal;font-weight:normal;font-stretch:normal;font-family:Lavi;-inkscape-font-specification:Lavi;text-align:center;text-anchor:middle;stroke-width:1.13777781" /></flowRegion><flowPara
         style="font-size:48px;line-height:1.25;text-align:center;text-anchor:middle;stroke-width:1.06666672"
         id="flowPara72">Kaosahs syvende bog:</flowPara><flowPara
         style="font-size:48px;line-height:1.25;text-align:center;text-anchor:middle;stroke-width:1.06666672"
         id="flowPara70">”Gravitationsfelterne”...</flowPara><flowPara
         style="font-size:48px;line-height:1.25;text-align:center;text-anchor:middle;stroke-width:1.06666672"
         id="flowPara86">... og med det samme!</flowPara></flowRoot>    <path
       style="fill:#ffffff;fill-opacity:1;stroke:none;stroke-width:0.97233218"
       d="m 1430.2682,2261.3858 c 38.7799,8.9779 53.6949,17.3144 46.7344,22.4448 15.9097,2.5651 21.876,69.2585 6.9605,81.4428 -0.9942,1.2829 -7.9547,5.1302 -4.9715,5.7716 2.9829,0.6413 20.8812,-1.2823 23.8643,1.2826 2.983,2.5652 -26.8475,39.1183 -22.8702,40.4008 3.9774,1.2825 95.458,-23.0862 108.3845,-17.3146 12.9266,5.7716 5.9662,20.5209 9.9436,21.1624 3.9772,0.6412 40.7685,-3.2064 45.7403,-2.5653 4.9716,0.6414 13.9206,19.8797 18.8924,20.5209 4.9717,0.6415 27.8419,-8.3365 31.8195,-7.6952 3.9774,0.6414 1.9886,16.6735 6.9603,17.3143 4.9719,0.6416 26.8476,-13.4666 29.8306,-12.8254 2.983,0.6413 13.9211,32.7056 18.8927,34.6293 4.9718,1.9239 36.7912,-35.2705 39.7741,-35.9117 2.983,-0.6414 21.8758,43.6072 25.8531,44.2483 3.9776,0.6414 23.8646,-30.1405 26.8476,-29.4989 2.983,0.6412 21.8758,18.5973 25.853,19.8797 3.9775,1.2826 29.8306,-39.7595 33.808,-39.7595 3.9776,0 37.7855,17.3146 40.7688,20.521 2.9828,3.2065 5.9656,-16.6734 9.9432,-16.6734 3.9776,0 49.7178,11.5433 50.7122,10.902 0.994,-0.6414 -6.9607,-12.8257 -3.9775,-12.8257 2.9831,0 49.7175,16.0321 51.7064,12.8257 1.9884,-3.2064 101.4238,16.032 108.3843,13.4669 6.9606,-2.5651 -44.746,-52.5852 -39.7744,-56.4327 4.9718,-3.8478 22.8706,0.6411 23.8648,-1.2827 0.9943,-1.9239 -10.9379,-10.2604 -7.9551,-12.8256 2.9832,-2.5652 36.7912,-12.8255 39.7742,-16.0319 2.9831,-3.2066 -14.9153,-11.5434 -10.9378,-13.4672 3.9773,-1.9239 62.6444,-14.1081 63.6387,-17.3145 0.9942,-3.2065 -29.8306,-18.5971 -25.8534,-23.0862 3.9775,-4.4889 14.9155,-6.4128 13.9209,-9.6193 -0.9943,-3.2064 -19.8869,-7.0542 -18.8924,-10.2606 0.9943,-3.2064 10.9376,-19.2384 13.9207,-21.8035 2.9831,-2.5651 -20.8813,-1.2824 -20.8813,-3.8477 0,-2.565 87.5029,-71.1825 85.5141,-90.4209 -30.8248,12.1845 -136.2262,33.9882 -169.0396,28.8578 -32.8138,-5.1302 -19.8871,-37.1943 -24.8589,-39.1181 -4.9717,-1.924 -41.7629,10.9019 -46.7346,6.4126 -4.9719,-4.4888 -6.9603,-12.8253 -10.9379,-12.8253 -3.9774,0 -26.8476,17.9555 -31.8191,17.3146 -4.972,-0.6416 -51.7065,-28.8578 -58.6669,-29.4993 -6.9604,-0.6409 -33.8081,10.902 -39.7742,11.5432 -5.9661,0.6415 -10.9377,-15.3906 -15.9096,-14.1081 -4.9719,1.2825 -36.7911,12.8256 -41.7626,11.5431 -4.9719,-1.2827 -8.9492,-6.4127 -12.9269,-5.1303 -3.9771,1.2825 -21.8756,6.4128 -21.8756,6.4128 -10.9769,3.2539 -20.5527,-6.4672 -18.8928,-3.8478 3.6163,5.7059 -46.5161,21.9384 -51.7062,22.4448 -4.9716,1.2825 -47.7288,-48.7374 -44.7458,-52.585 2.9833,-3.8477 -44.7459,53.2266 -51.7064,55.1504 -6.9604,1.9236 -27.8419,-3.8477 -29.8306,-1.9238 -1.9887,1.9238 -7.9547,12.1841 -13.9208,12.8254 -5.9662,0.6413 -19.8871,3.2063 -19.8871,3.2063 l 1.9887,3.8479 c 0,0 -41.7628,-10.2605 -46.7346,-14.1083 -4.9716,-3.8475 2.9831,16.6733 5.9661,21.8036 -17.8981,-5.1303 -70.5989,-16.032 -74.5761,-19.2384 -3.9778,-3.2064 6.9603,11.5431 12.9265,16.032 -7.955,-1.9239 -14.9155,-2.5652 -14.9155,-2.5652 l 22.8703,15.3909 -6.9608,1.2827 c 0,0 14.9154,7.054 14.9154,10.2604 0,3.2064 -38.7796,7.0541 -38.7796,7.0541 0,0 15.9096,5.7714 11.9321,8.9778 -3.9774,3.2064 -13.9209,5.1302 -13.9209,5.1302 l -1.9887,8.3368 z"
       id="path5888"
       inkscape:connector-curvature="0"
       sodipodi:nodetypes="cccsccscccccccccccscscsccsscsccccccscsssscccccscsccsccccsccccccsccccc" />
    <flowRoot
       xml:space="preserve"
       id="flowRoot2987-4-9-3-7-8-6-6-6-0-7-2-6"
       style="font-style:normal;font-variant:normal;font-weight:normal;font-stretch:normal;font-size:12.80000019px;line-height:0.01%;font-family:Lavi;-inkscape-font-specification:Lavi;text-align:center;letter-spacing:0px;word-spacing:0px;text-anchor:middle;display:inline;fill:#000000;fill-opacity:1;stroke:none;stroke-width:1.06666672"
       transform="translate(-22,-12)"><flowRegion
         id="flowRegion2989-5-4-5-5-1-2-4-2-0-8-9-7"
         style="stroke-width:1.06666672"><rect
           id="rect2991-7-9-6-9-5-7-2-1-3-2-1-0"
           width="749.03723"
           height="215.35156"
           x="1496.0474"
           y="2217.2017"
           style="font-style:normal;font-variant:normal;font-weight:normal;font-stretch:normal;font-family:Lavi;-inkscape-font-specification:Lavi;text-align:center;text-anchor:middle;stroke-width:1.13777781" /></flowRegion><flowPara
         style="font-size:48px;line-height:1.25;text-align:center;text-anchor:middle;stroke-width:1.06666672"
         id="flowPara77">Jeg skal vise den</flowPara><flowPara
         style="font-size:48px;line-height:1.25;text-align:center;text-anchor:middle;stroke-width:1.06666672"
         id="flowPara101">gamle krage hvad en</flowPara><flowPara
         style="font-size:48px;line-height:1.25;text-align:center;text-anchor:middle;stroke-width:1.06666672"
         id="flowPara94">ægte Kaosah-heks er!</flowPara></flowRoot>    <path
       style="color:#000000;display:inline;overflow:visible;visibility:visible;fill:#ffffff;fill-opacity:1;fill-rule:nonzero;stroke:none;stroke-width:1.06666672px;marker:none;enable-background:accumulate"
       d="m 1549.0945,2557.0835 c 62.6158,-42.915 79.2018,-71.2375 89.2155,-90.19 -19.4048,-20.8483 -36.5845,-28.2285 -45.4216,-43.58 33.6182,-5.1385 63.6845,-4.6538 73.895,1.4174 24.1981,-35.3551 -26.4537,-32.517 -26.4537,-32.517 0,0 -52.5667,4.337 -82.6756,13.394 5.8558,33.7779 43.0016,55.4698 48.4376,62.8693 -11.6958,51.7355 -48.7081,78.1895 -56.9972,88.6063 z"
       id="path5162"
       inkscape:connector-curvature="0"
       sodipodi:nodetypes="cccccccc" />
    <flowRoot
       xml:space="preserve"
       id="flowRoot2987-7-9-9-7-0-3-5-2-6"
       style="font-style:normal;font-variant:normal;font-weight:normal;font-stretch:normal;line-height:0.01%;font-family:Lavi;-inkscape-font-specification:Lavi;letter-spacing:0px;word-spacing:0px;fill:#000000;fill-opacity:1;stroke:#000000;stroke-width:0.99236238;stroke-miterlimit:4;stroke-dasharray:none;stroke-opacity:1;filter:url(#filter4375-4-1-7-3-7)"
       transform="matrix(0.74041117,-0.42246133,-0.19568741,1.761259,2078.8055,3007.5471)"
       inkscape:transform-center-x="205.56898"
       inkscape:transform-center-y="-145.54468"><flowRegion
         id="flowRegion2989-4-5-8-7-41-7-68-63-1"
         style="stroke-width:5.40286207"><rect
           id="rect2991-45-1-3-3-8-0-3-6-32"
           width="319.66232"
           height="56.089447"
           x="120.55251"
           y="265.53046"
           style="font-style:normal;font-variant:normal;font-weight:normal;font-stretch:normal;font-family:Lavi;-inkscape-font-specification:Lavi;fill:#000000;fill-opacity:1;stroke:#000000;stroke-width:0.99236238;stroke-miterlimit:4;stroke-dasharray:none;stroke-opacity:1" /></flowRegion><flowPara
         id="flowPara2995-4-1-5-0-7-2-5-3-0"
         style="font-weight:normal;font-size:48px;line-height:1.25;-inkscape-font-specification:Lavi;letter-spacing:7.06853437px;fill:#ffffff;fill-opacity:1;stroke:#ffffff;stroke-width:0.99236238;stroke-linejoin:miter;stroke-miterlimit:4;stroke-dasharray:none;stroke-opacity:1">Tap</flowPara></flowRoot>    <flowRoot
       xml:space="preserve"
       id="flowRoot2987-7-9-9-7-0-3-5-2-6-5"
       style="font-style:normal;font-variant:normal;font-weight:normal;font-stretch:normal;line-height:0.01%;font-family:Lavi;-inkscape-font-specification:Lavi;letter-spacing:0px;word-spacing:0px;fill:#000000;fill-opacity:1;stroke:#000000;stroke-width:0.99236238;stroke-miterlimit:4;stroke-dasharray:none;stroke-opacity:1;filter:url(#filter4375-4-1-7-3-7-6)"
       transform="matrix(0.79721107,-0.38641604,-0.24566579,1.6297249,2375.2602,3009.4108)"
       inkscape:transform-center-x="215.76771"
       inkscape:transform-center-y="-136.11246"><flowRegion
         id="flowRegion2989-4-5-8-7-41-7-68-63-1-5"
         style="stroke-width:5.40286207"><rect
           id="rect2991-45-1-3-3-8-0-3-6-32-1"
           width="319.66232"
           height="56.089447"
           x="120.55251"
           y="265.53046"
           style="font-style:normal;font-variant:normal;font-weight:normal;font-stretch:normal;font-family:Lavi;-inkscape-font-specification:Lavi;fill:#000000;fill-opacity:1;stroke:#000000;stroke-width:0.99236238;stroke-miterlimit:4;stroke-dasharray:none;stroke-opacity:1" /></flowRegion><flowPara
         id="flowPara2995-4-1-5-0-7-2-5-3-0-4"
         style="font-weight:normal;font-size:48px;line-height:1.25;-inkscape-font-specification:Lavi;letter-spacing:7.06853437px;fill:#ffffff;fill-opacity:1;stroke:#ffffff;stroke-width:0.99236238;stroke-linejoin:miter;stroke-miterlimit:4;stroke-dasharray:none;stroke-opacity:1">Tap</flowPara></flowRoot>    <flowRoot
       xml:space="preserve"
       id="flowRoot59"
       style="fill:black;fill-opacity:1;stroke:none;font-family:sans-serif;font-style:normal;font-weight:normal;font-size:40px;line-height:1.25;letter-spacing:0px;word-spacing:0px"><flowRegion
         id="flowRegion61"><rect
           id="rect63"
           width="86.082565"
           height="43.041283"
           x="1663.238"
           y="330.1235" /></flowRegion><flowPara
         id="flowPara65" /></flowRoot>    <flowRoot
       xml:space="preserve"
       id="flowRoot74"
       style="fill:black;fill-opacity:1;stroke:none;font-family:sans-serif;font-style:normal;font-weight:normal;font-size:40px;line-height:1.25;letter-spacing:0px;word-spacing:0px"><flowRegion
         id="flowRegion76"><rect
           id="rect78"
           width="24.595018"
           height="55.338791"
           x="2656.262"
           y="1252.4366" /></flowRegion><flowPara
         id="flowPara80" /></flowRoot>  </g>
</svg>
