<?xml version="1.0" encoding="UTF-8" standalone="no"?>
<!-- Created with Inkscape (http://www.inkscape.org/) -->

<svg
   xmlns:dc="http://purl.org/dc/elements/1.1/"
   xmlns:cc="http://creativecommons.org/ns#"
   xmlns:rdf="http://www.w3.org/1999/02/22-rdf-syntax-ns#"
   xmlns:svg="http://www.w3.org/2000/svg"
   xmlns="http://www.w3.org/2000/svg"
   xmlns:xlink="http://www.w3.org/1999/xlink"
   xmlns:sodipodi="http://sodipodi.sourceforge.net/DTD/sodipodi-0.dtd"
   xmlns:inkscape="http://www.inkscape.org/namespaces/inkscape"
   id="svg2"
   version="1.1"
   inkscape:version="0.91 r13725"
   width="2481"
   height="3503"
   sodipodi:docname="Pepper-and-Carrot_by-David-Revoy_E12P02.svg">
  <metadata
     id="metadata8">
    <rdf:RDF>
      <cc:Work
         rdf:about="">
        <dc:format>image/svg+xml</dc:format>
        <dc:type
           rdf:resource="http://purl.org/dc/dcmitype/StillImage" />
        <dc:title />
      </cc:Work>
    </rdf:RDF>
  </metadata>
  <defs
     id="defs6">
    <filter
       style="color-interpolation-filters:sRGB"
       id="filter4375-4-1-1-1"
       inkscape:label="deevad outline effect">
      <feFlood
         id="feFlood4377-7-9-0-8"
         flood-opacity="1"
         flood-color="rgb(52,87,46)"
         result="flood" />
      <feComposite
         id="feComposite4379-3-8-8-2"
         in2="SourceGraphic"
         in="flood"
         operator="in"
         result="composite1" />
      <feMorphology
         id="feMorphology4393-1-0-49-8"
         operator="dilate"
         radius="4"
         result="result3" />
      <feComposite
         id="feComposite4385-9-5-7-0"
         in2="result3"
         in="SourceGraphic"
         operator="over"
         result="composite2" />
    </filter>
  </defs>
  <sodipodi:namedview
     pagecolor="#ffffff"
     bordercolor="#666666"
     borderopacity="1"
     objecttolerance="10"
     gridtolerance="10"
     guidetolerance="10"
     inkscape:pageopacity="0"
     inkscape:pageshadow="2"
     inkscape:window-width="957"
     inkscape:window-height="1128"
     id="namedview4"
     showgrid="false"
     inkscape:zoom="0.69960253"
     inkscape:cx="1625.3696"
     inkscape:cy="984.2499"
     inkscape:window-x="-6"
     inkscape:window-y="0"
     inkscape:window-maximized="0"
     inkscape:current-layer="layer3" />
  <g
     inkscape:groupmode="layer"
     id="layer2"
     inkscape:label="artwork"
     sodipodi:insensitive="true">
    <image
       sodipodi:absref="C:\Users\Alexandre\GitHub\peppercarrot_ep12_translation\pt\..\gfx_Pepper-and-Carrot_by-David-Revoy_E12P02.png"
       xlink:href="..\gfx_Pepper-and-Carrot_by-David-Revoy_E12P02.png"
       width="2481"
       height="3503"
       id="image10"
       x="0"
       y="0" />
  </g>
  <g
     inkscape:groupmode="layer"
     id="layer3"
     inkscape:label="speechbubbles">
    <path
       style="fill:#ffffff;stroke:none"
       d="m 1619.4822,493.55313 c 59.37,10.88062 130.239,-19.10803 138.4344,-93.39209 4.9656,-45.00881 2.9147,-72.57554 2.9147,-72.57554 l 37.4598,26.38481 -2.7257,51.07511 c 0,0 -38.0508,127.16014 -176.0832,88.50771 z"
       id="path3063"
       inkscape:connector-curvature="0"
       sodipodi:nodetypes="cscccc" />
    <path
       style="fill:#ffffff;stroke:none"
       d="m 1600.6326,292.78067 c 8.6562,-60.22373 38.5591,-117.86643 218.7639,-125.60952 180.2048,-7.74301 254.1754,71.4082 254.9622,117.00613 0.787,45.59791 -52.7236,130.77153 -198.3038,132.49222 -145.5805,1.72069 -270.7007,-6.02239 -275.4223,-123.88883 z"
       id="path3270"
       inkscape:connector-curvature="0" />
    <path
       style="fill:#ffffff;fill-rule:evenodd;stroke:none;stroke-width:1px;stroke-linecap:butt;stroke-linejoin:miter;stroke-opacity:1"
       d="m 1477.3311,1611.0508 c -3.0154,46.8723 -29.7425,76.9194 -2.3075,76.5302 29.473,-0.4181 -0.1784,-28.9502 2.3075,-76.5302 z"
       id="path4222"
       inkscape:connector-curvature="0"
       sodipodi:nodetypes="csc" />
    <path
       style="fill:#ffffff;fill-rule:evenodd;stroke:none;stroke-width:1px;stroke-linecap:butt;stroke-linejoin:miter;stroke-opacity:1"
       d="m 1982.3019,2077.7766 c -3.0154,46.8723 -29.7425,76.9194 -2.3075,76.5302 29.473,-0.4181 -0.1784,-28.9502 2.3075,-76.5302 z"
       id="path4222-9"
       inkscape:connector-curvature="0"
       sodipodi:nodetypes="csc" />
    <flowRoot
       xml:space="preserve"
       id="flowRoot2987-7-9-9-6-2"
       style="font-style:normal;font-variant:normal;font-weight:normal;font-stretch:normal;font-size:12px;line-height:125%;font-family:Lavi;-inkscape-font-specification:Lavi;letter-spacing:0px;word-spacing:0px;fill:#6f8a91;fill-opacity:1;stroke:none"
       transform="matrix(0.34033125,0.19613469,-0.07244778,0.46867793,867.99043,1397.2326)"><flowRegion
         id="flowRegion2989-4-5-8-75-8"><rect
           id="rect2991-45-1-3-34-5"
           width="417.15793"
           height="141.89404"
           x="120.55251"
           y="265.53046"
           style="font-style:normal;font-variant:normal;font-weight:normal;font-stretch:normal;font-family:Lavi;-inkscape-font-specification:Lavi;fill:#6f8a91" /></flowRegion><flowPara
         id="flowPara2995-4-1-5-4-4"
         style="font-size:48px;fill:#6f8a91">Ziooum !</flowPara></flowRoot>    <path
       style="color:#000000;display:inline;overflow:visible;visibility:visible;fill:#ffffff;fill-opacity:1;fill-rule:nonzero;stroke:none;stroke-width:1px;marker:none;enable-background:accumulate"
       d="m 236.22965,2601.416 c 4.80392,-10.2204 28.84048,-41.8515 32.84899,-8.3111 39.83557,-46.1553 79.59898,-32.4883 119.3664,-22.2216 9.25399,-13.7799 9.00175,-34.158 42.37647,-31.1958 -5.57863,-12.8551 4.89635,-22.4688 29.69575,-29.1907 -34.04053,-6.0954 -40.7722,-13.9277 20.73577,-26.1005 -47.34878,1.7248 -91.60104,2.3814 -38.28898,-30.6123 -17.45757,0.2225 -56.94363,27.4824 -42.98009,-46.7587 -28.23547,25.0612 -59.22149,39.7294 -102.81403,-7.1731 -10.90692,20.0506 -28.35678,34.1382 -65.6717,9.6233 -6.18176,19.6488 -48.7877,23.5669 -64.79222,20.5129 33.24706,19.7939 33.12443,33.2204 -9.75399,37.6394 74.96263,34.8548 15.57198,32.2184 4.65185,42.6863 57.6245,10.2807 33.47442,28.2721 24.58395,45.3804 65.16458,-2.9773 45.76911,24.7309 50.04183,45.7215 z"
       id="path3549-3"
       inkscape:connector-curvature="0"
       sodipodi:nodetypes="ccccccccccccccc"
       inkscape:transform-center-x="-167.18133"
       inkscape:transform-center-y="58.382842" />
    <path
       style="color:#000000;display:inline;overflow:visible;visibility:visible;fill:#ffffff;fill-opacity:1;fill-rule:nonzero;stroke:none;stroke-width:1px;marker:none;enable-background:accumulate"
       d="m 308.27858,2558.8689 c 22.23093,45.0827 43.46026,114.2405 119.66529,91.8336 28.367,25.1116 52.78253,40.8669 113.32912,19.0349 -47.52657,7.5386 -74.32369,6.2336 -113.25897,-34.0723 -40.58299,6.3014 -71.81242,-24.8983 -89.08654,-84.7355 -17.27409,-59.8372 13.4365,-43.9063 13.4365,-43.9063 l -41.14045,33.8175 z"
       id="path5074"
       inkscape:connector-curvature="0"
       sodipodi:nodetypes="ccccsccc" />
    <flowRoot
       xml:space="preserve"
       id="flowRoot2987-4-9-3-0"
       style="font-style:normal;font-variant:normal;font-weight:normal;font-stretch:normal;font-size:12px;line-height:125%;font-family:Lavi;-inkscape-font-specification:Lavi;text-align:center;letter-spacing:0px;word-spacing:0px;text-anchor:middle;fill:#000000;fill-opacity:1;stroke:none"
       transform="matrix(1.186725,0,0,1.186725,-194.70066,2153.4757)"><flowRegion
         id="flowRegion2989-5-4-5-1"><rect
           id="rect2991-7-9-6-4"
           width="602.40173"
           height="310.73996"
           x="120.55251"
           y="265.53046"
           style="font-style:normal;font-variant:normal;font-weight:normal;font-stretch:normal;font-family:Lavi;-inkscape-font-specification:Lavi;text-align:center;text-anchor:middle" /></flowRegion><flowPara
         style="font-size:45px;text-align:center;letter-spacing:1.5px;text-anchor:middle;stroke:#000000;stroke-width:1.10000002;stroke-miterlimit:4;stroke-dasharray:none;stroke-opacity:1"
         id="flowPara3030-8-7">Droga!</flowPara></flowRoot>    <path
       style="color:#000000;display:inline;overflow:visible;visibility:visible;fill:#ffffff;fill-opacity:1;fill-rule:nonzero;stroke:none;stroke-width:1px;marker:none;enable-background:accumulate"
       d="m 1356.2388,2471.5325 c 11.6205,-48.9908 108.0265,-69.6563 139.5462,-65.3046 31.5196,4.3517 112.2849,21.7632 131.7981,22.8672 19.5132,1.1039 90.9106,-3.8461 116.7109,-4.9548 25.8004,-1.1088 54.1031,46.7241 50.2447,65.7689 -3.8583,19.0447 -27.3454,71.6526 -94.895,74.2518 -67.5496,2.5994 -157.2304,-10.1797 -175.997,-4.8203 -18.7667,5.3591 -98.512,7.2685 -126.4571,-12.2915 -27.9453,-19.5599 -52.5712,-26.5259 -40.9508,-75.5167 z"
       id="path4554"
       inkscape:connector-curvature="0"
       sodipodi:nodetypes="zsssssssz" />
    <flowRoot
       xml:space="preserve"
       id="flowRoot2987-4-9-3-7"
       style="font-style:normal;font-variant:normal;font-weight:normal;font-stretch:normal;font-size:12px;line-height:125%;font-family:Lavi;-inkscape-font-specification:Lavi;text-align:center;letter-spacing:0px;word-spacing:0px;text-anchor:middle;fill:#000000;fill-opacity:1;stroke:none"
       transform="translate(1156.0427,2192.9602)"><flowRegion
         id="flowRegion2989-5-4-5-5"><rect
           id="rect2991-7-9-6-3"
           width="602.40173"
           height="310.73996"
           x="120.55251"
           y="265.53046"
           style="font-style:normal;font-variant:normal;font-weight:normal;font-stretch:normal;font-family:Lavi;-inkscape-font-specification:Lavi;text-align:center;text-anchor:middle" /></flowRegion><flowPara
         style="font-size:45px;text-align:center;text-anchor:middle"
         id="flowPara3030-8-3">Enterrar tudo?!</flowPara></flowRoot>    <path
       style="color:#000000;fill:#ffffff;fill-opacity:1;fill-rule:nonzero;stroke:none;stroke-width:1px;marker:none;visibility:visible;display:inline;overflow:visible;enable-background:accumulate"
       d="m 1514.6925,2549.1612 c 55.8536,-24.8654 410.5988,-57.1344 508.0941,1.3849 81.3781,48.8452 49.6269,170.4873 -22.7459,198.5053 -72.3724,28.018 -367.8634,21.978 -468.9956,-5.3974 -52.7474,-14.2781 -72.1316,-46.3761 -77.3331,-119.8698 -2.1298,-30.091 5.127,-49.7576 60.9805,-74.623 z"
       id="path4040-4"
       inkscape:connector-curvature="0"
       sodipodi:nodetypes="zssssz" />
    <flowRoot
       xml:space="preserve"
       id="flowRoot2987-4-9-3-7-3"
       style="font-style:normal;font-variant:normal;font-weight:normal;font-stretch:normal;font-size:12px;line-height:125%;font-family:Lavi;-inkscape-font-specification:Lavi;text-align:center;letter-spacing:0px;word-spacing:0px;text-anchor:middle;fill:#000000;fill-opacity:1;stroke:none"
       transform="translate(1348.4658,2271.1526)"><flowRegion
         id="flowRegion2989-5-4-5-5-2"><rect
           id="rect2991-7-9-6-3-0"
           width="548.08514"
           height="287.86981"
           x="146.2814"
           y="294.1181"
           style="font-style:normal;font-variant:normal;font-weight:normal;font-stretch:normal;font-family:Lavi;-inkscape-font-specification:Lavi;text-align:center;text-anchor:middle" /></flowRegion><flowPara
         style="font-size:42.5px;text-align:center;text-anchor:middle"
         id="flowPara4352">Mas isso vai levar horas, sem contar as bolhas que teremos ao terminarmos!</flowPara></flowRoot>    <path
       style="color:#000000;display:inline;overflow:visible;visibility:visible;fill:#ffffff;fill-opacity:1;fill-rule:nonzero;stroke:none;stroke-width:1px;marker:none;enable-background:accumulate"
       d="m 1400.4736,2533.7323 c -18.6319,22.5019 -44.8842,46.6694 -52.0048,51.8217 -6.8645,-10.1867 -15.2086,-18.7014 -21.5731,-25.4015 -11.7344,10.6559 -61.4082,63.3167 -64.096,80.5357 4.1256,-43.1549 37.0517,-85.8621 58.589,-101.807 10.249,8.0984 15.2352,13.7511 20.7482,17.9401 11.4577,-7.4488 38.6153,-39.0061 38.6153,-39.0061 z"
       id="path5066"
       inkscape:connector-curvature="0" />
    <flowRoot
       xml:space="preserve"
       id="flowRoot2987-7-9-9-7-0-3-4-1"
       style="font-style:normal;font-variant:normal;font-weight:normal;font-stretch:normal;font-size:12px;line-height:125%;font-family:Lavi;-inkscape-font-specification:Lavi;letter-spacing:0px;word-spacing:0px;display:inline;fill:#000000;fill-opacity:1;stroke:#000000;stroke-width:0.99236238;stroke-miterlimit:4;stroke-dasharray:none;stroke-opacity:1;filter:url(#filter4375-4-1-1-1)"
       transform="matrix(0.99907964,-0.23828437,0.36362081,1.4376966,1595.4478,2880.2412)"><flowRegion
         id="flowRegion2989-4-5-8-7-41-7-62-2"
         style="stroke-width:5.40286207"><rect
           id="rect2991-45-1-3-3-8-0-4-6"
           width="319.66232"
           height="53.089447"
           x="120.55251"
           y="265.53046"
           style="font-style:normal;font-variant:normal;font-weight:normal;font-stretch:normal;font-family:Lavi;-inkscape-font-specification:Lavi;fill:#000000;fill-opacity:1;stroke:#000000;stroke-width:0.99236238;stroke-miterlimit:4;stroke-dasharray:none;stroke-opacity:1" /></flowRegion><flowPara
         id="flowPara2995-4-1-5-0-7-2-6-4"
         style="font-weight:normal;font-size:48px;-inkscape-font-specification:Lavi;letter-spacing:7.06853437px;fill:#ffffff;fill-opacity:1;stroke:#ffffff;stroke-width:0.99236238;stroke-linejoin:miter;stroke-miterlimit:4;stroke-dasharray:none;stroke-opacity:1">Poum</flowPara></flowRoot>  </g>
  <g
     inkscape:groupmode="layer"
     id="layer1"
     inkscape:label="txt">
    <flowRoot
       xml:space="preserve"
       id="flowRoot2987-4-9-3"
       style="font-style:normal;font-variant:normal;font-weight:normal;font-stretch:normal;font-size:12px;line-height:125%;font-family:Lavi;-inkscape-font-specification:Lavi;text-align:center;letter-spacing:0px;word-spacing:0px;text-anchor:middle;fill:#000000;fill-opacity:1;stroke:none"
       transform="translate(1413.5427,-22.039769)"><flowRegion
         id="flowRegion2989-5-4-5"><rect
           id="rect2991-7-9-6"
           width="602.40173"
           height="310.73996"
           x="120.55251"
           y="265.53046"
           style="font-style:normal;font-variant:normal;font-weight:normal;font-stretch:normal;font-family:Lavi;-inkscape-font-specification:Lavi;text-align:center;text-anchor:middle" /></flowRegion><flowPara
         style="font-size:45px;text-align:center;text-anchor:middle"
         id="flowPara3030-8">Desparecer com elas?</flowPara><flowPara
         style="font-size:45px;text-align:center;text-anchor:middle"
         id="flowPara4169">Fácil! Iupi!</flowPara></flowRoot>  </g>
</svg>
