<?xml version="1.0" encoding="UTF-8" standalone="no"?>
<!-- Created with Inkscape (http://www.inkscape.org/) -->

<svg
   xmlns:dc="http://purl.org/dc/elements/1.1/"
   xmlns:cc="http://creativecommons.org/ns#"
   xmlns:rdf="http://www.w3.org/1999/02/22-rdf-syntax-ns#"
   xmlns:svg="http://www.w3.org/2000/svg"
   xmlns="http://www.w3.org/2000/svg"
   xmlns:xlink="http://www.w3.org/1999/xlink"
   xmlns:sodipodi="http://sodipodi.sourceforge.net/DTD/sodipodi-0.dtd"
   xmlns:inkscape="http://www.inkscape.org/namespaces/inkscape"
   id="svg2"
   version="1.1"
   inkscape:version="0.91 r"
   width="2481"
   height="3503"
   sodipodi:docname="Pepper-and-Carrot_by-David-Revoy_E12P03.svg">
  <metadata
     id="metadata8">
    <rdf:RDF>
      <cc:Work
         rdf:about="">
        <dc:format>image/svg+xml</dc:format>
        <dc:type
           rdf:resource="http://purl.org/dc/dcmitype/StillImage" />
        <dc:title />
      </cc:Work>
    </rdf:RDF>
  </metadata>
  <defs
     id="defs6">
    <filter
       style="color-interpolation-filters:sRGB"
       id="filter4375-4-1-7-3-7"
       inkscape:label="deevad outline effect">
      <feFlood
         id="feFlood4377-7-9-2-4-1"
         flood-opacity="1"
         flood-color="rgb(60,100,48)"
         result="flood" />
      <feComposite
         id="feComposite4379-3-8-5-4-75"
         in2="SourceGraphic"
         in="flood"
         operator="in"
         result="composite1" />
      <feMorphology
         id="feMorphology4393-1-0-4-5-8"
         operator="dilate"
         radius="4"
         result="result3" />
      <feComposite
         id="feComposite4385-9-5-2-1-5"
         in2="result3"
         in="SourceGraphic"
         operator="over"
         result="composite2" />
    </filter>
    <filter
       style="color-interpolation-filters:sRGB"
       id="filter4375-4-1-7-3-7-6"
       inkscape:label="deevad outline effect">
      <feFlood
         id="feFlood4377-7-9-2-4-1-8"
         flood-opacity="1"
         flood-color="rgb(60,100,48)"
         result="flood" />
      <feComposite
         id="feComposite4379-3-8-5-4-75-5"
         in2="SourceGraphic"
         in="flood"
         operator="in"
         result="composite1" />
      <feMorphology
         id="feMorphology4393-1-0-4-5-8-4"
         operator="dilate"
         radius="4"
         result="result3" />
      <feComposite
         id="feComposite4385-9-5-2-1-5-1"
         in2="result3"
         in="SourceGraphic"
         operator="over"
         result="composite2" />
    </filter>
  </defs>
  <sodipodi:namedview
     pagecolor="#ffffff"
     bordercolor="#666666"
     borderopacity="1"
     objecttolerance="10"
     gridtolerance="10"
     guidetolerance="10"
     inkscape:pageopacity="0"
     inkscape:pageshadow="2"
     inkscape:window-width="1920"
     inkscape:window-height="1017"
     id="namedview4"
     showgrid="false"
     inkscape:zoom="0.40000001"
     inkscape:cx="1231.0711"
     inkscape:cy="1831.594"
     inkscape:window-x="-8"
     inkscape:window-y="-8"
     inkscape:window-maximized="1"
     inkscape:current-layer="layer1" />
  <g
     inkscape:groupmode="layer"
     id="layer2"
     inkscape:label="artwork"
     sodipodi:insensitive="true">
    <image
       sodipodi:absref="/home/deevad/peppercarrot/webcomics/ep12_Autumn-Clearout/lang/ja/../gfx_Pepper-and-Carrot_by-David-Revoy_E12P03.png"
       xlink:href="../gfx_Pepper-and-Carrot_by-David-Revoy_E12P03.png"
       width="2481"
       height="3503"
       id="image10"
       x="0"
       y="0" />
  </g>
  <g
     inkscape:groupmode="layer"
     id="layer3"
     inkscape:label="speechbubbles" />
  <g
     inkscape:groupmode="layer"
     id="layer1"
     inkscape:label="txt">
    <path
       style="color:#000000;display:inline;overflow:visible;visibility:visible;fill:#ffffff;fill-opacity:1;fill-rule:nonzero;stroke:none;stroke-width:1px;marker:none;enable-background:accumulate"
       d="m 360.65741,1428.9168 c 3.96899,-2.1762 19.79333,-6.9821 19.79333,-6.9821 0.55874,-0.5426 31.82703,-6.6724 33.89724,-3.2539 23.50142,-1.8382 18.51495,16.9819 16.90818,17.9577 23.09413,3.5551 36.75984,-0.6117 56.56622,-7.1964 -18.01666,1.9167 -27.40814,2.7487 -39.91218,-3.6394 -9.20058,-5.3807 -7.73265,-12.4453 -4.16316,-19.8417 -16.63434,-0.4326 -32.65372,-1.9056 -38.35236,-20.837 l -3.29059,-6.528 c -65.32627,-16.3385 -79.16215,32.6762 -41.44668,50.3208 z"
       id="path4448"
       inkscape:connector-curvature="0"
       sodipodi:nodetypes="cccccccccc" />
    <path
       style="display:inline;fill:#ffffff;fill-rule:evenodd;stroke:none;stroke-width:1px;stroke-linecap:butt;stroke-linejoin:miter;stroke-opacity:1"
       d="m 2263.5961,251.78374 c 0.1741,57.5176 -7.9952,52.78572 -27.968,78.12755 -20.4467,25.94288 -28.7047,30.20834 -60.5442,40.29444 -26.3637,8.35114 -42.7802,-5.21748 -61.6565,2.38271 -18.8763,7.59982 -41.0815,30.92308 -67.2384,32.37628 -26.157,1.45356 -50.0749,-36.48903 -66.8358,-37.40027 -16.7607,-0.91117 -43.0699,26.57268 -56.1062,25.86398 -13.0362,-0.70868 -40.7852,-24.73561 -55.6836,-25.54553 -14.8987,-0.81003 -31.2333,25.84106 -57.2212,21.55286 -25.988,-4.28833 -43.8214,-29.74167 -60.6664,-27.78198 -16.8456,1.95954 -29.3294,27.80578 -58.9575,20.44408 -29.6284,-7.36146 -50.5106,-26.98822 -61.8533,-21.85394 -11.3428,5.13415 -42.0064,29.80535 -73.4123,19.47173 -31.4064,-10.33374 -41.6072,-42.599 -58.3682,-43.51026 -16.7606,-0.91114 -37.4548,-14.3031 -46.6378,-34.21345 -12.2349,-26.52775 23.3055,-29.78876 12.9439,-58.65737 -8.9664,-24.98219 -11.5806,-22.51482 -6.4545,-51.87754 3.9393,-22.56462 26.5933,-30.66317 47.2478,-35.29109 20.6543,-4.62802 15.9623,-32.96551 40.2568,-34.52029 24.2947,-1.55466 36.6861,20.72532 62.7586,22.14268 26.0723,1.4174 51.4793,-37.60306 73.6581,-30.64647 22.179,6.95655 46.3015,24.09153 73.9516,22.10034 44.6575,-3.21589 48.2769,-22.6033 74.4339,-24.05674 26.1567,-1.45345 46.7212,27.08629 67.2065,28.20001 20.4856,1.11371 40.1074,-30.86018 69.7395,-23.53314 29.5209,7.29959 19.1188,11.71572 55.3667,19.00368 25.8454,5.19644 16.5297,-21.3197 67.2246,-19.69987 29.8145,0.95266 38.039,15.46905 63.3503,29.2187 25.8914,14.06459 41.9661,-8.16525 68.7134,6.10784 33.0153,17.61779 49.3419,69.72176 42.7522,101.30106 z"
       id="path5057"
       inkscape:connector-curvature="0"
       sodipodi:nodetypes="cssssssssssssssssssssssssssssc" />
    <flowRoot
       xml:space="preserve"
       id="flowRoot2987-4-9-3-7-8-6-6-6-0-7"
       style="font-style:normal;font-variant:normal;font-weight:normal;font-stretch:normal;font-size:12px;line-height:125%;font-family:'Rounded M+ 1c';-inkscape-font-specification:'Rounded M+ 1c, Medium';text-align:center;letter-spacing:0px;word-spacing:0px;text-anchor:middle;display:inline;fill:#000000;fill-opacity:1;stroke:none"
       transform="translate(1392.9954,-92.80137)"><flowRegion
         id="flowRegion2989-5-4-5-5-1-2-4-2-0-8"><rect
           id="rect2991-7-9-6-9-5-7-2-1-3-2"
           width="723.97241"
           height="195.76709"
           x="120.55251"
           y="265.53046"
           style="font-style:normal;font-variant:normal;font-weight:normal;font-stretch:normal;font-family:'Rounded M+ 1c';-inkscape-font-specification:'Rounded M+ 1c, Medium';text-align:center;text-anchor:middle" /></flowRegion><flowPara
         style="font-size:45px;text-align:center;text-anchor:middle"
         id="flowPara3595">「それに魔法は絶対に使うな</flowPara><flowPara
         style="font-size:45px;text-align:center;text-anchor:middle"
         id="flowPara4184">真のケイオサーの魔女は</flowPara><flowPara
         style="font-size:45px;text-align:center;text-anchor:middle"
         id="flowPara4186">魔法を雑用に使うものではない」</flowPara></flowRoot>    <path
       style="color:#000000;display:inline;overflow:visible;visibility:visible;fill:#ffffff;fill-opacity:1;fill-rule:nonzero;stroke:none;stroke-width:1px;marker:none;enable-background:accumulate"
       d="m 1497.0589,274.6025 c -10.4609,16.35541 -25.0337,33.42914 -28.9405,35.32216 -3.9067,1.89302 -28.7657,-5.26653 -32.747,-0.33374 -3.9811,4.93275 -1.9008,20.30843 -5.1177,22.68638 -3.2167,2.37784 -22.3503,0.27172 -25.2591,4.41188 -2.909,4.14015 -7.9986,30.45358 -10.7304,32.1415 -2.7319,1.68784 -17.4639,10.91977 -27.7476,24.82283 29.184,-16.59894 36.2613,-14.20302 40.2424,-19.13578 3.9813,-4.93277 5.2203,-22.09887 10.0968,-25.37203 4.8763,-3.27314 23.32,-1.65175 27.1985,-7.17202 3.8785,-5.52016 3.6914,-16.9891 3.6914,-16.9891 5.4177,3.29122 36.1047,16.09163 60.3277,-8.11569 24.2232,-24.20734 -11.0145,-42.26639 -11.0145,-42.26639 z"
       id="path5050"
       inkscape:connector-curvature="0" />
    <path
       style="color:#000000;display:inline;overflow:visible;visibility:visible;fill:#ffffff;fill-opacity:1;fill-rule:nonzero;stroke:none;stroke-width:1px;marker:none;enable-background:accumulate"
       d="m 293.32027,1247.2041 c -0.77039,10.7691 4.89629,46.7566 24.78717,17.1486 12.45031,53.8925 53.08201,45.6317 120.94796,25.6267 -31.92061,25.5248 -35.74997,63.3139 -4.99858,70.2726 -11.17305,10.176 -6.66771,22.0327 11.82711,35.3894 -32.86526,-4.2774 -42.59918,0.9564 5.46795,29.9566 -40.73399,-15.3101 -79.27025,-28.7424 -48.56255,16.9831 -15.22047,-5.2656 -36.58657,-41.7222 -60.5627,30.4356 -12.56042,-31.1777 -32.60894,-53.6181 -93.7796,-23.228 0.20961,-21.5567 -8.2365,-39.5401 -52.96754,-27.8686 4.16256,-19.8183 -31.33621,-35.7654 -46.88009,-37.6038 38.8549,-8.5199 45.30065,-20.873 9.80711,-37.3588 82.83546,-10.2422 29.39921,-25.0426 24.91988,-37.812 55.61657,7.2754 43.19267,-16.2319 43.73673,-34.5048 55.76615,21.6245 52.25981,-9.4184 66.25715,-27.4366 z"
       id="path3549-3"
       inkscape:connector-curvature="0"
       sodipodi:nodetypes="ccccccccccccccc" />
    <flowRoot
       transform="matrix(0.90617713,0,-0.22078013,1.6225798,-90.595202,884.77795)"
       style="font-style:normal;font-variant:normal;font-weight:normal;font-stretch:normal;font-size:12px;line-height:125%;font-family:'Rounded M+ 1c';-inkscape-font-specification:'Rounded M+ 1c, Medium';text-align:center;letter-spacing:0px;word-spacing:0px;text-anchor:middle;fill:#000000;fill-opacity:1;stroke:#000000;stroke-width:2.47324347;stroke-miterlimit:4;stroke-dasharray:none;stroke-opacity:1"
       id="flowRoot4212-3-7-8-6"
       xml:space="preserve"><flowRegion
         id="flowRegion4214-6-7-8-3"><rect
           style="font-style:normal;font-variant:normal;font-weight:normal;font-stretch:normal;font-family:'Rounded M+ 1c';-inkscape-font-specification:'Rounded M+ 1c, Medium';text-align:center;text-anchor:middle;stroke:#000000;stroke-width:2.47324347;stroke-miterlimit:4;stroke-dasharray:none;stroke-opacity:1"
           y="265.53046"
           x="120.55251"
           height="355.03918"
           width="798.1947"
           id="rect4216-4-0-26-5" /></flowRegion><flowPara
         style="font-size:48px;text-align:center;letter-spacing:5.20896292px;text-anchor:middle;stroke:#000000;stroke-width:2.47324347;stroke-miterlimit:4;stroke-dasharray:none;stroke-opacity:1"
         id="flowPara4358-7-1">ぐぅぅ！</flowPara></flowRoot>    <path
       style="color:#000000;display:inline;overflow:visible;visibility:visible;fill:#ffffff;fill-opacity:1;fill-rule:nonzero;stroke:none;stroke-width:1px;marker:none;enable-background:accumulate"
       d="m 1746.0752,1093.4327 -49.4696,-22.7394 12.4975,40.8296 c -23.0444,1.3614 -35.0508,-6.5128 -51.4017,-10.7523 l 25.7008,32.2568 -4.2833,8.9603 c 4.1725,5.239 10.4686,8.8123 11.9936,16.1282 -11.6411,4.5592 -20.011,4.5562 -29.6383,6.3068 9.0586,6.0589 16.6005,13.0698 21.928,21.4699 l -30.8409,14.3363 28.2692,12.5422 c -21.2633,20.6244 -47.9882,33.6318 -72.8174,49.2833 l 73.1388,-5.7721 -18.0458,33.6308 c 10.2715,-3.0141 15.8643,-7.3578 31.4333,-12.6263 -9.6899,8.7791 -39.2172,39.5348 -36.2972,37.0484 3.4268,-0.8961 41.4372,-12.856 41.4372,-12.856 0,0 -25.7008,25.0888 -22.274,25.0888 3.4267,0 31.6977,-6.2722 31.6977,-6.2722 l -9.4237,24.1925 36.8378,-13.4404 -15.4205,30.0812 c 9.5844,-1.7696 15.7682,-2.3875 12.3606,8.0722 34.2398,-19.9928 19.0479,-0.097 -10.7429,47.9896 19.5421,-14.3055 30.9068,-28.8093 58.8473,-44.2767 6.7341,13.7514 7.6858,32.8558 4.6439,51.3199 9.1722,-14.0433 16.7205,-30.6777 34.2678,-31.3608 7.0571,3.1336 5.5473,13.1006 5.997,21.5045 l 25.7005,-26.8805 0,27.7768 c 11.8628,-21.503 22.1933,-27.1835 33.4113,-32.2569 9.265,6.826 18.5375,15.3527 17.1272,43.7718 13.7093,-24.1635 28.742,-34.5991 41.1282,-27.6432 7.3671,11.1854 9.13,23.9964 11.1369,36.7367 2.1025,-12.0172 2.3116,-25.7126 8.5671,-34.0489 3.8996,7.9396 3.0337,18.4132 2.5701,28.6727 6.047,-19.5784 14.9994,-29.1149 23.9873,-38.5287 13.5719,7.8032 15.0202,21.7603 17.9907,34.9448 4.6519,-15.4087 5.9658,-18.1462 17.1337,-32.2569 33.7909,0.8198 51.771,47.5717 64.2522,87.81 -3.6161,-36.1708 -6.6336,-71.2982 -5.1402,-98.5622 9.7093,-2.8411 19.4183,2.8414 29.1277,10.7522 l -5.1402,-24.1925 35.9813,16.1284 -16.2774,-37.6331 c 54.9242,-1.2057 43.8982,5.2527 56.542,8.9605 l -10.2803,-24.1927 37.6946,18.8164 c -10.2975,-20.0201 -19.8755,-31.7572 -26.8935,-50.062 l 35.4604,-5.4914 c -15.4429,-16.1058 -22.8302,-24.4199 -37.0669,-40.8138 l 25.9299,-10.2593 -32.5545,-26.8806 25.7008,-15.2323 -20.5605,-3.5842 34.2677,-32.2567 -45.4049,-2.6881 54.8285,-58.2414 -63.3954,12.5444 5.1403,-42.1131 -35.1245,30.4648 16.8804,-83.8955 c -28.9936,36.1022 -36.1884,34.5794 -70.4814,73.5231 l 10.6445,-37.7547 -36.7162,32.6355 3.4267,-30.2054 -50.5449,36.7366 5.1401,-17.0241 -15.4205,16.1283 3.4267,-22.4005 -26.5574,26.8805 2.445,-23.4209 -12.7256,15.3567 -3.9184,-14.716 -14.9286,9.3399 c -4.492,-38.8275 -6.6559,-50.3614 -1.3154,-89.1891 -17.5273,44.4483 -29.9041,57.3612 -59.51,90.9811 l -9.4237,-17.0183 -11.7498,15.7365 -11.8688,-20.341 -17.8696,24.3069 c -14.1311,-18.5178 -22.3612,-29.8635 -27.904,-48.3811 2.7334,17.3551 4.7209,29.0135 0.7335,48.1259 -52.1652,-29.2616 -70.1259,-48.1259 -70.1259,-48.1259 0,0 8.3517,30.5315 12.128,48.2154 z"
       id="path4024"
       inkscape:connector-curvature="0"
       sodipodi:nodetypes="cccccccccccccccccsccccccccccccccccccccccccccccccccccccccccccccccccccccccccccccccccccc" />
    <path
       style="color:#000000;display:inline;overflow:visible;visibility:visible;fill:#ffffff;fill-opacity:1;fill-rule:nonzero;stroke:none;stroke-width:1px;marker:none;enable-background:accumulate"
       d="m 1495.2162,1161.0088 c 45.2667,-1.3399 91.122,-12.2107 135.7051,-2.4766 l -30.5598,-34.6986 c 17.4874,-8.2093 36.1977,-1.4791 54.4929,0.1778 l -16.1244,-25.907 c 41.4303,-18.6844 80.9068,-12.0098 121.3275,-17.5923 l -30.8631,-41.9161 c -40.548,12.2593 -79.3563,33.3843 -121.8615,35.6716 l 13.7717,27.627 c -14.6613,3.6275 -29.4343,6.4581 -44.7057,5.7293 l 19.6323,32.4356 z"
       id="path4032"
       inkscape:connector-curvature="0"
       sodipodi:nodetypes="cccccccccccc" />
    <path
       style="color:#000000;display:inline;overflow:visible;visibility:visible;fill:#ffffff;fill-opacity:1;fill-rule:nonzero;stroke:none;stroke-width:1px;marker:none;enable-background:accumulate"
       d="m 1716.7283,920.23711 c -7.297,22.2136 -48.4531,24.0763 -63.6038,19.561 30.5403,24.84999 29.4756,40.28969 -11.9895,42.68699 69.5377,44.7862 12.7124,38.009 1.504,49.3655 54.6,15.4343 30.1714,34.6427 20.4507,53.7643 62.7573,0.6568 42.2197,31.3081 44.8648,55.7199 5.3203,-11.4551 30.5956,-46.3295 32.1164,-7.4992 41.5103,-37.0462 91.5084,-60.9762 95.4784,3.8548 16.7252,-32.6147 33.4002,-46.399 32.1164,-7.4992 41.4398,-50.5941 78.6792,-32.3826 116.1393,-18.0828 9.8387,-15.2705 10.9851,-38.7304 42.8156,-33.2327 -4.463,-15.1358 6.2843,-25.5401 30.5553,-31.7186 -32.2523,-9.1431 -38.1963,-18.574 21.689,-28.7231 -45.5692,-0.9817 -88.0628,-2.993 -34.6002,-37.6044 -16.7727,-0.8375 -56.5677,28.0432 -38.0137,-56.47679 -28.8416,27.05779 -59.613,41.99179 -98.2031,-14.6874 -18.2628,28.3158 -49.9392,42.32759 -63.72,6.9589 -4.9531,15.0783 -25.4913,20.749 -42.9267,21.4367 -6.7423,-5.9894 -13.6962,-14.1245 -20.9529,-24.7828 -11.8605,22.3796 -29.6025,37.49379 -63.72,6.9589 z"
       id="path3549-3-7"
       inkscape:connector-curvature="0"
       sodipodi:nodetypes="cccccccccccccccccccc" />
    <flowRoot
       xml:space="preserve"
       id="flowRoot2987-4-9-3-0"
       style="font-style:normal;font-variant:normal;font-weight:normal;font-stretch:normal;font-size:12px;line-height:125%;font-family:'Rounded M+ 1c';-inkscape-font-specification:'Rounded M+ 1c, Medium';text-align:center;letter-spacing:0px;word-spacing:0px;text-anchor:middle;fill:#000000;fill-opacity:1;stroke:none"
       transform="matrix(1.0770452,0,0,1.2835583,1385.7088,638.66334)"><flowRegion
         id="flowRegion2989-5-4-5-1"><rect
           id="rect2991-7-9-6-4"
           width="602.40173"
           height="310.73996"
           x="120.55251"
           y="265.53046"
           style="font-style:normal;font-variant:normal;font-weight:normal;font-stretch:normal;font-family:'Rounded M+ 1c';-inkscape-font-specification:'Rounded M+ 1c, Medium';text-align:center;text-anchor:middle" /></flowRegion><flowPara
         style="font-size:45px;text-align:center;letter-spacing:1.5px;text-anchor:middle;stroke:#000000;stroke-width:1.10000002;stroke-miterlimit:4;stroke-dasharray:none;stroke-opacity:1"
         id="flowPara3030-8-7">キャロット!</flowPara></flowRoot>    <flowRoot
       xml:space="preserve"
       id="flowRoot2987-4-9-3-7-8-6-6-6-0-7-2"
       style="font-style:normal;font-variant:normal;font-weight:normal;font-stretch:normal;font-size:12px;line-height:125%;font-family:'Rounded M+ 1c';-inkscape-font-specification:'Rounded M+ 1c, Medium';text-align:center;letter-spacing:0px;word-spacing:0px;text-anchor:middle;display:inline;fill:#000000;fill-opacity:1;stroke:none"
       transform="translate(1555.0771,879.88604)"><flowRegion
         id="flowRegion2989-5-4-5-5-1-2-4-2-0-8-9"><rect
           id="rect2991-7-9-6-9-5-7-2-1-3-2-1"
           width="523.97241"
           height="258.26709"
           x="120.55251"
           y="265.53046"
           style="font-style:normal;font-variant:normal;font-weight:normal;font-stretch:normal;font-family:'Rounded M+ 1c';-inkscape-font-specification:'Rounded M+ 1c, Medium';text-align:center;text-anchor:middle" /></flowRegion><flowPara
         style="font-size:45px;text-align:center;text-anchor:middle"
         id="flowPara4244">ケイオサーの第7の書 「重力場」...</flowPara><flowPara
         style="font-size:45px;text-align:center;text-anchor:middle"
         id="flowPara4188">今すぐ</flowPara><flowPara
         style="font-size:45px;text-align:center;text-anchor:middle"
         id="flowPara4190">持ってきて!</flowPara></flowRoot>    <path
       style="fill:#ffffff;fill-opacity:1;stroke:none"
       d="m 1299.3835,2107.3463 c 46.1728,7.1531 63.9314,13.7949 55.6437,17.8825 18.9427,2.0437 26.0465,55.1807 8.2877,64.8883 -1.1839,1.0222 -9.4714,4.0875 -5.9197,4.5985 3.5517,0.511 24.8622,-1.0217 28.4139,1.0219 3.5517,2.0438 -31.9656,31.1668 -27.2301,32.1887 4.7359,1.0218 113.656,-18.3936 129.0467,-13.7952 15.391,4.5984 7.1036,16.3497 11.8394,16.8609 4.7353,0.5109 48.5405,-2.5546 54.4601,-2.0439 5.9193,0.511 16.5742,15.8388 22.494,16.3497 5.9196,0.511 33.1497,-6.6419 37.8854,-6.131 4.7358,0.511 2.3677,13.2843 8.2872,13.7948 5.9198,0.5113 31.9657,-10.7294 35.5174,-10.2185 3.5518,0.5111 16.5752,26.0579 22.4945,27.5905 5.9195,1.5329 43.8047,-28.1014 47.3566,-28.6122 3.5514,-0.511 26.0459,34.7436 30.7816,35.2543 4.736,0.5111 28.4141,-24.0141 31.9659,-23.5028 3.5516,0.5108 26.046,14.817 30.7816,15.8388 4.7355,1.0219 35.5174,-31.6777 40.253,-31.6777 4.736,0 44.9889,13.795 48.5408,16.3497 3.5514,2.5548 7.103,-13.2843 11.8389,-13.2843 4.7357,0 59.1959,9.1969 60.3797,8.686 1.1836,-0.511 -8.2876,-10.2186 -4.7356,-10.2186 3.5518,0 59.1955,12.7733 61.5636,10.2186 2.3675,-2.5546 120.759,12.7733 129.0463,10.7295 8.2877,-2.0436 -53.276,-41.8964 -47.3569,-44.9618 5.9197,-3.0657 27.2306,0.5107 28.4144,-1.022 1.1839,-1.5329 -13.023,-8.1748 -9.4717,-10.2187 3.5521,-2.0437 43.805,-10.2184 47.3567,-12.773 3.5519,-2.5549 -17.7586,-9.1971 -13.023,-10.7298 4.7357,-1.5329 74.5868,-11.2405 75.7708,-13.7952 1.1837,-2.5547 -35.5174,-14.8168 -30.7822,-18.3935 4.7357,-3.5765 17.759,-5.1092 16.5749,-7.664 -1.1839,-2.5547 -23.6783,-5.6203 -22.4941,-8.1749 1.184,-2.5547 13.0228,-15.3279 16.5746,-17.3717 3.5516,-2.0436 -24.8622,-1.0218 -24.8622,-3.0656 0,-2.0436 104.1844,-56.7136 101.8165,-72.0415 -36.7013,9.7078 -162.1962,27.0796 -201.265,22.9921 -39.0695,-4.0875 -23.6785,-29.6341 -29.598,-31.1668 -5.9193,-1.5329 -49.7245,8.686 -55.6442,5.1092 -5.9195,-3.5765 -8.287,-10.2184 -13.023,-10.2184 -4.7356,0 -31.9657,14.3056 -37.885,13.7952 -5.9197,-0.5113 -61.5636,-22.9921 -69.851,-23.5032 -8.2875,-0.5107 -40.2531,8.686 -47.3565,9.1968 -7.1036,0.5112 -13.023,-12.2623 -18.9427,-11.2403 -5.9198,1.0218 -43.805,10.2186 -49.724,9.1967 -5.9198,-1.0219 -10.6554,-5.1091 -15.3914,-4.0875 -4.7352,1.0218 -26.0459,5.1094 -26.0459,5.1094 -13.0695,2.5924 -24.4708,-5.1527 -22.4944,-3.0657 4.3055,4.5461 -55.3839,17.4789 -61.5636,17.8825 -5.9193,1.0217 -56.8278,-38.8307 -53.2761,-41.8962 3.5522,-3.0656 -53.2761,42.4075 -61.5636,43.9401 -8.2872,1.5326 -33.1495,-3.0655 -35.5171,-1.5326 -2.3681,1.5326 -9.4716,9.7075 -16.575,10.2184 -7.1034,0.5108 -23.6782,2.5546 -23.6782,2.5546 l 2.3678,3.0658 c 0,0 -49.7244,-8.1751 -55.6438,-11.2407 -5.9195,-3.0655 3.5516,13.2842 7.1033,17.3717 -21.3101,-4.0875 -84.0577,-12.7733 -88.793,-15.328 -4.7362,-2.5546 8.2871,9.197 15.3905,12.7733 -9.4714,-1.5328 -17.7588,-2.0437 -17.7588,-2.0437 l 27.23,12.2624 -8.2874,1.022 c 0,0 17.7586,5.6202 17.7586,8.1749 0,2.5545 -46.1725,5.6201 -46.1725,5.6201 0,0 18.9427,4.5983 14.207,7.153 -4.7357,2.5546 -16.5748,4.0874 -16.5748,4.0874 l -2.3678,6.6422 z"
       id="path5888"
       inkscape:connector-curvature="0"
       sodipodi:nodetypes="cccsccscccccccccccscscsccsscsccccccscsssscccccscsccsccccsccccccsccccc" />
    <flowRoot
       xml:space="preserve"
       id="flowRoot2987-4-9-3-7-8-6-6-6-0-7-2-6"
       style="font-size:45px;font-style:normal;font-variant:normal;font-weight:normal;font-stretch:normal;text-align:center;line-height:125%;letter-spacing:0px;word-spacing:0px;text-anchor:middle;fill:#000000;fill-opacity:1;stroke:none;display:inline;font-family:'Rounded M+ 1c';-inkscape-font-specification:'Rounded M+ 1c, Normal';writing-mode:lr;"
       transform="translate(1281.9919,1813.0962)"><flowRegion
         id="flowRegion2989-5-4-5-5-1-2-4-2-0-8-9-7"><rect
           id="rect2991-7-9-6-9-5-7-2-1-3-2-1-0"
           width="766.40009"
           height="109.2645"
           x="120.55251"
           y="265.53046"
           style="font-style:normal;font-variant:normal;font-weight:normal;font-stretch:normal;font-size:45px;line-height:125%;font-family:'Rounded M+ 1c';-inkscape-font-specification:'Rounded M+ 1c, Normal';text-align:center;writing-mode:lr-tb;text-anchor:middle" /></flowRegion><flowPara
         id="flowPara3403">あの大忙しのおばあさんカラスに</flowPara><flowPara
         id="flowPara3405">真のケイオサーの魔女を見せてやる!</flowPara></flowRoot>    <path
       style="color:#000000;fill:#ffffff;fill-opacity:1;fill-rule:nonzero;stroke:none;stroke-width:1px;marker:none;visibility:visible;display:inline;overflow:visible;enable-background:accumulate"
       d="m 1476.1891,2360.3093 c 58.7023,-40.2328 74.2517,-66.7852 83.6395,-84.5531 -18.192,-19.5453 -34.2979,-26.4643 -42.5827,-40.8563 31.517,-4.8173 59.7042,-4.3629 69.2765,1.3288 22.6858,-33.1454 -24.8003,-30.4847 -24.8003,-30.4847 0,0 -49.2813,4.066 -77.5084,12.5569 5.4898,31.6668 40.314,52.0029 45.4103,58.94 -10.9648,48.502 -45.6639,73.3026 -53.4349,83.0684 z"
       id="path5162"
       inkscape:connector-curvature="0"
       sodipodi:nodetypes="cccccccc" />
    <flowRoot
       xml:space="preserve"
       id="flowRoot2987-7-9-9-7-0-3-5-2-6"
       style="font-style:normal;font-variant:normal;font-weight:500;font-stretch:normal;font-size:48.00015445px;line-height:125%;font-family:'Rounded M+ 1c';-inkscape-font-specification:'Rounded M+ 1c, Medium';letter-spacing:0px;word-spacing:0px;fill:#ffffff;fill-opacity:1;stroke:#ffffff;stroke-width:0.99236238;stroke-miterlimit:4;stroke-dasharray:none;stroke-opacity:1;filter:url(#filter4375-4-1-7-3-7);text-anchor:start;text-align:start;writing-mode:lr;"
       transform="matrix(0.69413547,-0.3960575,-0.18345695,1.6511803,1948.8802,2819.5754)"
       inkscape:transform-center-x="192.72092"
       inkscape:transform-center-y="-136.44814"><flowRegion
         id="flowRegion2989-4-5-8-7-41-7-68-63-1"
         style="stroke-width:5.40286207"><rect
           id="rect2991-45-1-3-3-8-0-3-6-32"
           width="319.66232"
           height="53.089447"
           x="120.55251"
           y="265.53046"
           style="font-style:normal;font-variant:normal;font-weight:500;font-stretch:normal;font-family:'Rounded M+ 1c';-inkscape-font-specification:'Rounded M+ 1c, Medium';fill:#ffffff;fill-opacity:1;stroke:#ffffff;stroke-width:0.99236238;stroke-miterlimit:4;stroke-dasharray:none;stroke-opacity:1;font-size:48.00015445px;text-anchor:start;text-align:start;writing-mode:lr;line-height:125%;" /></flowRegion><flowPara
         id="flowPara3411">タッ</flowPara></flowRoot>    <flowRoot
       xml:space="preserve"
       id="flowRoot2987-7-9-9-7-0-3-5-2-6-5"
       style="font-style:normal;font-variant:normal;font-weight:500;font-stretch:normal;font-size:48.00035476px;line-height:125%;font-family:'Rounded M+ 1c';-inkscape-font-specification:'Rounded M+ 1c, Medium';letter-spacing:0px;word-spacing:0px;fill:#ffffff;fill-opacity:1;stroke:#ffffff;stroke-width:0.99236238;stroke-miterlimit:4;stroke-dasharray:none;stroke-opacity:1;filter:url(#filter4375-4-1-7-3-7-6);text-anchor:start;text-align:start;writing-mode:lr;"
       transform="matrix(0.74738538,-0.36226504,-0.23031168,1.5278671,2226.8064,2821.3226)"
       inkscape:transform-center-x="202.28223"
       inkscape:transform-center-y="-127.60543"><flowRegion
         id="flowRegion2989-4-5-8-7-41-7-68-63-1-5"
         style="stroke-width:5.40286207"><rect
           id="rect2991-45-1-3-3-8-0-3-6-32-1"
           width="319.66232"
           height="53.089447"
           x="120.55251"
           y="265.53046"
           style="font-style:normal;font-variant:normal;font-weight:500;font-stretch:normal;font-family:'Rounded M+ 1c';-inkscape-font-specification:'Rounded M+ 1c, Medium';fill:#ffffff;fill-opacity:1;stroke:#ffffff;stroke-width:0.99236238;stroke-miterlimit:4;stroke-dasharray:none;stroke-opacity:1;font-size:48.00035476px;text-anchor:start;text-align:start;writing-mode:lr;line-height:125%;" /></flowRegion><flowPara
         id="flowPara3413">タッ</flowPara></flowRoot>  </g>
</svg>
