<?xml version="1.0" encoding="UTF-8" standalone="no"?>
<!-- Created with Inkscape (http://www.inkscape.org/) -->

<svg
   xmlns:dc="http://purl.org/dc/elements/1.1/"
   xmlns:cc="http://creativecommons.org/ns#"
   xmlns:rdf="http://www.w3.org/1999/02/22-rdf-syntax-ns#"
   xmlns:svg="http://www.w3.org/2000/svg"
   xmlns="http://www.w3.org/2000/svg"
   xmlns:xlink="http://www.w3.org/1999/xlink"
   xmlns:sodipodi="http://sodipodi.sourceforge.net/DTD/sodipodi-0.dtd"
   xmlns:inkscape="http://www.inkscape.org/namespaces/inkscape"
   id="svg2"
   version="1.1"
   inkscape:version="0.91 r"
   width="2481"
   height="3503"
   sodipodi:docname="Pepper-and-Carrot_by-David-Revoy_E12P03.svg">
  <metadata
     id="metadata8">
    <rdf:RDF>
      <cc:Work
         rdf:about="">
        <dc:format>image/svg+xml</dc:format>
        <dc:type
           rdf:resource="http://purl.org/dc/dcmitype/StillImage" />
        <dc:title />
      </cc:Work>
    </rdf:RDF>
  </metadata>
  <defs
     id="defs6">
    <filter
       style="color-interpolation-filters:sRGB"
       id="filter4375-4-1-7-3-7"
       inkscape:label="deevad outline effect">
      <feFlood
         id="feFlood4377-7-9-2-4-1"
         flood-opacity="1"
         flood-color="rgb(60,100,48)"
         result="flood" />
      <feComposite
         id="feComposite4379-3-8-5-4-75"
         in2="SourceGraphic"
         in="flood"
         operator="in"
         result="composite1" />
      <feMorphology
         id="feMorphology4393-1-0-4-5-8"
         operator="dilate"
         radius="4"
         result="result3" />
      <feComposite
         id="feComposite4385-9-5-2-1-5"
         in2="result3"
         in="SourceGraphic"
         operator="over"
         result="composite2" />
    </filter>
    <filter
       style="color-interpolation-filters:sRGB"
       id="filter4375-4-1-7-3-7-6"
       inkscape:label="deevad outline effect">
      <feFlood
         id="feFlood4377-7-9-2-4-1-8"
         flood-opacity="1"
         flood-color="rgb(60,100,48)"
         result="flood" />
      <feComposite
         id="feComposite4379-3-8-5-4-75-5"
         in2="SourceGraphic"
         in="flood"
         operator="in"
         result="composite1" />
      <feMorphology
         id="feMorphology4393-1-0-4-5-8-4"
         operator="dilate"
         radius="4"
         result="result3" />
      <feComposite
         id="feComposite4385-9-5-2-1-5-1"
         in2="result3"
         in="SourceGraphic"
         operator="over"
         result="composite2" />
    </filter>
  </defs>
  <sodipodi:namedview
     pagecolor="#ffffff"
     bordercolor="#666666"
     borderopacity="1"
     objecttolerance="10"
     gridtolerance="10"
     guidetolerance="10"
     inkscape:pageopacity="0"
     inkscape:pageshadow="2"
     inkscape:window-width="1920"
     inkscape:window-height="1017"
     id="namedview4"
     showgrid="false"
     inkscape:zoom="0.46000001"
     inkscape:cx="1209.7499"
     inkscape:cy="1737.5061"
     inkscape:window-x="-8"
     inkscape:window-y="-8"
     inkscape:window-maximized="1"
     inkscape:current-layer="layer1" />
  <g
     inkscape:groupmode="layer"
     id="layer2"
     inkscape:label="artwork"
     sodipodi:insensitive="true">
    <image
       sodipodi:absref="/home/deevad/peppercarrot/webcomics/ep12_Autumn-Clearout/lang/ja/../gfx_Pepper-and-Carrot_by-David-Revoy_E12P03.png"
       xlink:href="../gfx_Pepper-and-Carrot_by-David-Revoy_E12P03.png"
       y="0"
       x="0"
       id="image10"
       height="3503"
       width="2481" />
  </g>
  <g
     inkscape:groupmode="layer"
     id="layer3"
     inkscape:label="speechbubbles" />
  <g
     inkscape:groupmode="layer"
     id="layer1"
     inkscape:label="txt">
    <path
       style="color:#000000;display:inline;overflow:visible;visibility:visible;fill:#ffffff;fill-opacity:1;fill-rule:nonzero;stroke:none;stroke-width:1px;marker:none;enable-background:accumulate"
       d="m 360.65741,1428.9168 c 3.96899,-2.1762 19.79333,-6.9821 19.79333,-6.9821 0.55874,-0.5426 31.82703,-6.6724 33.89724,-3.2539 23.50142,-1.8382 18.51495,16.9819 16.90818,17.9577 23.09413,3.5551 36.75984,-0.6117 56.56622,-7.1964 -18.01666,1.9167 -27.40814,2.7487 -39.91218,-3.6394 -9.20058,-5.3807 -7.73265,-12.4453 -4.16316,-19.8417 -16.63434,-0.4326 -32.65372,-1.9056 -38.35236,-20.837 l -3.29059,-6.528 c -65.32627,-16.3385 -79.16215,32.6762 -41.44668,50.3208 z"
       id="path4448"
       inkscape:connector-curvature="0"
       sodipodi:nodetypes="cccccccccc" />
    <path
       style="display:inline;fill:#ffffff;fill-rule:evenodd;stroke:none;stroke-width:1px;stroke-linecap:butt;stroke-linejoin:miter;stroke-opacity:1"
       d="m 2316.0844,247.99065 c 0.1878,54.62206 -8.6225,50.12839 -30.1621,74.19447 -22.0507,24.63688 -30.9565,28.6876 -65.2939,38.26595 -28.4318,7.93073 -46.1361,-4.95483 -66.4933,2.26276 -20.3572,7.21723 -44.3043,29.36636 -72.5133,30.7464 -28.2089,1.38038 -54.0032,-34.65211 -72.0789,-35.51748 -18.0757,-0.86529 -46.4487,25.23497 -60.5078,24.56195 -14.0588,-0.673 -43.9847,-23.49038 -60.0519,-24.25952 -16.0674,-0.76925 -33.6835,24.54017 -61.7102,20.46784 -28.0268,-4.07244 -47.2591,-28.24441 -65.4257,-26.38338 -18.167,1.86089 -31.6301,26.40599 -63.5827,19.41489 -31.9526,-6.99087 -54.473,-25.62959 -66.7056,-20.75377 -12.2326,4.87569 -45.3017,28.30489 -79.1714,18.49148 -33.8702,-9.81352 -44.8713,-40.45449 -62.9472,-41.31987 -18.0755,-0.86528 -40.393,-13.58306 -50.2966,-32.49108 -13.1946,-25.1923 25.1339,-28.28915 13.9594,-55.70446 -9.6698,-23.72455 -12.489,-21.38139 -6.9608,-49.26594 4.2484,-21.42867 28.6796,-29.11953 50.9544,-33.51447 22.2746,-4.39504 17.2145,-31.30597 43.415,-32.78248 26.2005,-1.47639 39.564,19.68197 67.6818,21.02798 28.1177,1.34604 55.5178,-35.71005 79.4366,-29.10368 23.9189,6.60635 49.9337,22.87873 79.753,20.98778 48.1609,-3.054 52.0643,-21.46541 80.2733,-22.84568 28.2087,-1.38028 50.3863,25.72272 72.4789,26.78037 22.0926,1.05764 43.2537,-29.30663 75.2104,-22.34844 31.8368,6.93211 20.6186,11.12593 59.7101,18.047 27.873,4.93484 17.8265,-20.24643 72.4984,-18.70814 32.1535,0.90469 32.1594,22.4955 59.4564,35.55297 27.9225,13.35655 54.1221,-15.5594 82.9677,-2.00483 35.6053,16.73088 53.2126,66.21184 46.106,96.20138 z"
       id="path5057"
       inkscape:connector-curvature="0"
       sodipodi:nodetypes="cssssssssssssssssssssssssssssc" />
    <flowRoot
       xml:space="preserve"
       id="flowRoot2987-4-9-3-7-8-6-6-6-0-7"
       style="font-style:normal;font-variant:normal;font-weight:normal;font-stretch:normal;font-size:12px;line-height:125%;font-family:'Rounded M+ 1c';-inkscape-font-specification:'Rounded M+ 1c, Medium';text-align:center;letter-spacing:0px;word-spacing:0px;text-anchor:middle;display:inline;fill:#000000;fill-opacity:1;stroke:none"
       transform="translate(1381.4889,-92.80137)"><flowRegion
         id="flowRegion2989-5-4-5-5-1-2-4-2-0-8"><rect
           id="rect2991-7-9-6-9-5-7-2-1-3-2"
           width="723.97241"
           height="195.76709"
           x="120.55251"
           y="265.53046"
           style="font-style:normal;font-variant:normal;font-weight:normal;font-stretch:normal;font-family:'Rounded M+ 1c';-inkscape-font-specification:'Rounded M+ 1c, Medium';text-align:center;text-anchor:middle" /></flowRegion><flowPara
         style="font-size:45px;text-align:center;text-anchor:middle"
         id="flowPara3595">「それに魔法は絶対に使うな 真のケイオサーの魔女は魔法を雑用に使うものではない」</flowPara></flowRoot>    <path
       style="color:#000000;display:inline;overflow:visible;visibility:visible;fill:#ffffff;fill-opacity:1;fill-rule:nonzero;stroke:none;stroke-width:1px;marker:none;enable-background:accumulate"
       d="m 1462.5393,274.6025 c -10.4609,16.35541 -25.0337,33.42914 -28.9405,35.32216 -3.9067,1.89302 -28.7657,-5.26653 -32.747,-0.33374 -3.9811,4.93275 -1.9008,20.30843 -5.1177,22.68638 -3.2167,2.37784 -22.3503,0.27172 -25.2591,4.41188 -2.909,4.14015 -7.9986,30.45358 -10.7304,32.1415 -2.7319,1.68784 -17.4639,10.91977 -27.7476,24.82283 29.184,-16.59894 36.2613,-14.20302 40.2424,-19.13578 3.9813,-4.93277 5.2203,-22.09887 10.0968,-25.37203 4.8763,-3.27314 23.32,-1.65175 27.1985,-7.17202 3.8785,-5.52016 3.6914,-16.9891 3.6914,-16.9891 5.4177,3.29122 36.1047,16.09163 60.3277,-8.11569 24.2232,-24.20734 -11.0145,-42.26639 -11.0145,-42.26639 z"
       id="path5050"
       inkscape:connector-curvature="0" />
    <path
       style="color:#000000;display:inline;overflow:visible;visibility:visible;fill:#ffffff;fill-opacity:1;fill-rule:nonzero;stroke:none;stroke-width:1px;marker:none;enable-background:accumulate"
       d="m 293.32027,1247.2041 c -0.77039,10.7691 4.89629,46.7566 24.78717,17.1486 12.45031,53.8925 53.08201,45.6317 120.94796,25.6267 -31.92061,25.5248 -35.74997,63.3139 -4.99858,70.2726 -11.17305,10.176 -6.66771,22.0327 11.82711,35.3894 -32.86526,-4.2774 -42.59918,0.9564 5.46795,29.9566 -40.73399,-15.3101 -79.27025,-28.7424 -48.56255,16.9831 -15.22047,-5.2656 -36.58657,-41.7222 -60.5627,30.4356 -12.56042,-31.1777 -32.60894,-53.6181 -93.7796,-23.228 0.20961,-21.5567 -8.2365,-39.5401 -52.96754,-27.8686 4.16256,-19.8183 -31.33621,-35.7654 -46.88009,-37.6038 38.8549,-8.5199 45.30065,-20.873 9.80711,-37.3588 82.83546,-10.2422 29.39921,-25.0426 24.91988,-37.812 55.61657,7.2754 43.19267,-16.2319 43.73673,-34.5048 55.76615,21.6245 52.25981,-9.4184 66.25715,-27.4366 z"
       id="path3549-3"
       inkscape:connector-curvature="0"
       sodipodi:nodetypes="ccccccccccccccc" />
    <flowRoot
       transform="matrix(0.90617713,0,-0.22078013,1.6225798,-90.595202,884.77795)"
       style="font-style:normal;font-variant:normal;font-weight:normal;font-stretch:normal;font-size:12px;line-height:125%;font-family:'Rounded M+ 1c';-inkscape-font-specification:'Rounded M+ 1c, Medium';text-align:center;letter-spacing:0px;word-spacing:0px;text-anchor:middle;fill:#000000;fill-opacity:1;stroke:#000000;stroke-width:2.47324347;stroke-miterlimit:4;stroke-dasharray:none;stroke-opacity:1"
       id="flowRoot4212-3-7-8-6"
       xml:space="preserve"><flowRegion
         id="flowRegion4214-6-7-8-3"><rect
           style="font-style:normal;font-variant:normal;font-weight:normal;font-stretch:normal;font-family:'Rounded M+ 1c';-inkscape-font-specification:'Rounded M+ 1c, Medium';text-align:center;text-anchor:middle;stroke:#000000;stroke-width:2.47324347;stroke-miterlimit:4;stroke-dasharray:none;stroke-opacity:1"
           y="265.53046"
           x="120.55251"
           height="355.03918"
           width="798.1947"
           id="rect4216-4-0-26-5" /></flowRegion><flowPara
         style="font-size:48px;text-align:center;letter-spacing:5.20896292px;text-anchor:middle;stroke:#000000;stroke-width:2.47324347;stroke-miterlimit:4;stroke-dasharray:none;stroke-opacity:1"
         id="flowPara4358-7-1">ぐぅぅ！</flowPara></flowRoot>    <path
       style="color:#000000;display:inline;overflow:visible;visibility:visible;fill:#ffffff;fill-opacity:1;fill-rule:nonzero;stroke:none;stroke-width:1px;marker:none;enable-background:accumulate"
       d="m 1798.8077,1063.9682 -55.1114,-17.6058 13.9228,31.612 c -25.6726,1.054 -39.0483,-5.0425 -57.2639,-8.3248 l 28.6318,24.9744 -4.7719,6.9375 c 4.6485,4.0563 11.6627,6.8229 13.3615,12.4872 -12.9686,3.5299 -22.2931,3.5276 -33.0183,4.8829 10.0916,4.6911 18.4937,10.1192 24.4287,16.623 l -34.3582,11.0997 31.4932,9.7107 c -23.6883,15.9684 -53.4611,26.0392 -81.122,38.1572 l 81.4801,-4.4691 -20.1038,26.0385 c 11.4429,-2.3337 17.6735,-5.6968 35.0181,-9.7759 -10.795,6.7972 -43.6898,30.6095 -40.4367,28.6845 3.8176,-0.6938 46.1629,-9.9537 46.1629,-9.9537 0,0 -28.6319,19.4248 -24.8143,19.4248 3.8176,0 35.3128,-4.8562 35.3128,-4.8562 l -10.4985,18.7309 41.0391,-10.4062 -17.1791,23.2901 c 10.6774,-1.3701 17.5664,-1.8485 13.7702,6.2499 38.1448,-15.4792 21.2202,-0.076 -11.968,37.1555 21.7707,-11.0759 34.4315,-22.3054 65.5585,-34.2808 7.5022,10.6468 8.5623,25.4383 5.1736,39.734 10.2183,-10.8729 18.6274,-23.752 38.1759,-24.2808 7.8621,2.4261 6.1801,10.143 6.681,16.6497 l 28.6317,-20.8121 0,21.5059 c 13.2156,-16.6485 24.7243,-21.0466 37.2217,-24.9746 10.3216,5.285 20.6516,11.8867 19.0804,33.89 15.2729,-18.7084 32.0201,-26.7881 45.8188,-21.4026 8.2074,8.6603 10.1712,18.5791 12.4071,28.4431 2.3423,-9.3042 2.5751,-19.9077 9.5442,-26.362 4.3443,6.1471 3.3796,14.2562 2.8632,22.1996 6.7366,-15.1584 16.7099,-22.5421 26.7229,-29.8306 15.1198,6.0416 16.7333,16.8478 20.0425,27.0557 5.1824,-11.93 6.6461,-14.0495 19.0878,-24.9745 37.6447,0.6347 57.6753,36.8319 71.58,67.9861 -4.0285,-28.0049 -7.3902,-55.2021 -5.7265,-76.311 10.8166,-2.1997 21.633,2.2 32.4497,8.3249 l -5.7265,-18.731 40.0849,12.4873 -18.1338,-29.137 c 61.1882,-0.9336 48.9046,4.0668 62.9905,6.9375 l -11.4528,-18.731 41.9937,14.5685 c -11.4721,-15.5004 -22.1423,-24.5877 -29.9607,-38.7602 l 39.5045,-4.2516 c -17.204,-12.4698 -25.4339,-18.9068 -41.2942,-31.5997 l 28.8871,-7.9432 -36.2672,-20.8121 28.6319,-11.7935 -22.9054,-2.775 38.1758,-24.9745 -50.5832,-2.0812 61.0816,-45.0929 -70.6255,9.7124 5.7265,-32.6057 -39.1304,23.5871 18.8056,-64.9555 c -32.3003,27.952 -40.3156,26.7728 -78.5196,56.9246 l 11.8585,-29.2312 -40.9037,25.2678 3.8176,-23.3863 -56.3095,28.4431 5.7265,-13.1809 -17.1792,12.4872 3.8174,-17.3434 -29.5862,20.8121 2.7239,-18.1335 -14.1768,11.8898 -4.3655,-11.3937 -16.6311,7.2313 c -5.0043,-30.0619 -7.4149,-38.9919 -1.4654,-69.05386 -19.5263,34.41376 -33.3145,44.41146 -66.297,70.44136 l -10.4984,-13.1763 -13.0899,12.1839 -13.2223,-15.7489 -19.9076,18.8194 c -15.7427,-14.3372 -24.9116,-23.1215 -31.0864,-37.4586 3.045,13.4369 5.2593,22.4634 0.8172,37.261 -58.1146,-22.6555 -78.1236,-37.261 -78.1236,-37.261 0,0 9.3042,23.6387 13.5111,37.3303 z"
       id="path4024"
       inkscape:connector-curvature="0"
       sodipodi:nodetypes="cccccccccccccccccsccccccccccccccccccccccccccccccccccccccccccccccccccccccccccccccccccc" />
    <path
       style="color:#000000;display:inline;overflow:visible;visibility:visible;fill:#ffffff;fill-opacity:1;fill-rule:nonzero;stroke:none;stroke-width:1px;marker:none;enable-background:accumulate"
       d="m 1495.2162,1161.0088 c 45.2667,-1.3399 91.122,-12.2107 135.7051,-2.4766 l -30.5598,-34.6986 c 17.4874,-8.2093 36.1977,-1.4791 54.4929,0.1778 l -16.1244,-25.907 c 41.4303,-18.6844 80.9068,-12.0098 121.3275,-17.5923 l -30.8631,-41.9161 c -40.548,12.2593 -79.3563,33.3843 -121.8615,35.6716 l 13.7717,27.627 c -14.6613,3.6275 -29.4343,6.4581 -44.7057,5.7293 l 19.6323,32.4356 z"
       id="path4032"
       inkscape:connector-curvature="0"
       sodipodi:nodetypes="cccccccccccc" />
    <path
       style="color:#000000;display:inline;overflow:visible;visibility:visible;fill:#ffffff;fill-opacity:1;fill-rule:nonzero;stroke:none;stroke-width:1px;marker:none;enable-background:accumulate"
       d="m 1716.7283,920.23711 c -7.297,22.2136 -48.4531,24.0763 -63.6038,19.561 30.5403,24.84999 29.4756,40.28969 -11.9895,42.68699 69.5377,44.7862 12.7124,38.009 1.504,49.3655 54.6,15.4343 30.1714,34.6427 20.4507,53.7643 62.7573,0.6568 42.2197,31.3081 44.8648,55.7199 5.3203,-11.4551 30.5956,-46.3295 32.1164,-7.4992 41.5103,-37.0462 91.5084,-60.9762 95.4784,3.8548 16.7252,-32.6147 33.4002,-46.399 32.1164,-7.4992 41.4398,-50.5941 78.6792,-32.3826 116.1393,-18.0828 9.8387,-15.2705 10.9851,-38.7304 42.8156,-33.2327 -4.463,-15.1358 6.2843,-25.5401 30.5553,-31.7186 -32.2523,-9.1431 -38.1963,-18.574 21.689,-28.7231 -45.5692,-0.9817 -88.0628,-2.993 -34.6002,-37.6044 -16.7727,-0.8375 -56.5677,28.0432 -38.0137,-56.47679 -28.8416,27.05779 -59.613,41.99179 -98.2031,-14.6874 -18.2628,28.3158 -49.9392,42.32759 -63.72,6.9589 -4.9531,15.0783 -25.4913,20.749 -42.9267,21.4367 -6.7423,-5.9894 -13.6962,-14.1245 -20.9529,-24.7828 -11.8605,22.3796 -29.6025,37.49379 -63.72,6.9589 z"
       id="path3549-3-7"
       inkscape:connector-curvature="0"
       sodipodi:nodetypes="cccccccccccccccccccc" />
    <flowRoot
       xml:space="preserve"
       id="flowRoot2987-4-9-3-0"
       style="font-style:normal;font-variant:normal;font-weight:normal;font-stretch:normal;font-size:12px;line-height:125%;font-family:'Rounded M+ 1c';-inkscape-font-specification:'Rounded M+ 1c, Medium';text-align:center;letter-spacing:0px;word-spacing:0px;text-anchor:middle;fill:#000000;fill-opacity:1;stroke:none"
       transform="matrix(1.0770452,0,0,1.2835583,1385.7088,638.66334)"><flowRegion
         id="flowRegion2989-5-4-5-1"><rect
           id="rect2991-7-9-6-4"
           width="602.40173"
           height="310.73996"
           x="120.55251"
           y="265.53046"
           style="font-style:normal;font-variant:normal;font-weight:normal;font-stretch:normal;font-family:'Rounded M+ 1c';-inkscape-font-specification:'Rounded M+ 1c, Medium';text-align:center;text-anchor:middle" /></flowRegion><flowPara
         style="font-size:45px;text-align:center;letter-spacing:1.5px;text-anchor:middle;stroke:#000000;stroke-width:1.10000002;stroke-miterlimit:4;stroke-dasharray:none;stroke-opacity:1"
         id="flowPara3030-8-7">キャロット!</flowPara></flowRoot>    <flowRoot
       xml:space="preserve"
       id="flowRoot2987-4-9-3-7-8-6-6-6-0-7-2"
       style="font-style:normal;font-variant:normal;font-weight:normal;font-stretch:normal;font-size:12px;line-height:125%;font-family:'Rounded M+ 1c';-inkscape-font-specification:'Rounded M+ 1c, Medium';text-align:center;letter-spacing:0px;word-spacing:0px;text-anchor:middle;display:inline;fill:#000000;fill-opacity:1;stroke:none"
       transform="translate(1629.0706,839.52983)"><flowRegion
         id="flowRegion2989-5-4-5-5-1-2-4-2-0-8-9"><rect
           id="rect2991-7-9-6-9-5-7-2-1-3-2-1"
           width="526.47241"
           height="188.26709"
           x="120.55251"
           y="265.53046"
           style="font-style:normal;font-variant:normal;font-weight:normal;font-stretch:normal;font-family:'Rounded M+ 1c';-inkscape-font-specification:'Rounded M+ 1c, Medium';text-align:center;text-anchor:middle" /></flowRegion><flowPara
         style="font-size:45px;text-align:center;text-anchor:middle"
         id="flowPara4244">ケイオサーの第7の書 「重力場」...今すぐ持ってきて!</flowPara></flowRoot>    <path
       style="fill:#ffffff;fill-opacity:1;stroke:none"
       d="m 1299.3835,2107.3463 c 46.1728,7.1531 63.9314,13.7949 55.6437,17.8825 18.9427,2.0437 26.0465,55.1807 8.2877,64.8883 -1.1839,1.0222 -9.4714,4.0875 -5.9197,4.5985 3.5517,0.511 24.8622,-1.0217 28.4139,1.0219 3.5517,2.0438 -31.9656,31.1668 -27.2301,32.1887 4.7359,1.0218 113.656,-18.3936 129.0467,-13.7952 15.391,4.5984 7.1036,16.3497 11.8394,16.8609 4.7353,0.5109 48.5405,-2.5546 54.4601,-2.0439 5.9193,0.511 16.5742,15.8388 22.494,16.3497 5.9196,0.511 33.1497,-6.6419 37.8854,-6.131 4.7358,0.511 2.3677,13.2843 8.2872,13.7948 5.9198,0.5113 31.9657,-10.7294 35.5174,-10.2185 3.5518,0.5111 16.5752,26.0579 22.4945,27.5905 5.9195,1.5329 43.8047,-28.1014 47.3566,-28.6122 3.5514,-0.511 26.0459,34.7436 30.7816,35.2543 4.736,0.5111 28.4141,-24.0141 31.9659,-23.5028 3.5516,0.5108 26.046,14.817 30.7816,15.8388 4.7355,1.0219 35.5174,-31.6777 40.253,-31.6777 4.736,0 44.9889,13.795 48.5408,16.3497 3.5514,2.5548 7.103,-13.2843 11.8389,-13.2843 4.7357,0 59.1959,9.1969 60.3797,8.686 1.1836,-0.511 -8.2876,-10.2186 -4.7356,-10.2186 3.5518,0 59.1955,12.7733 61.5636,10.2186 2.3675,-2.5546 120.759,12.7733 129.0463,10.7295 8.2877,-2.0436 -53.276,-41.8964 -47.3569,-44.9618 5.9197,-3.0657 27.2306,0.5107 28.4144,-1.022 1.1839,-1.5329 -13.023,-8.1748 -9.4717,-10.2187 3.5521,-2.0437 43.805,-10.2184 47.3567,-12.773 3.5519,-2.5549 -17.7586,-9.1971 -13.023,-10.7298 4.7357,-1.5329 74.5868,-11.2405 75.7708,-13.7952 1.1837,-2.5547 -35.5174,-14.8168 -30.7822,-18.3935 4.7357,-3.5765 17.759,-5.1092 16.5749,-7.664 -1.1839,-2.5547 -23.6783,-5.6203 -22.4941,-8.1749 1.184,-2.5547 13.0228,-15.3279 16.5746,-17.3717 3.5516,-2.0436 -24.8622,-1.0218 -24.8622,-3.0656 0,-2.0436 104.1844,-56.7136 101.8165,-72.0415 -36.7013,9.7078 -162.1962,27.0796 -201.265,22.9921 -39.0695,-4.0875 -23.6785,-29.6341 -29.598,-31.1668 -5.9193,-1.5329 -49.7245,8.686 -55.6442,5.1092 -5.9195,-3.5765 -8.287,-10.2184 -13.023,-10.2184 -4.7356,0 -31.9657,14.3056 -37.885,13.7952 -5.9197,-0.5113 -61.5636,-22.9921 -69.851,-23.5032 -8.2875,-0.5107 -40.2531,8.686 -47.3565,9.1968 -7.1036,0.5112 -13.023,-12.2623 -18.9427,-11.2403 -5.9198,1.0218 -43.805,10.2186 -49.724,9.1967 -5.9198,-1.0219 -10.6554,-5.1091 -15.3914,-4.0875 -4.7352,1.0218 -26.0459,5.1094 -26.0459,5.1094 -13.0695,2.5924 -24.4708,-5.1527 -22.4944,-3.0657 4.3055,4.5461 -55.3839,17.4789 -61.5636,17.8825 -5.9193,1.0217 -56.8278,-38.8307 -53.2761,-41.8962 3.5522,-3.0656 -53.2761,42.4075 -61.5636,43.9401 -8.2872,1.5326 -33.1495,-3.0655 -35.5171,-1.5326 -2.3681,1.5326 -9.4716,9.7075 -16.575,10.2184 -7.1034,0.5108 -23.6782,2.5546 -23.6782,2.5546 l 2.3678,3.0658 c 0,0 -49.7244,-8.1751 -55.6438,-11.2407 -5.9195,-3.0655 3.5516,13.2842 7.1033,17.3717 -21.3101,-4.0875 -84.0577,-12.7733 -88.793,-15.328 -4.7362,-2.5546 8.2871,9.197 15.3905,12.7733 -9.4714,-1.5328 -17.7588,-2.0437 -17.7588,-2.0437 l 27.23,12.2624 -8.2874,1.022 c 0,0 17.7586,5.6202 17.7586,8.1749 0,2.5545 -46.1725,5.6201 -46.1725,5.6201 0,0 18.9427,4.5983 14.207,7.153 -4.7357,2.5546 -16.5748,4.0874 -16.5748,4.0874 l -2.3678,6.6422 z"
       id="path5888"
       inkscape:connector-curvature="0"
       sodipodi:nodetypes="cccsccscccccccccccscscsccsscsccccccscsssscccccscsccsccccsccccccsccccc" />
    <flowRoot
       xml:space="preserve"
       id="flowRoot2987-4-9-3-7-8-6-6-6-0-7-2-6"
       style="font-size:45px;font-style:normal;font-variant:normal;font-weight:normal;font-stretch:normal;text-align:center;line-height:125%;letter-spacing:0px;word-spacing:0px;text-anchor:middle;fill:#000000;fill-opacity:1;stroke:none;display:inline;font-family:'Rounded M+ 1c';-inkscape-font-specification:'Rounded M+ 1c, Normal';writing-mode:lr;"
       transform="translate(1281.9919,1813.0962)"><flowRegion
         id="flowRegion2989-5-4-5-5-1-2-4-2-0-8-9-7"><rect
           id="rect2991-7-9-6-9-5-7-2-1-3-2-1-0"
           width="766.40009"
           height="109.2645"
           x="120.55251"
           y="265.53046"
           style="font-style:normal;font-variant:normal;font-weight:normal;font-stretch:normal;font-size:45px;line-height:125%;font-family:'Rounded M+ 1c';-inkscape-font-specification:'Rounded M+ 1c, Normal';text-align:center;writing-mode:lr-tb;text-anchor:middle" /></flowRegion><flowPara
         id="flowPara3403">あの大忙しのおばあさんカラスに</flowPara><flowPara
         id="flowPara3405">真のケイオサーの魔女を見せてやる!</flowPara></flowRoot>    <path
       style="color:#000000;fill:#ffffff;fill-opacity:1;fill-rule:nonzero;stroke:none;stroke-width:1px;marker:none;visibility:visible;display:inline;overflow:visible;enable-background:accumulate"
       d="m 1476.1891,2360.3093 c 58.7023,-40.2328 74.2517,-66.7852 83.6395,-84.5531 -18.192,-19.5453 -34.2979,-26.4643 -42.5827,-40.8563 31.517,-4.8173 59.7042,-4.3629 69.2765,1.3288 22.6858,-33.1454 -24.8003,-30.4847 -24.8003,-30.4847 0,0 -49.2813,4.066 -77.5084,12.5569 5.4898,31.6668 40.314,52.0029 45.4103,58.94 -10.9648,48.502 -45.6639,73.3026 -53.4349,83.0684 z"
       id="path5162"
       inkscape:connector-curvature="0"
       sodipodi:nodetypes="cccccccc" />
    <flowRoot
       xml:space="preserve"
       id="flowRoot2987-7-9-9-7-0-3-5-2-6"
       style="font-style:normal;font-variant:normal;font-weight:500;font-stretch:normal;font-size:48.00015445px;line-height:125%;font-family:'Rounded M+ 1c';-inkscape-font-specification:'Rounded M+ 1c, Medium';letter-spacing:0px;word-spacing:0px;fill:#ffffff;fill-opacity:1;stroke:#ffffff;stroke-width:0.99236238;stroke-miterlimit:4;stroke-dasharray:none;stroke-opacity:1;filter:url(#filter4375-4-1-7-3-7);text-anchor:start;text-align:start;writing-mode:lr;"
       transform="matrix(0.69413547,-0.3960575,-0.18345695,1.6511803,1948.8802,2819.5754)"
       inkscape:transform-center-x="192.72092"
       inkscape:transform-center-y="-136.44814"><flowRegion
         id="flowRegion2989-4-5-8-7-41-7-68-63-1"
         style="stroke-width:5.40286207"><rect
           id="rect2991-45-1-3-3-8-0-3-6-32"
           width="319.66232"
           height="53.089447"
           x="120.55251"
           y="265.53046"
           style="font-style:normal;font-variant:normal;font-weight:500;font-stretch:normal;font-family:'Rounded M+ 1c';-inkscape-font-specification:'Rounded M+ 1c, Medium';fill:#ffffff;fill-opacity:1;stroke:#ffffff;stroke-width:0.99236238;stroke-miterlimit:4;stroke-dasharray:none;stroke-opacity:1;font-size:48.00015445px;text-anchor:start;text-align:start;writing-mode:lr;line-height:125%;" /></flowRegion><flowPara
         id="flowPara3411">タッ</flowPara></flowRoot>    <flowRoot
       xml:space="preserve"
       id="flowRoot2987-7-9-9-7-0-3-5-2-6-5"
       style="font-style:normal;font-variant:normal;font-weight:500;font-stretch:normal;font-size:48.00035476px;line-height:125%;font-family:'Rounded M+ 1c';-inkscape-font-specification:'Rounded M+ 1c, Medium';letter-spacing:0px;word-spacing:0px;fill:#ffffff;fill-opacity:1;stroke:#ffffff;stroke-width:0.99236238;stroke-miterlimit:4;stroke-dasharray:none;stroke-opacity:1;filter:url(#filter4375-4-1-7-3-7-6);text-anchor:start;text-align:start;writing-mode:lr;"
       transform="matrix(0.74738538,-0.36226504,-0.23031168,1.5278671,2226.8064,2821.3226)"
       inkscape:transform-center-x="202.28223"
       inkscape:transform-center-y="-127.60543"><flowRegion
         id="flowRegion2989-4-5-8-7-41-7-68-63-1-5"
         style="stroke-width:5.40286207"><rect
           id="rect2991-45-1-3-3-8-0-3-6-32-1"
           width="319.66232"
           height="53.089447"
           x="120.55251"
           y="265.53046"
           style="font-style:normal;font-variant:normal;font-weight:500;font-stretch:normal;font-family:'Rounded M+ 1c';-inkscape-font-specification:'Rounded M+ 1c, Medium';fill:#ffffff;fill-opacity:1;stroke:#ffffff;stroke-width:0.99236238;stroke-miterlimit:4;stroke-dasharray:none;stroke-opacity:1;font-size:48.00035476px;text-anchor:start;text-align:start;writing-mode:lr;line-height:125%;" /></flowRegion><flowPara
         id="flowPara3413">タッ</flowPara></flowRoot>  </g>
</svg>
